%TF.GenerationSoftware,KiCad,Pcbnew,5.1.7-a382d34a8~87~ubuntu20.04.1*%
%TF.CreationDate,2020-10-30T10:09:33-04:00*%
%TF.ProjectId,encoder_interface_simple_3x2,656e636f-6465-4725-9f69-6e7465726661,1.1*%
%TF.SameCoordinates,Original*%
%TF.FileFunction,Copper,L1,Top*%
%TF.FilePolarity,Positive*%
%FSLAX46Y46*%
G04 Gerber Fmt 4.6, Leading zero omitted, Abs format (unit mm)*
G04 Created by KiCad (PCBNEW 5.1.7-a382d34a8~87~ubuntu20.04.1) date 2020-10-30 10:09:33*
%MOMM*%
%LPD*%
G01*
G04 APERTURE LIST*
%TA.AperFunction,ComponentPad*%
%ADD10C,3.556000*%
%TD*%
%TA.AperFunction,ComponentPad*%
%ADD11O,1.854200X2.540000*%
%TD*%
%TA.AperFunction,ComponentPad*%
%ADD12R,1.854200X2.540000*%
%TD*%
%TA.AperFunction,ComponentPad*%
%ADD13O,5.080000X3.048000*%
%TD*%
%TA.AperFunction,ComponentPad*%
%ADD14O,2.032000X1.524000*%
%TD*%
%TA.AperFunction,ComponentPad*%
%ADD15O,1.524000X2.032000*%
%TD*%
%TA.AperFunction,SMDPad,CuDef*%
%ADD16R,1.270000X3.175000*%
%TD*%
%TA.AperFunction,Conductor*%
%ADD17C,0.812800*%
%TD*%
%TA.AperFunction,Conductor*%
%ADD18C,0.254000*%
%TD*%
%TA.AperFunction,Conductor*%
%ADD19C,0.100000*%
%TD*%
G04 APERTURE END LIST*
D10*
%TO.P,MDB1,*%
%TO.N,*%
X130175000Y-71120000D03*
X130175000Y-106680000D03*
X89535000Y-101600000D03*
X89535000Y-76200000D03*
D11*
%TO.P,MDB1,AREF*%
%TO.N,N/C*%
X88265000Y-106680000D03*
%TO.P,MDB1,VEE*%
%TO.N,VEE*%
X90805000Y-106680000D03*
%TO.P,MDB1,AGND*%
%TO.N,N/C*%
X93345000Y-106680000D03*
%TO.P,MDB1,3V3*%
X95885000Y-106680000D03*
%TO.P,MDB1,23*%
X98425000Y-106680000D03*
%TO.P,MDB1,22*%
X100965000Y-106680000D03*
%TO.P,MDB1,21*%
X103505000Y-106680000D03*
%TO.P,MDB1,20*%
X106045000Y-106680000D03*
%TO.P,MDB1,19*%
X108585000Y-106680000D03*
%TO.P,MDB1,18*%
X111125000Y-106680000D03*
%TO.P,MDB1,17*%
X113665000Y-106680000D03*
%TO.P,MDB1,16*%
X116205000Y-106680000D03*
%TO.P,MDB1,15*%
X118745000Y-106680000D03*
%TO.P,MDB1,14*%
X121285000Y-106680000D03*
%TO.P,MDB1,13*%
X123825000Y-106680000D03*
%TO.P,MDB1,DAC*%
X126365000Y-106680000D03*
%TO.P,MDB1,28*%
X126365000Y-71120000D03*
%TO.P,MDB1,12*%
X123825000Y-71120000D03*
%TO.P,MDB1,11*%
X121285000Y-71120000D03*
%TO.P,MDB1,10*%
X118745000Y-71120000D03*
%TO.P,MDB1,9*%
X116205000Y-71120000D03*
%TO.P,MDB1,29*%
X113665000Y-71120000D03*
%TO.P,MDB1,30*%
X111125000Y-71120000D03*
%TO.P,MDB1,6*%
X108585000Y-71120000D03*
%TO.P,MDB1,5*%
X106045000Y-71120000D03*
%TO.P,MDB1,4*%
%TO.N,/ENCODER_B*%
X103505000Y-71120000D03*
%TO.P,MDB1,3*%
%TO.N,/ENCODER_A*%
X100965000Y-71120000D03*
%TO.P,MDB1,2*%
%TO.N,/~ENABLE*%
X98425000Y-71120000D03*
%TO.P,MDB1,25*%
%TO.N,N/C*%
X95885000Y-71120000D03*
D12*
%TO.P,MDB1,VDD*%
X88265000Y-71120000D03*
D11*
%TO.P,MDB1,24*%
X93345000Y-71120000D03*
%TO.P,MDB1,GND*%
%TO.N,GND*%
X90805000Y-71120000D03*
%TD*%
D13*
%TO.P,P1,*%
%TO.N,*%
X149225000Y-83820000D03*
X149225000Y-93980000D03*
D14*
%TO.P,P1,1*%
%TO.N,/ENCODER_A_BUF*%
X143129000Y-88900000D03*
D15*
%TO.P,P1,3*%
%TO.N,/ENCODER_B_BUF*%
X140335000Y-88900000D03*
%TO.P,P1,2*%
%TO.N,GND*%
X140335000Y-91694000D03*
%TO.P,P1,4*%
X140335000Y-86106000D03*
%TD*%
D16*
%TO.P,P2,2*%
%TO.N,N/C*%
X117475000Y-90995500D03*
%TO.P,P2,1*%
%TO.N,GND*%
X120015000Y-86804500D03*
%TO.P,P2,3*%
%TO.N,/ENCODER_A*%
X114935000Y-86804500D03*
%TO.P,P2,4*%
%TO.N,VEE*%
X112395000Y-90995500D03*
%TO.P,P2,5*%
%TO.N,/ENCODER_B*%
X109855000Y-86804500D03*
%TD*%
D17*
%TO.N,VEE*%
X90805000Y-106680000D02*
X90805000Y-104749300D01*
X112395000Y-90995500D02*
X112395000Y-93243700D01*
X112395000Y-93243700D02*
X102310600Y-93243700D01*
X102310600Y-93243700D02*
X90805000Y-104749300D01*
%TO.N,GND*%
X120015000Y-86804500D02*
X120015000Y-88925400D01*
X139064600Y-88925400D02*
X139064600Y-90169600D01*
X139064600Y-90169600D02*
X140335000Y-91440000D01*
X140335000Y-86360000D02*
X139064600Y-87630400D01*
X139064600Y-87630400D02*
X139064600Y-88925400D01*
X120015000Y-88925400D02*
X139064600Y-88925400D01*
%TO.N,/ENCODER_A*%
X100965000Y-71120000D02*
X100965000Y-80891300D01*
X100965000Y-80891300D02*
X108992700Y-88919000D01*
X108992700Y-88919000D02*
X110826600Y-88919000D01*
X110826600Y-88919000D02*
X112941100Y-86804500D01*
X112941100Y-86804500D02*
X114935000Y-86804500D01*
%TO.N,/ENCODER_B*%
X109855000Y-86804500D02*
X109855000Y-84683600D01*
X109855000Y-84683600D02*
X103505000Y-78333600D01*
X103505000Y-78333600D02*
X103505000Y-71120000D01*
%TD*%
D18*
%TO.N,GND*%
X129560061Y-69092817D02*
X129176393Y-69251737D01*
X128831101Y-69482454D01*
X128537454Y-69776101D01*
X128306737Y-70121393D01*
X128147817Y-70505061D01*
X128066800Y-70912360D01*
X128066800Y-71327640D01*
X128147817Y-71734939D01*
X128306737Y-72118607D01*
X128537454Y-72463899D01*
X128831101Y-72757546D01*
X129176393Y-72988263D01*
X129560061Y-73147183D01*
X129967360Y-73228200D01*
X130382640Y-73228200D01*
X130789939Y-73147183D01*
X131173607Y-72988263D01*
X131518899Y-72757546D01*
X131812546Y-72463899D01*
X132043263Y-72118607D01*
X132202183Y-71734939D01*
X132283200Y-71327640D01*
X132283200Y-70912360D01*
X132202183Y-70505061D01*
X132043263Y-70121393D01*
X131812546Y-69776101D01*
X131518899Y-69482454D01*
X131173607Y-69251737D01*
X130789939Y-69092817D01*
X130446487Y-69024500D01*
X155130501Y-69024500D01*
X155130500Y-108775500D01*
X130446487Y-108775500D01*
X130789939Y-108707183D01*
X131173607Y-108548263D01*
X131518899Y-108317546D01*
X131812546Y-108023899D01*
X132043263Y-107678607D01*
X132202183Y-107294939D01*
X132283200Y-106887640D01*
X132283200Y-106472360D01*
X132202183Y-106065061D01*
X132043263Y-105681393D01*
X131812546Y-105336101D01*
X131518899Y-105042454D01*
X131173607Y-104811737D01*
X130789939Y-104652817D01*
X130382640Y-104571800D01*
X129967360Y-104571800D01*
X129560061Y-104652817D01*
X129176393Y-104811737D01*
X128831101Y-105042454D01*
X128537454Y-105336101D01*
X128306737Y-105681393D01*
X128147817Y-106065061D01*
X128066800Y-106472360D01*
X128066800Y-106887640D01*
X128147817Y-107294939D01*
X128306737Y-107678607D01*
X128537454Y-108023899D01*
X128831101Y-108317546D01*
X129176393Y-108548263D01*
X129560061Y-108707183D01*
X129903513Y-108775500D01*
X86169500Y-108775500D01*
X86169500Y-106275340D01*
X87007700Y-106275340D01*
X87007700Y-107084661D01*
X87025893Y-107269374D01*
X87097786Y-107506376D01*
X87214535Y-107724798D01*
X87371654Y-107916247D01*
X87563103Y-108073365D01*
X87781525Y-108190114D01*
X88018527Y-108262007D01*
X88265000Y-108286283D01*
X88511474Y-108262007D01*
X88748476Y-108190114D01*
X88966898Y-108073365D01*
X89158347Y-107916247D01*
X89315465Y-107724798D01*
X89432214Y-107506376D01*
X89504107Y-107269373D01*
X89509477Y-107214855D01*
X89515827Y-107279332D01*
X89590626Y-107525910D01*
X89712092Y-107753158D01*
X89875559Y-107952342D01*
X90074743Y-108115808D01*
X90301991Y-108237274D01*
X90548569Y-108312073D01*
X90805000Y-108337329D01*
X91061432Y-108312073D01*
X91308010Y-108237274D01*
X91535258Y-108115808D01*
X91734442Y-107952342D01*
X91897908Y-107753158D01*
X92019374Y-107525910D01*
X92094173Y-107279331D01*
X92100523Y-107214855D01*
X92105893Y-107269374D01*
X92177786Y-107506376D01*
X92294535Y-107724798D01*
X92451654Y-107916247D01*
X92643103Y-108073365D01*
X92861525Y-108190114D01*
X93098527Y-108262007D01*
X93345000Y-108286283D01*
X93591474Y-108262007D01*
X93828476Y-108190114D01*
X94046898Y-108073365D01*
X94238347Y-107916247D01*
X94395465Y-107724798D01*
X94512214Y-107506376D01*
X94584107Y-107269373D01*
X94602300Y-107084660D01*
X94602300Y-106275340D01*
X94627700Y-106275340D01*
X94627700Y-107084661D01*
X94645893Y-107269374D01*
X94717786Y-107506376D01*
X94834535Y-107724798D01*
X94991654Y-107916247D01*
X95183103Y-108073365D01*
X95401525Y-108190114D01*
X95638527Y-108262007D01*
X95885000Y-108286283D01*
X96131474Y-108262007D01*
X96368476Y-108190114D01*
X96586898Y-108073365D01*
X96778347Y-107916247D01*
X96935465Y-107724798D01*
X97052214Y-107506376D01*
X97124107Y-107269373D01*
X97142300Y-107084660D01*
X97142300Y-106275340D01*
X97167700Y-106275340D01*
X97167700Y-107084661D01*
X97185893Y-107269374D01*
X97257786Y-107506376D01*
X97374535Y-107724798D01*
X97531654Y-107916247D01*
X97723103Y-108073365D01*
X97941525Y-108190114D01*
X98178527Y-108262007D01*
X98425000Y-108286283D01*
X98671474Y-108262007D01*
X98908476Y-108190114D01*
X99126898Y-108073365D01*
X99318347Y-107916247D01*
X99475465Y-107724798D01*
X99592214Y-107506376D01*
X99664107Y-107269373D01*
X99682300Y-107084660D01*
X99682300Y-106275340D01*
X99707700Y-106275340D01*
X99707700Y-107084661D01*
X99725893Y-107269374D01*
X99797786Y-107506376D01*
X99914535Y-107724798D01*
X100071654Y-107916247D01*
X100263103Y-108073365D01*
X100481525Y-108190114D01*
X100718527Y-108262007D01*
X100965000Y-108286283D01*
X101211474Y-108262007D01*
X101448476Y-108190114D01*
X101666898Y-108073365D01*
X101858347Y-107916247D01*
X102015465Y-107724798D01*
X102132214Y-107506376D01*
X102204107Y-107269373D01*
X102222300Y-107084660D01*
X102222300Y-106275340D01*
X102247700Y-106275340D01*
X102247700Y-107084661D01*
X102265893Y-107269374D01*
X102337786Y-107506376D01*
X102454535Y-107724798D01*
X102611654Y-107916247D01*
X102803103Y-108073365D01*
X103021525Y-108190114D01*
X103258527Y-108262007D01*
X103505000Y-108286283D01*
X103751474Y-108262007D01*
X103988476Y-108190114D01*
X104206898Y-108073365D01*
X104398347Y-107916247D01*
X104555465Y-107724798D01*
X104672214Y-107506376D01*
X104744107Y-107269373D01*
X104762300Y-107084660D01*
X104762300Y-106275340D01*
X104787700Y-106275340D01*
X104787700Y-107084661D01*
X104805893Y-107269374D01*
X104877786Y-107506376D01*
X104994535Y-107724798D01*
X105151654Y-107916247D01*
X105343103Y-108073365D01*
X105561525Y-108190114D01*
X105798527Y-108262007D01*
X106045000Y-108286283D01*
X106291474Y-108262007D01*
X106528476Y-108190114D01*
X106746898Y-108073365D01*
X106938347Y-107916247D01*
X107095465Y-107724798D01*
X107212214Y-107506376D01*
X107284107Y-107269373D01*
X107302300Y-107084660D01*
X107302300Y-106275340D01*
X107327700Y-106275340D01*
X107327700Y-107084661D01*
X107345893Y-107269374D01*
X107417786Y-107506376D01*
X107534535Y-107724798D01*
X107691654Y-107916247D01*
X107883103Y-108073365D01*
X108101525Y-108190114D01*
X108338527Y-108262007D01*
X108585000Y-108286283D01*
X108831474Y-108262007D01*
X109068476Y-108190114D01*
X109286898Y-108073365D01*
X109478347Y-107916247D01*
X109635465Y-107724798D01*
X109752214Y-107506376D01*
X109824107Y-107269373D01*
X109842300Y-107084660D01*
X109842300Y-106275340D01*
X109867700Y-106275340D01*
X109867700Y-107084661D01*
X109885893Y-107269374D01*
X109957786Y-107506376D01*
X110074535Y-107724798D01*
X110231654Y-107916247D01*
X110423103Y-108073365D01*
X110641525Y-108190114D01*
X110878527Y-108262007D01*
X111125000Y-108286283D01*
X111371474Y-108262007D01*
X111608476Y-108190114D01*
X111826898Y-108073365D01*
X112018347Y-107916247D01*
X112175465Y-107724798D01*
X112292214Y-107506376D01*
X112364107Y-107269373D01*
X112382300Y-107084660D01*
X112382300Y-106275340D01*
X112407700Y-106275340D01*
X112407700Y-107084661D01*
X112425893Y-107269374D01*
X112497786Y-107506376D01*
X112614535Y-107724798D01*
X112771654Y-107916247D01*
X112963103Y-108073365D01*
X113181525Y-108190114D01*
X113418527Y-108262007D01*
X113665000Y-108286283D01*
X113911474Y-108262007D01*
X114148476Y-108190114D01*
X114366898Y-108073365D01*
X114558347Y-107916247D01*
X114715465Y-107724798D01*
X114832214Y-107506376D01*
X114904107Y-107269373D01*
X114922300Y-107084660D01*
X114922300Y-106275340D01*
X114947700Y-106275340D01*
X114947700Y-107084661D01*
X114965893Y-107269374D01*
X115037786Y-107506376D01*
X115154535Y-107724798D01*
X115311654Y-107916247D01*
X115503103Y-108073365D01*
X115721525Y-108190114D01*
X115958527Y-108262007D01*
X116205000Y-108286283D01*
X116451474Y-108262007D01*
X116688476Y-108190114D01*
X116906898Y-108073365D01*
X117098347Y-107916247D01*
X117255465Y-107724798D01*
X117372214Y-107506376D01*
X117444107Y-107269373D01*
X117462300Y-107084660D01*
X117462300Y-106275340D01*
X117487700Y-106275340D01*
X117487700Y-107084661D01*
X117505893Y-107269374D01*
X117577786Y-107506376D01*
X117694535Y-107724798D01*
X117851654Y-107916247D01*
X118043103Y-108073365D01*
X118261525Y-108190114D01*
X118498527Y-108262007D01*
X118745000Y-108286283D01*
X118991474Y-108262007D01*
X119228476Y-108190114D01*
X119446898Y-108073365D01*
X119638347Y-107916247D01*
X119795465Y-107724798D01*
X119912214Y-107506376D01*
X119984107Y-107269373D01*
X120002300Y-107084660D01*
X120002300Y-106275340D01*
X120027700Y-106275340D01*
X120027700Y-107084661D01*
X120045893Y-107269374D01*
X120117786Y-107506376D01*
X120234535Y-107724798D01*
X120391654Y-107916247D01*
X120583103Y-108073365D01*
X120801525Y-108190114D01*
X121038527Y-108262007D01*
X121285000Y-108286283D01*
X121531474Y-108262007D01*
X121768476Y-108190114D01*
X121986898Y-108073365D01*
X122178347Y-107916247D01*
X122335465Y-107724798D01*
X122452214Y-107506376D01*
X122524107Y-107269373D01*
X122542300Y-107084660D01*
X122542300Y-106275340D01*
X122567700Y-106275340D01*
X122567700Y-107084661D01*
X122585893Y-107269374D01*
X122657786Y-107506376D01*
X122774535Y-107724798D01*
X122931654Y-107916247D01*
X123123103Y-108073365D01*
X123341525Y-108190114D01*
X123578527Y-108262007D01*
X123825000Y-108286283D01*
X124071474Y-108262007D01*
X124308476Y-108190114D01*
X124526898Y-108073365D01*
X124718347Y-107916247D01*
X124875465Y-107724798D01*
X124992214Y-107506376D01*
X125064107Y-107269373D01*
X125082300Y-107084660D01*
X125082300Y-106275340D01*
X125107700Y-106275340D01*
X125107700Y-107084661D01*
X125125893Y-107269374D01*
X125197786Y-107506376D01*
X125314535Y-107724798D01*
X125471654Y-107916247D01*
X125663103Y-108073365D01*
X125881525Y-108190114D01*
X126118527Y-108262007D01*
X126365000Y-108286283D01*
X126611474Y-108262007D01*
X126848476Y-108190114D01*
X127066898Y-108073365D01*
X127258347Y-107916247D01*
X127415465Y-107724798D01*
X127532214Y-107506376D01*
X127604107Y-107269373D01*
X127622300Y-107084660D01*
X127622300Y-106275339D01*
X127604107Y-106090626D01*
X127532214Y-105853624D01*
X127415465Y-105635202D01*
X127258347Y-105443753D01*
X127066897Y-105286635D01*
X126848475Y-105169886D01*
X126611473Y-105097993D01*
X126365000Y-105073717D01*
X126118526Y-105097993D01*
X125881524Y-105169886D01*
X125663102Y-105286635D01*
X125471653Y-105443753D01*
X125314535Y-105635203D01*
X125197786Y-105853625D01*
X125125893Y-106090627D01*
X125107700Y-106275340D01*
X125082300Y-106275340D01*
X125082300Y-106275339D01*
X125064107Y-106090626D01*
X124992214Y-105853624D01*
X124875465Y-105635202D01*
X124718347Y-105443753D01*
X124526897Y-105286635D01*
X124308475Y-105169886D01*
X124071473Y-105097993D01*
X123825000Y-105073717D01*
X123578526Y-105097993D01*
X123341524Y-105169886D01*
X123123102Y-105286635D01*
X122931653Y-105443753D01*
X122774535Y-105635203D01*
X122657786Y-105853625D01*
X122585893Y-106090627D01*
X122567700Y-106275340D01*
X122542300Y-106275340D01*
X122542300Y-106275339D01*
X122524107Y-106090626D01*
X122452214Y-105853624D01*
X122335465Y-105635202D01*
X122178347Y-105443753D01*
X121986897Y-105286635D01*
X121768475Y-105169886D01*
X121531473Y-105097993D01*
X121285000Y-105073717D01*
X121038526Y-105097993D01*
X120801524Y-105169886D01*
X120583102Y-105286635D01*
X120391653Y-105443753D01*
X120234535Y-105635203D01*
X120117786Y-105853625D01*
X120045893Y-106090627D01*
X120027700Y-106275340D01*
X120002300Y-106275340D01*
X120002300Y-106275339D01*
X119984107Y-106090626D01*
X119912214Y-105853624D01*
X119795465Y-105635202D01*
X119638347Y-105443753D01*
X119446897Y-105286635D01*
X119228475Y-105169886D01*
X118991473Y-105097993D01*
X118745000Y-105073717D01*
X118498526Y-105097993D01*
X118261524Y-105169886D01*
X118043102Y-105286635D01*
X117851653Y-105443753D01*
X117694535Y-105635203D01*
X117577786Y-105853625D01*
X117505893Y-106090627D01*
X117487700Y-106275340D01*
X117462300Y-106275340D01*
X117462300Y-106275339D01*
X117444107Y-106090626D01*
X117372214Y-105853624D01*
X117255465Y-105635202D01*
X117098347Y-105443753D01*
X116906897Y-105286635D01*
X116688475Y-105169886D01*
X116451473Y-105097993D01*
X116205000Y-105073717D01*
X115958526Y-105097993D01*
X115721524Y-105169886D01*
X115503102Y-105286635D01*
X115311653Y-105443753D01*
X115154535Y-105635203D01*
X115037786Y-105853625D01*
X114965893Y-106090627D01*
X114947700Y-106275340D01*
X114922300Y-106275340D01*
X114922300Y-106275339D01*
X114904107Y-106090626D01*
X114832214Y-105853624D01*
X114715465Y-105635202D01*
X114558347Y-105443753D01*
X114366897Y-105286635D01*
X114148475Y-105169886D01*
X113911473Y-105097993D01*
X113665000Y-105073717D01*
X113418526Y-105097993D01*
X113181524Y-105169886D01*
X112963102Y-105286635D01*
X112771653Y-105443753D01*
X112614535Y-105635203D01*
X112497786Y-105853625D01*
X112425893Y-106090627D01*
X112407700Y-106275340D01*
X112382300Y-106275340D01*
X112382300Y-106275339D01*
X112364107Y-106090626D01*
X112292214Y-105853624D01*
X112175465Y-105635202D01*
X112018347Y-105443753D01*
X111826897Y-105286635D01*
X111608475Y-105169886D01*
X111371473Y-105097993D01*
X111125000Y-105073717D01*
X110878526Y-105097993D01*
X110641524Y-105169886D01*
X110423102Y-105286635D01*
X110231653Y-105443753D01*
X110074535Y-105635203D01*
X109957786Y-105853625D01*
X109885893Y-106090627D01*
X109867700Y-106275340D01*
X109842300Y-106275340D01*
X109842300Y-106275339D01*
X109824107Y-106090626D01*
X109752214Y-105853624D01*
X109635465Y-105635202D01*
X109478347Y-105443753D01*
X109286897Y-105286635D01*
X109068475Y-105169886D01*
X108831473Y-105097993D01*
X108585000Y-105073717D01*
X108338526Y-105097993D01*
X108101524Y-105169886D01*
X107883102Y-105286635D01*
X107691653Y-105443753D01*
X107534535Y-105635203D01*
X107417786Y-105853625D01*
X107345893Y-106090627D01*
X107327700Y-106275340D01*
X107302300Y-106275340D01*
X107302300Y-106275339D01*
X107284107Y-106090626D01*
X107212214Y-105853624D01*
X107095465Y-105635202D01*
X106938347Y-105443753D01*
X106746897Y-105286635D01*
X106528475Y-105169886D01*
X106291473Y-105097993D01*
X106045000Y-105073717D01*
X105798526Y-105097993D01*
X105561524Y-105169886D01*
X105343102Y-105286635D01*
X105151653Y-105443753D01*
X104994535Y-105635203D01*
X104877786Y-105853625D01*
X104805893Y-106090627D01*
X104787700Y-106275340D01*
X104762300Y-106275340D01*
X104762300Y-106275339D01*
X104744107Y-106090626D01*
X104672214Y-105853624D01*
X104555465Y-105635202D01*
X104398347Y-105443753D01*
X104206897Y-105286635D01*
X103988475Y-105169886D01*
X103751473Y-105097993D01*
X103505000Y-105073717D01*
X103258526Y-105097993D01*
X103021524Y-105169886D01*
X102803102Y-105286635D01*
X102611653Y-105443753D01*
X102454535Y-105635203D01*
X102337786Y-105853625D01*
X102265893Y-106090627D01*
X102247700Y-106275340D01*
X102222300Y-106275340D01*
X102222300Y-106275339D01*
X102204107Y-106090626D01*
X102132214Y-105853624D01*
X102015465Y-105635202D01*
X101858347Y-105443753D01*
X101666897Y-105286635D01*
X101448475Y-105169886D01*
X101211473Y-105097993D01*
X100965000Y-105073717D01*
X100718526Y-105097993D01*
X100481524Y-105169886D01*
X100263102Y-105286635D01*
X100071653Y-105443753D01*
X99914535Y-105635203D01*
X99797786Y-105853625D01*
X99725893Y-106090627D01*
X99707700Y-106275340D01*
X99682300Y-106275340D01*
X99682300Y-106275339D01*
X99664107Y-106090626D01*
X99592214Y-105853624D01*
X99475465Y-105635202D01*
X99318347Y-105443753D01*
X99126897Y-105286635D01*
X98908475Y-105169886D01*
X98671473Y-105097993D01*
X98425000Y-105073717D01*
X98178526Y-105097993D01*
X97941524Y-105169886D01*
X97723102Y-105286635D01*
X97531653Y-105443753D01*
X97374535Y-105635203D01*
X97257786Y-105853625D01*
X97185893Y-106090627D01*
X97167700Y-106275340D01*
X97142300Y-106275340D01*
X97142300Y-106275339D01*
X97124107Y-106090626D01*
X97052214Y-105853624D01*
X96935465Y-105635202D01*
X96778347Y-105443753D01*
X96586897Y-105286635D01*
X96368475Y-105169886D01*
X96131473Y-105097993D01*
X95885000Y-105073717D01*
X95638526Y-105097993D01*
X95401524Y-105169886D01*
X95183102Y-105286635D01*
X94991653Y-105443753D01*
X94834535Y-105635203D01*
X94717786Y-105853625D01*
X94645893Y-106090627D01*
X94627700Y-106275340D01*
X94602300Y-106275340D01*
X94602300Y-106275339D01*
X94584107Y-106090626D01*
X94512214Y-105853624D01*
X94395465Y-105635202D01*
X94238347Y-105443753D01*
X94046897Y-105286635D01*
X93828475Y-105169886D01*
X93591473Y-105097993D01*
X93345000Y-105073717D01*
X93098526Y-105097993D01*
X92861524Y-105169886D01*
X92643102Y-105286635D01*
X92451653Y-105443753D01*
X92294535Y-105635203D01*
X92177786Y-105853625D01*
X92105893Y-106090627D01*
X92100523Y-106145145D01*
X92094173Y-106080668D01*
X92019374Y-105834090D01*
X91897908Y-105606842D01*
X91734442Y-105407658D01*
X91592400Y-105291088D01*
X91592400Y-105075450D01*
X102636752Y-94031100D01*
X112356327Y-94031100D01*
X112395000Y-94034909D01*
X112433673Y-94031100D01*
X112549357Y-94019706D01*
X112680251Y-93980000D01*
X146345829Y-93980000D01*
X146381629Y-94343487D01*
X146487654Y-94693005D01*
X146659830Y-95015122D01*
X146891539Y-95297461D01*
X147173878Y-95529170D01*
X147495995Y-95701346D01*
X147845513Y-95807371D01*
X148117915Y-95834200D01*
X150332085Y-95834200D01*
X150604487Y-95807371D01*
X150954005Y-95701346D01*
X151276122Y-95529170D01*
X151558461Y-95297461D01*
X151790170Y-95015122D01*
X151962346Y-94693005D01*
X152068371Y-94343487D01*
X152104171Y-93980000D01*
X152068371Y-93616513D01*
X151962346Y-93266995D01*
X151790170Y-92944878D01*
X151558461Y-92662539D01*
X151276122Y-92430830D01*
X150954005Y-92258654D01*
X150604487Y-92152629D01*
X150332085Y-92125800D01*
X148117915Y-92125800D01*
X147845513Y-92152629D01*
X147495995Y-92258654D01*
X147173878Y-92430830D01*
X146891539Y-92662539D01*
X146659830Y-92944878D01*
X146487654Y-93266995D01*
X146381629Y-93616513D01*
X146345829Y-93980000D01*
X112680251Y-93980000D01*
X112697783Y-93974682D01*
X112834572Y-93901566D01*
X112954469Y-93803169D01*
X113052866Y-93683272D01*
X113125982Y-93546483D01*
X113171006Y-93398057D01*
X113186209Y-93243700D01*
X113182400Y-93205027D01*
X113182400Y-92933552D01*
X113242696Y-92901322D01*
X113300711Y-92853711D01*
X113348322Y-92795696D01*
X113383701Y-92729508D01*
X113405487Y-92657689D01*
X113412843Y-92583000D01*
X113412843Y-89408000D01*
X116508203Y-89408000D01*
X116508203Y-92583000D01*
X116514578Y-92647730D01*
X116533460Y-92709973D01*
X116564121Y-92767337D01*
X116605384Y-92817616D01*
X116655663Y-92858879D01*
X116713027Y-92889540D01*
X116775270Y-92908422D01*
X116840000Y-92914797D01*
X118110000Y-92914797D01*
X118174730Y-92908422D01*
X118236973Y-92889540D01*
X118294337Y-92858879D01*
X118344616Y-92817616D01*
X118385879Y-92767337D01*
X118416540Y-92709973D01*
X118435422Y-92647730D01*
X118441797Y-92583000D01*
X118441797Y-91821000D01*
X138938000Y-91821000D01*
X138938000Y-92075000D01*
X138989619Y-92345101D01*
X139092941Y-92599942D01*
X139243994Y-92829729D01*
X139436974Y-93025632D01*
X139664465Y-93180122D01*
X139917724Y-93287262D01*
X139991930Y-93302220D01*
X140208000Y-93179720D01*
X140208000Y-91821000D01*
X140462000Y-91821000D01*
X140462000Y-93179720D01*
X140678070Y-93302220D01*
X140752276Y-93287262D01*
X141005535Y-93180122D01*
X141233026Y-93025632D01*
X141426006Y-92829729D01*
X141577059Y-92599942D01*
X141680381Y-92345101D01*
X141732000Y-92075000D01*
X141732000Y-91821000D01*
X140462000Y-91821000D01*
X140208000Y-91821000D01*
X138938000Y-91821000D01*
X118441797Y-91821000D01*
X118441797Y-89408000D01*
X118435422Y-89343270D01*
X118416540Y-89281027D01*
X118385879Y-89223663D01*
X118344616Y-89173384D01*
X118294337Y-89132121D01*
X118236973Y-89101460D01*
X118174730Y-89082578D01*
X118110000Y-89076203D01*
X116840000Y-89076203D01*
X116775270Y-89082578D01*
X116713027Y-89101460D01*
X116655663Y-89132121D01*
X116605384Y-89173384D01*
X116564121Y-89223663D01*
X116533460Y-89281027D01*
X116514578Y-89343270D01*
X116508203Y-89408000D01*
X113412843Y-89408000D01*
X113405487Y-89333311D01*
X113383701Y-89261492D01*
X113348322Y-89195304D01*
X113300711Y-89137289D01*
X113242696Y-89089678D01*
X113176508Y-89054299D01*
X113104689Y-89032513D01*
X113030000Y-89025157D01*
X111762152Y-89025157D01*
X113246210Y-87541100D01*
X113968203Y-87541100D01*
X113968203Y-88392000D01*
X113974578Y-88456730D01*
X113993460Y-88518973D01*
X114024121Y-88576337D01*
X114065384Y-88626616D01*
X114115663Y-88667879D01*
X114173027Y-88698540D01*
X114235270Y-88717422D01*
X114300000Y-88723797D01*
X115570000Y-88723797D01*
X115634730Y-88717422D01*
X115696973Y-88698540D01*
X115754337Y-88667879D01*
X115804616Y-88626616D01*
X115845879Y-88576337D01*
X115876540Y-88518973D01*
X115895422Y-88456730D01*
X115901797Y-88392000D01*
X118741928Y-88392000D01*
X118754188Y-88516482D01*
X118790498Y-88636180D01*
X118849463Y-88746494D01*
X118928815Y-88843185D01*
X119025506Y-88922537D01*
X119135820Y-88981502D01*
X119255518Y-89017812D01*
X119380000Y-89030072D01*
X119729250Y-89027000D01*
X119888000Y-88868250D01*
X119888000Y-86931500D01*
X120142000Y-86931500D01*
X120142000Y-88868250D01*
X120300750Y-89027000D01*
X120650000Y-89030072D01*
X120774482Y-89017812D01*
X120894180Y-88981502D01*
X121004494Y-88922537D01*
X121101185Y-88843185D01*
X121180537Y-88746494D01*
X121239502Y-88636180D01*
X121275812Y-88516482D01*
X121288072Y-88392000D01*
X121285000Y-87090250D01*
X121126250Y-86931500D01*
X120142000Y-86931500D01*
X119888000Y-86931500D01*
X118903750Y-86931500D01*
X118745000Y-87090250D01*
X118741928Y-88392000D01*
X115901797Y-88392000D01*
X115901797Y-85217000D01*
X118741928Y-85217000D01*
X118745000Y-86518750D01*
X118903750Y-86677500D01*
X119888000Y-86677500D01*
X119888000Y-84740750D01*
X120142000Y-84740750D01*
X120142000Y-86677500D01*
X121126250Y-86677500D01*
X121285000Y-86518750D01*
X121285674Y-86233000D01*
X138938000Y-86233000D01*
X138938000Y-86487000D01*
X138989619Y-86757101D01*
X139092941Y-87011942D01*
X139243994Y-87241729D01*
X139436974Y-87437632D01*
X139664465Y-87592122D01*
X139846026Y-87668931D01*
X139725272Y-87733475D01*
X139558963Y-87869962D01*
X139422476Y-88036271D01*
X139321057Y-88226011D01*
X139258604Y-88431891D01*
X139242800Y-88592351D01*
X139242800Y-89207648D01*
X139258604Y-89368108D01*
X139321057Y-89573988D01*
X139422475Y-89763729D01*
X139558962Y-89930038D01*
X139725271Y-90066525D01*
X139846026Y-90131070D01*
X139664465Y-90207878D01*
X139436974Y-90362368D01*
X139243994Y-90558271D01*
X139092941Y-90788058D01*
X138989619Y-91042899D01*
X138938000Y-91313000D01*
X138938000Y-91567000D01*
X140208000Y-91567000D01*
X140208000Y-91547000D01*
X140462000Y-91547000D01*
X140462000Y-91567000D01*
X141732000Y-91567000D01*
X141732000Y-91313000D01*
X141680381Y-91042899D01*
X141577059Y-90788058D01*
X141426006Y-90558271D01*
X141233026Y-90362368D01*
X141005535Y-90207878D01*
X140823974Y-90131069D01*
X140944729Y-90066525D01*
X141111038Y-89930038D01*
X141247525Y-89763729D01*
X141348943Y-89573989D01*
X141411396Y-89368109D01*
X141427200Y-89207649D01*
X141427200Y-88900000D01*
X141777516Y-88900000D01*
X141798604Y-89114109D01*
X141861057Y-89319989D01*
X141962475Y-89509729D01*
X142098962Y-89676038D01*
X142265271Y-89812525D01*
X142455011Y-89913943D01*
X142660891Y-89976396D01*
X142821351Y-89992200D01*
X143436649Y-89992200D01*
X143597109Y-89976396D01*
X143802989Y-89913943D01*
X143992729Y-89812525D01*
X144159038Y-89676038D01*
X144295525Y-89509729D01*
X144396943Y-89319989D01*
X144459396Y-89114109D01*
X144480484Y-88900000D01*
X144459396Y-88685891D01*
X144396943Y-88480011D01*
X144295525Y-88290271D01*
X144159038Y-88123962D01*
X143992729Y-87987475D01*
X143802989Y-87886057D01*
X143597109Y-87823604D01*
X143436649Y-87807800D01*
X142821351Y-87807800D01*
X142660891Y-87823604D01*
X142455011Y-87886057D01*
X142265271Y-87987475D01*
X142098962Y-88123962D01*
X141962475Y-88290271D01*
X141861057Y-88480011D01*
X141798604Y-88685891D01*
X141777516Y-88900000D01*
X141427200Y-88900000D01*
X141427200Y-88592352D01*
X141411396Y-88431892D01*
X141348943Y-88226012D01*
X141247525Y-88036271D01*
X141111038Y-87869962D01*
X140944729Y-87733475D01*
X140823974Y-87668930D01*
X141005535Y-87592122D01*
X141233026Y-87437632D01*
X141426006Y-87241729D01*
X141577059Y-87011942D01*
X141680381Y-86757101D01*
X141732000Y-86487000D01*
X141732000Y-86233000D01*
X140462000Y-86233000D01*
X140462000Y-86253000D01*
X140208000Y-86253000D01*
X140208000Y-86233000D01*
X138938000Y-86233000D01*
X121285674Y-86233000D01*
X121286873Y-85725000D01*
X138938000Y-85725000D01*
X138938000Y-85979000D01*
X140208000Y-85979000D01*
X140208000Y-84620280D01*
X140462000Y-84620280D01*
X140462000Y-85979000D01*
X141732000Y-85979000D01*
X141732000Y-85725000D01*
X141680381Y-85454899D01*
X141577059Y-85200058D01*
X141426006Y-84970271D01*
X141233026Y-84774368D01*
X141005535Y-84619878D01*
X140752276Y-84512738D01*
X140678070Y-84497780D01*
X140462000Y-84620280D01*
X140208000Y-84620280D01*
X139991930Y-84497780D01*
X139917724Y-84512738D01*
X139664465Y-84619878D01*
X139436974Y-84774368D01*
X139243994Y-84970271D01*
X139092941Y-85200058D01*
X138989619Y-85454899D01*
X138938000Y-85725000D01*
X121286873Y-85725000D01*
X121288072Y-85217000D01*
X121275812Y-85092518D01*
X121239502Y-84972820D01*
X121180537Y-84862506D01*
X121101185Y-84765815D01*
X121004494Y-84686463D01*
X120894180Y-84627498D01*
X120774482Y-84591188D01*
X120650000Y-84578928D01*
X120300750Y-84582000D01*
X120142000Y-84740750D01*
X119888000Y-84740750D01*
X119729250Y-84582000D01*
X119380000Y-84578928D01*
X119255518Y-84591188D01*
X119135820Y-84627498D01*
X119025506Y-84686463D01*
X118928815Y-84765815D01*
X118849463Y-84862506D01*
X118790498Y-84972820D01*
X118754188Y-85092518D01*
X118741928Y-85217000D01*
X115901797Y-85217000D01*
X115895422Y-85152270D01*
X115876540Y-85090027D01*
X115845879Y-85032663D01*
X115804616Y-84982384D01*
X115754337Y-84941121D01*
X115696973Y-84910460D01*
X115634730Y-84891578D01*
X115570000Y-84885203D01*
X114300000Y-84885203D01*
X114235270Y-84891578D01*
X114173027Y-84910460D01*
X114115663Y-84941121D01*
X114065384Y-84982384D01*
X114024121Y-85032663D01*
X113993460Y-85090027D01*
X113974578Y-85152270D01*
X113968203Y-85217000D01*
X113968203Y-86067900D01*
X112977286Y-86067900D01*
X112941100Y-86064336D01*
X112904914Y-86067900D01*
X112796701Y-86078558D01*
X112657851Y-86120678D01*
X112529887Y-86189076D01*
X112417725Y-86281125D01*
X112394659Y-86309231D01*
X110821797Y-87882094D01*
X110821797Y-85217000D01*
X110815422Y-85152270D01*
X110796540Y-85090027D01*
X110765879Y-85032663D01*
X110724616Y-84982384D01*
X110674337Y-84941121D01*
X110616973Y-84910460D01*
X110591600Y-84902763D01*
X110591600Y-84719775D01*
X110595163Y-84683599D01*
X110591600Y-84647423D01*
X110591600Y-84647414D01*
X110580942Y-84539201D01*
X110538822Y-84400351D01*
X110470424Y-84272387D01*
X110378375Y-84160225D01*
X110350269Y-84137159D01*
X110033110Y-83820000D01*
X146345829Y-83820000D01*
X146381629Y-84183487D01*
X146487654Y-84533005D01*
X146659830Y-84855122D01*
X146891539Y-85137461D01*
X147173878Y-85369170D01*
X147495995Y-85541346D01*
X147845513Y-85647371D01*
X148117915Y-85674200D01*
X150332085Y-85674200D01*
X150604487Y-85647371D01*
X150954005Y-85541346D01*
X151276122Y-85369170D01*
X151558461Y-85137461D01*
X151790170Y-84855122D01*
X151962346Y-84533005D01*
X152068371Y-84183487D01*
X152104171Y-83820000D01*
X152068371Y-83456513D01*
X151962346Y-83106995D01*
X151790170Y-82784878D01*
X151558461Y-82502539D01*
X151276122Y-82270830D01*
X150954005Y-82098654D01*
X150604487Y-81992629D01*
X150332085Y-81965800D01*
X148117915Y-81965800D01*
X147845513Y-81992629D01*
X147495995Y-82098654D01*
X147173878Y-82270830D01*
X146891539Y-82502539D01*
X146659830Y-82784878D01*
X146487654Y-83106995D01*
X146381629Y-83456513D01*
X146345829Y-83820000D01*
X110033110Y-83820000D01*
X104241600Y-78028491D01*
X104241600Y-72484886D01*
X104398347Y-72356247D01*
X104555465Y-72164798D01*
X104672214Y-71946376D01*
X104744107Y-71709373D01*
X104762300Y-71524660D01*
X104762300Y-70715340D01*
X104787700Y-70715340D01*
X104787700Y-71524661D01*
X104805893Y-71709374D01*
X104877786Y-71946376D01*
X104994535Y-72164798D01*
X105151654Y-72356247D01*
X105343103Y-72513365D01*
X105561525Y-72630114D01*
X105798527Y-72702007D01*
X106045000Y-72726283D01*
X106291474Y-72702007D01*
X106528476Y-72630114D01*
X106746898Y-72513365D01*
X106938347Y-72356247D01*
X107095465Y-72164798D01*
X107212214Y-71946376D01*
X107284107Y-71709373D01*
X107302300Y-71524660D01*
X107302300Y-70715340D01*
X107327700Y-70715340D01*
X107327700Y-71524661D01*
X107345893Y-71709374D01*
X107417786Y-71946376D01*
X107534535Y-72164798D01*
X107691654Y-72356247D01*
X107883103Y-72513365D01*
X108101525Y-72630114D01*
X108338527Y-72702007D01*
X108585000Y-72726283D01*
X108831474Y-72702007D01*
X109068476Y-72630114D01*
X109286898Y-72513365D01*
X109478347Y-72356247D01*
X109635465Y-72164798D01*
X109752214Y-71946376D01*
X109824107Y-71709373D01*
X109842300Y-71524660D01*
X109842300Y-70715340D01*
X109867700Y-70715340D01*
X109867700Y-71524661D01*
X109885893Y-71709374D01*
X109957786Y-71946376D01*
X110074535Y-72164798D01*
X110231654Y-72356247D01*
X110423103Y-72513365D01*
X110641525Y-72630114D01*
X110878527Y-72702007D01*
X111125000Y-72726283D01*
X111371474Y-72702007D01*
X111608476Y-72630114D01*
X111826898Y-72513365D01*
X112018347Y-72356247D01*
X112175465Y-72164798D01*
X112292214Y-71946376D01*
X112364107Y-71709373D01*
X112382300Y-71524660D01*
X112382300Y-70715340D01*
X112407700Y-70715340D01*
X112407700Y-71524661D01*
X112425893Y-71709374D01*
X112497786Y-71946376D01*
X112614535Y-72164798D01*
X112771654Y-72356247D01*
X112963103Y-72513365D01*
X113181525Y-72630114D01*
X113418527Y-72702007D01*
X113665000Y-72726283D01*
X113911474Y-72702007D01*
X114148476Y-72630114D01*
X114366898Y-72513365D01*
X114558347Y-72356247D01*
X114715465Y-72164798D01*
X114832214Y-71946376D01*
X114904107Y-71709373D01*
X114922300Y-71524660D01*
X114922300Y-70715340D01*
X114947700Y-70715340D01*
X114947700Y-71524661D01*
X114965893Y-71709374D01*
X115037786Y-71946376D01*
X115154535Y-72164798D01*
X115311654Y-72356247D01*
X115503103Y-72513365D01*
X115721525Y-72630114D01*
X115958527Y-72702007D01*
X116205000Y-72726283D01*
X116451474Y-72702007D01*
X116688476Y-72630114D01*
X116906898Y-72513365D01*
X117098347Y-72356247D01*
X117255465Y-72164798D01*
X117372214Y-71946376D01*
X117444107Y-71709373D01*
X117462300Y-71524660D01*
X117462300Y-70715340D01*
X117487700Y-70715340D01*
X117487700Y-71524661D01*
X117505893Y-71709374D01*
X117577786Y-71946376D01*
X117694535Y-72164798D01*
X117851654Y-72356247D01*
X118043103Y-72513365D01*
X118261525Y-72630114D01*
X118498527Y-72702007D01*
X118745000Y-72726283D01*
X118991474Y-72702007D01*
X119228476Y-72630114D01*
X119446898Y-72513365D01*
X119638347Y-72356247D01*
X119795465Y-72164798D01*
X119912214Y-71946376D01*
X119984107Y-71709373D01*
X120002300Y-71524660D01*
X120002300Y-70715340D01*
X120027700Y-70715340D01*
X120027700Y-71524661D01*
X120045893Y-71709374D01*
X120117786Y-71946376D01*
X120234535Y-72164798D01*
X120391654Y-72356247D01*
X120583103Y-72513365D01*
X120801525Y-72630114D01*
X121038527Y-72702007D01*
X121285000Y-72726283D01*
X121531474Y-72702007D01*
X121768476Y-72630114D01*
X121986898Y-72513365D01*
X122178347Y-72356247D01*
X122335465Y-72164798D01*
X122452214Y-71946376D01*
X122524107Y-71709373D01*
X122542300Y-71524660D01*
X122542300Y-70715340D01*
X122567700Y-70715340D01*
X122567700Y-71524661D01*
X122585893Y-71709374D01*
X122657786Y-71946376D01*
X122774535Y-72164798D01*
X122931654Y-72356247D01*
X123123103Y-72513365D01*
X123341525Y-72630114D01*
X123578527Y-72702007D01*
X123825000Y-72726283D01*
X124071474Y-72702007D01*
X124308476Y-72630114D01*
X124526898Y-72513365D01*
X124718347Y-72356247D01*
X124875465Y-72164798D01*
X124992214Y-71946376D01*
X125064107Y-71709373D01*
X125082300Y-71524660D01*
X125082300Y-70715340D01*
X125107700Y-70715340D01*
X125107700Y-71524661D01*
X125125893Y-71709374D01*
X125197786Y-71946376D01*
X125314535Y-72164798D01*
X125471654Y-72356247D01*
X125663103Y-72513365D01*
X125881525Y-72630114D01*
X126118527Y-72702007D01*
X126365000Y-72726283D01*
X126611474Y-72702007D01*
X126848476Y-72630114D01*
X127066898Y-72513365D01*
X127258347Y-72356247D01*
X127415465Y-72164798D01*
X127532214Y-71946376D01*
X127604107Y-71709373D01*
X127622300Y-71524660D01*
X127622300Y-70715339D01*
X127604107Y-70530626D01*
X127532214Y-70293624D01*
X127415465Y-70075202D01*
X127258347Y-69883753D01*
X127066897Y-69726635D01*
X126848475Y-69609886D01*
X126611473Y-69537993D01*
X126365000Y-69513717D01*
X126118526Y-69537993D01*
X125881524Y-69609886D01*
X125663102Y-69726635D01*
X125471653Y-69883753D01*
X125314535Y-70075203D01*
X125197786Y-70293625D01*
X125125893Y-70530627D01*
X125107700Y-70715340D01*
X125082300Y-70715340D01*
X125082300Y-70715339D01*
X125064107Y-70530626D01*
X124992214Y-70293624D01*
X124875465Y-70075202D01*
X124718347Y-69883753D01*
X124526897Y-69726635D01*
X124308475Y-69609886D01*
X124071473Y-69537993D01*
X123825000Y-69513717D01*
X123578526Y-69537993D01*
X123341524Y-69609886D01*
X123123102Y-69726635D01*
X122931653Y-69883753D01*
X122774535Y-70075203D01*
X122657786Y-70293625D01*
X122585893Y-70530627D01*
X122567700Y-70715340D01*
X122542300Y-70715340D01*
X122542300Y-70715339D01*
X122524107Y-70530626D01*
X122452214Y-70293624D01*
X122335465Y-70075202D01*
X122178347Y-69883753D01*
X121986897Y-69726635D01*
X121768475Y-69609886D01*
X121531473Y-69537993D01*
X121285000Y-69513717D01*
X121038526Y-69537993D01*
X120801524Y-69609886D01*
X120583102Y-69726635D01*
X120391653Y-69883753D01*
X120234535Y-70075203D01*
X120117786Y-70293625D01*
X120045893Y-70530627D01*
X120027700Y-70715340D01*
X120002300Y-70715340D01*
X120002300Y-70715339D01*
X119984107Y-70530626D01*
X119912214Y-70293624D01*
X119795465Y-70075202D01*
X119638347Y-69883753D01*
X119446897Y-69726635D01*
X119228475Y-69609886D01*
X118991473Y-69537993D01*
X118745000Y-69513717D01*
X118498526Y-69537993D01*
X118261524Y-69609886D01*
X118043102Y-69726635D01*
X117851653Y-69883753D01*
X117694535Y-70075203D01*
X117577786Y-70293625D01*
X117505893Y-70530627D01*
X117487700Y-70715340D01*
X117462300Y-70715340D01*
X117462300Y-70715339D01*
X117444107Y-70530626D01*
X117372214Y-70293624D01*
X117255465Y-70075202D01*
X117098347Y-69883753D01*
X116906897Y-69726635D01*
X116688475Y-69609886D01*
X116451473Y-69537993D01*
X116205000Y-69513717D01*
X115958526Y-69537993D01*
X115721524Y-69609886D01*
X115503102Y-69726635D01*
X115311653Y-69883753D01*
X115154535Y-70075203D01*
X115037786Y-70293625D01*
X114965893Y-70530627D01*
X114947700Y-70715340D01*
X114922300Y-70715340D01*
X114922300Y-70715339D01*
X114904107Y-70530626D01*
X114832214Y-70293624D01*
X114715465Y-70075202D01*
X114558347Y-69883753D01*
X114366897Y-69726635D01*
X114148475Y-69609886D01*
X113911473Y-69537993D01*
X113665000Y-69513717D01*
X113418526Y-69537993D01*
X113181524Y-69609886D01*
X112963102Y-69726635D01*
X112771653Y-69883753D01*
X112614535Y-70075203D01*
X112497786Y-70293625D01*
X112425893Y-70530627D01*
X112407700Y-70715340D01*
X112382300Y-70715340D01*
X112382300Y-70715339D01*
X112364107Y-70530626D01*
X112292214Y-70293624D01*
X112175465Y-70075202D01*
X112018347Y-69883753D01*
X111826897Y-69726635D01*
X111608475Y-69609886D01*
X111371473Y-69537993D01*
X111125000Y-69513717D01*
X110878526Y-69537993D01*
X110641524Y-69609886D01*
X110423102Y-69726635D01*
X110231653Y-69883753D01*
X110074535Y-70075203D01*
X109957786Y-70293625D01*
X109885893Y-70530627D01*
X109867700Y-70715340D01*
X109842300Y-70715340D01*
X109842300Y-70715339D01*
X109824107Y-70530626D01*
X109752214Y-70293624D01*
X109635465Y-70075202D01*
X109478347Y-69883753D01*
X109286897Y-69726635D01*
X109068475Y-69609886D01*
X108831473Y-69537993D01*
X108585000Y-69513717D01*
X108338526Y-69537993D01*
X108101524Y-69609886D01*
X107883102Y-69726635D01*
X107691653Y-69883753D01*
X107534535Y-70075203D01*
X107417786Y-70293625D01*
X107345893Y-70530627D01*
X107327700Y-70715340D01*
X107302300Y-70715340D01*
X107302300Y-70715339D01*
X107284107Y-70530626D01*
X107212214Y-70293624D01*
X107095465Y-70075202D01*
X106938347Y-69883753D01*
X106746897Y-69726635D01*
X106528475Y-69609886D01*
X106291473Y-69537993D01*
X106045000Y-69513717D01*
X105798526Y-69537993D01*
X105561524Y-69609886D01*
X105343102Y-69726635D01*
X105151653Y-69883753D01*
X104994535Y-70075203D01*
X104877786Y-70293625D01*
X104805893Y-70530627D01*
X104787700Y-70715340D01*
X104762300Y-70715340D01*
X104762300Y-70715339D01*
X104744107Y-70530626D01*
X104672214Y-70293624D01*
X104555465Y-70075202D01*
X104398347Y-69883753D01*
X104206897Y-69726635D01*
X103988475Y-69609886D01*
X103751473Y-69537993D01*
X103505000Y-69513717D01*
X103258526Y-69537993D01*
X103021524Y-69609886D01*
X102803102Y-69726635D01*
X102611653Y-69883753D01*
X102454535Y-70075203D01*
X102337786Y-70293625D01*
X102265893Y-70530627D01*
X102247700Y-70715340D01*
X102247700Y-71524661D01*
X102265893Y-71709374D01*
X102337786Y-71946376D01*
X102454535Y-72164798D01*
X102611654Y-72356247D01*
X102768401Y-72484886D01*
X102768400Y-78297417D01*
X102764836Y-78333600D01*
X102768400Y-78369783D01*
X102768400Y-78369785D01*
X102779058Y-78477998D01*
X102821178Y-78616848D01*
X102889576Y-78744812D01*
X102981625Y-78856974D01*
X103009732Y-78880041D01*
X109058568Y-84928878D01*
X109035663Y-84941121D01*
X108985384Y-84982384D01*
X108944121Y-85032663D01*
X108913460Y-85090027D01*
X108894578Y-85152270D01*
X108888203Y-85217000D01*
X108888203Y-87772793D01*
X101701600Y-80586191D01*
X101701600Y-72484886D01*
X101858347Y-72356247D01*
X102015465Y-72164798D01*
X102132214Y-71946376D01*
X102204107Y-71709373D01*
X102222300Y-71524660D01*
X102222300Y-70715339D01*
X102204107Y-70530626D01*
X102132214Y-70293624D01*
X102015465Y-70075202D01*
X101858347Y-69883753D01*
X101666897Y-69726635D01*
X101448475Y-69609886D01*
X101211473Y-69537993D01*
X100965000Y-69513717D01*
X100718526Y-69537993D01*
X100481524Y-69609886D01*
X100263102Y-69726635D01*
X100071653Y-69883753D01*
X99914535Y-70075203D01*
X99797786Y-70293625D01*
X99725893Y-70530627D01*
X99707700Y-70715340D01*
X99707700Y-71524661D01*
X99725893Y-71709374D01*
X99797786Y-71946376D01*
X99914535Y-72164798D01*
X100071654Y-72356247D01*
X100228400Y-72484885D01*
X100228401Y-80855107D01*
X100224836Y-80891300D01*
X100237792Y-81022832D01*
X100239059Y-81035699D01*
X100281179Y-81174549D01*
X100349577Y-81302513D01*
X100441626Y-81414675D01*
X100469732Y-81437741D01*
X108446259Y-89414269D01*
X108469325Y-89442375D01*
X108581487Y-89534424D01*
X108709451Y-89602822D01*
X108848301Y-89644942D01*
X108956514Y-89655600D01*
X108956523Y-89655600D01*
X108992699Y-89659163D01*
X109028875Y-89655600D01*
X110790417Y-89655600D01*
X110826600Y-89659164D01*
X110862783Y-89655600D01*
X110862786Y-89655600D01*
X110970999Y-89644942D01*
X111109849Y-89602822D01*
X111237813Y-89534424D01*
X111349975Y-89442375D01*
X111373045Y-89414264D01*
X111377157Y-89410152D01*
X111377157Y-92456300D01*
X102349265Y-92456300D01*
X102310600Y-92452492D01*
X102271935Y-92456300D01*
X102271927Y-92456300D01*
X102156243Y-92467694D01*
X102007817Y-92512718D01*
X101871028Y-92585834D01*
X101781170Y-92659578D01*
X101781167Y-92659581D01*
X101751131Y-92684231D01*
X101726481Y-92714267D01*
X90275573Y-104165177D01*
X90245532Y-104189831D01*
X90220879Y-104219871D01*
X90147135Y-104309728D01*
X90074018Y-104446518D01*
X90028995Y-104594943D01*
X90013792Y-104749300D01*
X90017601Y-104787973D01*
X90017601Y-105291087D01*
X89875558Y-105407658D01*
X89712092Y-105606843D01*
X89590626Y-105834091D01*
X89515827Y-106080669D01*
X89509477Y-106145145D01*
X89504107Y-106090626D01*
X89432214Y-105853624D01*
X89315465Y-105635202D01*
X89158347Y-105443753D01*
X88966897Y-105286635D01*
X88748475Y-105169886D01*
X88511473Y-105097993D01*
X88265000Y-105073717D01*
X88018526Y-105097993D01*
X87781524Y-105169886D01*
X87563102Y-105286635D01*
X87371653Y-105443753D01*
X87214535Y-105635203D01*
X87097786Y-105853625D01*
X87025893Y-106090627D01*
X87007700Y-106275340D01*
X86169500Y-106275340D01*
X86169500Y-101392360D01*
X87426800Y-101392360D01*
X87426800Y-101807640D01*
X87507817Y-102214939D01*
X87666737Y-102598607D01*
X87897454Y-102943899D01*
X88191101Y-103237546D01*
X88536393Y-103468263D01*
X88920061Y-103627183D01*
X89327360Y-103708200D01*
X89742640Y-103708200D01*
X90149939Y-103627183D01*
X90533607Y-103468263D01*
X90878899Y-103237546D01*
X91172546Y-102943899D01*
X91403263Y-102598607D01*
X91562183Y-102214939D01*
X91643200Y-101807640D01*
X91643200Y-101392360D01*
X91562183Y-100985061D01*
X91403263Y-100601393D01*
X91172546Y-100256101D01*
X90878899Y-99962454D01*
X90533607Y-99731737D01*
X90149939Y-99572817D01*
X89742640Y-99491800D01*
X89327360Y-99491800D01*
X88920061Y-99572817D01*
X88536393Y-99731737D01*
X88191101Y-99962454D01*
X87897454Y-100256101D01*
X87666737Y-100601393D01*
X87507817Y-100985061D01*
X87426800Y-101392360D01*
X86169500Y-101392360D01*
X86169500Y-75992360D01*
X87426800Y-75992360D01*
X87426800Y-76407640D01*
X87507817Y-76814939D01*
X87666737Y-77198607D01*
X87897454Y-77543899D01*
X88191101Y-77837546D01*
X88536393Y-78068263D01*
X88920061Y-78227183D01*
X89327360Y-78308200D01*
X89742640Y-78308200D01*
X90149939Y-78227183D01*
X90533607Y-78068263D01*
X90878899Y-77837546D01*
X91172546Y-77543899D01*
X91403263Y-77198607D01*
X91562183Y-76814939D01*
X91643200Y-76407640D01*
X91643200Y-75992360D01*
X91562183Y-75585061D01*
X91403263Y-75201393D01*
X91172546Y-74856101D01*
X90878899Y-74562454D01*
X90533607Y-74331737D01*
X90149939Y-74172817D01*
X89742640Y-74091800D01*
X89327360Y-74091800D01*
X88920061Y-74172817D01*
X88536393Y-74331737D01*
X88191101Y-74562454D01*
X87897454Y-74856101D01*
X87666737Y-75201393D01*
X87507817Y-75585061D01*
X87426800Y-75992360D01*
X86169500Y-75992360D01*
X86169500Y-69850000D01*
X87006103Y-69850000D01*
X87006103Y-72390000D01*
X87012478Y-72454730D01*
X87031360Y-72516973D01*
X87062021Y-72574337D01*
X87103284Y-72624616D01*
X87153563Y-72665879D01*
X87210927Y-72696540D01*
X87273170Y-72715422D01*
X87337900Y-72721797D01*
X89192100Y-72721797D01*
X89256830Y-72715422D01*
X89319073Y-72696540D01*
X89376437Y-72665879D01*
X89426716Y-72624616D01*
X89467979Y-72574337D01*
X89498640Y-72516973D01*
X89517522Y-72454730D01*
X89523897Y-72390000D01*
X89523897Y-72354303D01*
X89576719Y-72436352D01*
X89790231Y-72657273D01*
X90042740Y-72832295D01*
X90324542Y-72954692D01*
X90436006Y-72980793D01*
X90678000Y-72860492D01*
X90678000Y-71247000D01*
X90658000Y-71247000D01*
X90658000Y-70993000D01*
X90678000Y-70993000D01*
X90678000Y-69379508D01*
X90932000Y-69379508D01*
X90932000Y-70993000D01*
X90952000Y-70993000D01*
X90952000Y-71247000D01*
X90932000Y-71247000D01*
X90932000Y-72860492D01*
X91173994Y-72980793D01*
X91285458Y-72954692D01*
X91567260Y-72832295D01*
X91819769Y-72657273D01*
X92033281Y-72436352D01*
X92199591Y-72178022D01*
X92242902Y-72068200D01*
X92294535Y-72164798D01*
X92451654Y-72356247D01*
X92643103Y-72513365D01*
X92861525Y-72630114D01*
X93098527Y-72702007D01*
X93345000Y-72726283D01*
X93591474Y-72702007D01*
X93828476Y-72630114D01*
X94046898Y-72513365D01*
X94238347Y-72356247D01*
X94395465Y-72164798D01*
X94512214Y-71946376D01*
X94584107Y-71709373D01*
X94602300Y-71524660D01*
X94602300Y-70715340D01*
X94627700Y-70715340D01*
X94627700Y-71524661D01*
X94645893Y-71709374D01*
X94717786Y-71946376D01*
X94834535Y-72164798D01*
X94991654Y-72356247D01*
X95183103Y-72513365D01*
X95401525Y-72630114D01*
X95638527Y-72702007D01*
X95885000Y-72726283D01*
X96131474Y-72702007D01*
X96368476Y-72630114D01*
X96586898Y-72513365D01*
X96778347Y-72356247D01*
X96935465Y-72164798D01*
X97052214Y-71946376D01*
X97124107Y-71709373D01*
X97142300Y-71524660D01*
X97142300Y-70715340D01*
X97167700Y-70715340D01*
X97167700Y-71524661D01*
X97185893Y-71709374D01*
X97257786Y-71946376D01*
X97374535Y-72164798D01*
X97531654Y-72356247D01*
X97723103Y-72513365D01*
X97941525Y-72630114D01*
X98178527Y-72702007D01*
X98425000Y-72726283D01*
X98671474Y-72702007D01*
X98908476Y-72630114D01*
X99126898Y-72513365D01*
X99318347Y-72356247D01*
X99475465Y-72164798D01*
X99592214Y-71946376D01*
X99664107Y-71709373D01*
X99682300Y-71524660D01*
X99682300Y-70715339D01*
X99664107Y-70530626D01*
X99592214Y-70293624D01*
X99475465Y-70075202D01*
X99318347Y-69883753D01*
X99126897Y-69726635D01*
X98908475Y-69609886D01*
X98671473Y-69537993D01*
X98425000Y-69513717D01*
X98178526Y-69537993D01*
X97941524Y-69609886D01*
X97723102Y-69726635D01*
X97531653Y-69883753D01*
X97374535Y-70075203D01*
X97257786Y-70293625D01*
X97185893Y-70530627D01*
X97167700Y-70715340D01*
X97142300Y-70715340D01*
X97142300Y-70715339D01*
X97124107Y-70530626D01*
X97052214Y-70293624D01*
X96935465Y-70075202D01*
X96778347Y-69883753D01*
X96586897Y-69726635D01*
X96368475Y-69609886D01*
X96131473Y-69537993D01*
X95885000Y-69513717D01*
X95638526Y-69537993D01*
X95401524Y-69609886D01*
X95183102Y-69726635D01*
X94991653Y-69883753D01*
X94834535Y-70075203D01*
X94717786Y-70293625D01*
X94645893Y-70530627D01*
X94627700Y-70715340D01*
X94602300Y-70715340D01*
X94602300Y-70715339D01*
X94584107Y-70530626D01*
X94512214Y-70293624D01*
X94395465Y-70075202D01*
X94238347Y-69883753D01*
X94046897Y-69726635D01*
X93828475Y-69609886D01*
X93591473Y-69537993D01*
X93345000Y-69513717D01*
X93098526Y-69537993D01*
X92861524Y-69609886D01*
X92643102Y-69726635D01*
X92451653Y-69883753D01*
X92294535Y-70075203D01*
X92242902Y-70171801D01*
X92199591Y-70061978D01*
X92033281Y-69803648D01*
X91819769Y-69582727D01*
X91567260Y-69407705D01*
X91285458Y-69285308D01*
X91173994Y-69259207D01*
X90932000Y-69379508D01*
X90678000Y-69379508D01*
X90436006Y-69259207D01*
X90324542Y-69285308D01*
X90042740Y-69407705D01*
X89790231Y-69582727D01*
X89576719Y-69803648D01*
X89523897Y-69885697D01*
X89523897Y-69850000D01*
X89517522Y-69785270D01*
X89498640Y-69723027D01*
X89467979Y-69665663D01*
X89426716Y-69615384D01*
X89376437Y-69574121D01*
X89319073Y-69543460D01*
X89256830Y-69524578D01*
X89192100Y-69518203D01*
X87337900Y-69518203D01*
X87273170Y-69524578D01*
X87210927Y-69543460D01*
X87153563Y-69574121D01*
X87103284Y-69615384D01*
X87062021Y-69665663D01*
X87031360Y-69723027D01*
X87012478Y-69785270D01*
X87006103Y-69850000D01*
X86169500Y-69850000D01*
X86169500Y-69024500D01*
X129903513Y-69024500D01*
X129560061Y-69092817D01*
%TA.AperFunction,Conductor*%
D19*
G36*
X129560061Y-69092817D02*
G01*
X129176393Y-69251737D01*
X128831101Y-69482454D01*
X128537454Y-69776101D01*
X128306737Y-70121393D01*
X128147817Y-70505061D01*
X128066800Y-70912360D01*
X128066800Y-71327640D01*
X128147817Y-71734939D01*
X128306737Y-72118607D01*
X128537454Y-72463899D01*
X128831101Y-72757546D01*
X129176393Y-72988263D01*
X129560061Y-73147183D01*
X129967360Y-73228200D01*
X130382640Y-73228200D01*
X130789939Y-73147183D01*
X131173607Y-72988263D01*
X131518899Y-72757546D01*
X131812546Y-72463899D01*
X132043263Y-72118607D01*
X132202183Y-71734939D01*
X132283200Y-71327640D01*
X132283200Y-70912360D01*
X132202183Y-70505061D01*
X132043263Y-70121393D01*
X131812546Y-69776101D01*
X131518899Y-69482454D01*
X131173607Y-69251737D01*
X130789939Y-69092817D01*
X130446487Y-69024500D01*
X155130501Y-69024500D01*
X155130500Y-108775500D01*
X130446487Y-108775500D01*
X130789939Y-108707183D01*
X131173607Y-108548263D01*
X131518899Y-108317546D01*
X131812546Y-108023899D01*
X132043263Y-107678607D01*
X132202183Y-107294939D01*
X132283200Y-106887640D01*
X132283200Y-106472360D01*
X132202183Y-106065061D01*
X132043263Y-105681393D01*
X131812546Y-105336101D01*
X131518899Y-105042454D01*
X131173607Y-104811737D01*
X130789939Y-104652817D01*
X130382640Y-104571800D01*
X129967360Y-104571800D01*
X129560061Y-104652817D01*
X129176393Y-104811737D01*
X128831101Y-105042454D01*
X128537454Y-105336101D01*
X128306737Y-105681393D01*
X128147817Y-106065061D01*
X128066800Y-106472360D01*
X128066800Y-106887640D01*
X128147817Y-107294939D01*
X128306737Y-107678607D01*
X128537454Y-108023899D01*
X128831101Y-108317546D01*
X129176393Y-108548263D01*
X129560061Y-108707183D01*
X129903513Y-108775500D01*
X86169500Y-108775500D01*
X86169500Y-106275340D01*
X87007700Y-106275340D01*
X87007700Y-107084661D01*
X87025893Y-107269374D01*
X87097786Y-107506376D01*
X87214535Y-107724798D01*
X87371654Y-107916247D01*
X87563103Y-108073365D01*
X87781525Y-108190114D01*
X88018527Y-108262007D01*
X88265000Y-108286283D01*
X88511474Y-108262007D01*
X88748476Y-108190114D01*
X88966898Y-108073365D01*
X89158347Y-107916247D01*
X89315465Y-107724798D01*
X89432214Y-107506376D01*
X89504107Y-107269373D01*
X89509477Y-107214855D01*
X89515827Y-107279332D01*
X89590626Y-107525910D01*
X89712092Y-107753158D01*
X89875559Y-107952342D01*
X90074743Y-108115808D01*
X90301991Y-108237274D01*
X90548569Y-108312073D01*
X90805000Y-108337329D01*
X91061432Y-108312073D01*
X91308010Y-108237274D01*
X91535258Y-108115808D01*
X91734442Y-107952342D01*
X91897908Y-107753158D01*
X92019374Y-107525910D01*
X92094173Y-107279331D01*
X92100523Y-107214855D01*
X92105893Y-107269374D01*
X92177786Y-107506376D01*
X92294535Y-107724798D01*
X92451654Y-107916247D01*
X92643103Y-108073365D01*
X92861525Y-108190114D01*
X93098527Y-108262007D01*
X93345000Y-108286283D01*
X93591474Y-108262007D01*
X93828476Y-108190114D01*
X94046898Y-108073365D01*
X94238347Y-107916247D01*
X94395465Y-107724798D01*
X94512214Y-107506376D01*
X94584107Y-107269373D01*
X94602300Y-107084660D01*
X94602300Y-106275340D01*
X94627700Y-106275340D01*
X94627700Y-107084661D01*
X94645893Y-107269374D01*
X94717786Y-107506376D01*
X94834535Y-107724798D01*
X94991654Y-107916247D01*
X95183103Y-108073365D01*
X95401525Y-108190114D01*
X95638527Y-108262007D01*
X95885000Y-108286283D01*
X96131474Y-108262007D01*
X96368476Y-108190114D01*
X96586898Y-108073365D01*
X96778347Y-107916247D01*
X96935465Y-107724798D01*
X97052214Y-107506376D01*
X97124107Y-107269373D01*
X97142300Y-107084660D01*
X97142300Y-106275340D01*
X97167700Y-106275340D01*
X97167700Y-107084661D01*
X97185893Y-107269374D01*
X97257786Y-107506376D01*
X97374535Y-107724798D01*
X97531654Y-107916247D01*
X97723103Y-108073365D01*
X97941525Y-108190114D01*
X98178527Y-108262007D01*
X98425000Y-108286283D01*
X98671474Y-108262007D01*
X98908476Y-108190114D01*
X99126898Y-108073365D01*
X99318347Y-107916247D01*
X99475465Y-107724798D01*
X99592214Y-107506376D01*
X99664107Y-107269373D01*
X99682300Y-107084660D01*
X99682300Y-106275340D01*
X99707700Y-106275340D01*
X99707700Y-107084661D01*
X99725893Y-107269374D01*
X99797786Y-107506376D01*
X99914535Y-107724798D01*
X100071654Y-107916247D01*
X100263103Y-108073365D01*
X100481525Y-108190114D01*
X100718527Y-108262007D01*
X100965000Y-108286283D01*
X101211474Y-108262007D01*
X101448476Y-108190114D01*
X101666898Y-108073365D01*
X101858347Y-107916247D01*
X102015465Y-107724798D01*
X102132214Y-107506376D01*
X102204107Y-107269373D01*
X102222300Y-107084660D01*
X102222300Y-106275340D01*
X102247700Y-106275340D01*
X102247700Y-107084661D01*
X102265893Y-107269374D01*
X102337786Y-107506376D01*
X102454535Y-107724798D01*
X102611654Y-107916247D01*
X102803103Y-108073365D01*
X103021525Y-108190114D01*
X103258527Y-108262007D01*
X103505000Y-108286283D01*
X103751474Y-108262007D01*
X103988476Y-108190114D01*
X104206898Y-108073365D01*
X104398347Y-107916247D01*
X104555465Y-107724798D01*
X104672214Y-107506376D01*
X104744107Y-107269373D01*
X104762300Y-107084660D01*
X104762300Y-106275340D01*
X104787700Y-106275340D01*
X104787700Y-107084661D01*
X104805893Y-107269374D01*
X104877786Y-107506376D01*
X104994535Y-107724798D01*
X105151654Y-107916247D01*
X105343103Y-108073365D01*
X105561525Y-108190114D01*
X105798527Y-108262007D01*
X106045000Y-108286283D01*
X106291474Y-108262007D01*
X106528476Y-108190114D01*
X106746898Y-108073365D01*
X106938347Y-107916247D01*
X107095465Y-107724798D01*
X107212214Y-107506376D01*
X107284107Y-107269373D01*
X107302300Y-107084660D01*
X107302300Y-106275340D01*
X107327700Y-106275340D01*
X107327700Y-107084661D01*
X107345893Y-107269374D01*
X107417786Y-107506376D01*
X107534535Y-107724798D01*
X107691654Y-107916247D01*
X107883103Y-108073365D01*
X108101525Y-108190114D01*
X108338527Y-108262007D01*
X108585000Y-108286283D01*
X108831474Y-108262007D01*
X109068476Y-108190114D01*
X109286898Y-108073365D01*
X109478347Y-107916247D01*
X109635465Y-107724798D01*
X109752214Y-107506376D01*
X109824107Y-107269373D01*
X109842300Y-107084660D01*
X109842300Y-106275340D01*
X109867700Y-106275340D01*
X109867700Y-107084661D01*
X109885893Y-107269374D01*
X109957786Y-107506376D01*
X110074535Y-107724798D01*
X110231654Y-107916247D01*
X110423103Y-108073365D01*
X110641525Y-108190114D01*
X110878527Y-108262007D01*
X111125000Y-108286283D01*
X111371474Y-108262007D01*
X111608476Y-108190114D01*
X111826898Y-108073365D01*
X112018347Y-107916247D01*
X112175465Y-107724798D01*
X112292214Y-107506376D01*
X112364107Y-107269373D01*
X112382300Y-107084660D01*
X112382300Y-106275340D01*
X112407700Y-106275340D01*
X112407700Y-107084661D01*
X112425893Y-107269374D01*
X112497786Y-107506376D01*
X112614535Y-107724798D01*
X112771654Y-107916247D01*
X112963103Y-108073365D01*
X113181525Y-108190114D01*
X113418527Y-108262007D01*
X113665000Y-108286283D01*
X113911474Y-108262007D01*
X114148476Y-108190114D01*
X114366898Y-108073365D01*
X114558347Y-107916247D01*
X114715465Y-107724798D01*
X114832214Y-107506376D01*
X114904107Y-107269373D01*
X114922300Y-107084660D01*
X114922300Y-106275340D01*
X114947700Y-106275340D01*
X114947700Y-107084661D01*
X114965893Y-107269374D01*
X115037786Y-107506376D01*
X115154535Y-107724798D01*
X115311654Y-107916247D01*
X115503103Y-108073365D01*
X115721525Y-108190114D01*
X115958527Y-108262007D01*
X116205000Y-108286283D01*
X116451474Y-108262007D01*
X116688476Y-108190114D01*
X116906898Y-108073365D01*
X117098347Y-107916247D01*
X117255465Y-107724798D01*
X117372214Y-107506376D01*
X117444107Y-107269373D01*
X117462300Y-107084660D01*
X117462300Y-106275340D01*
X117487700Y-106275340D01*
X117487700Y-107084661D01*
X117505893Y-107269374D01*
X117577786Y-107506376D01*
X117694535Y-107724798D01*
X117851654Y-107916247D01*
X118043103Y-108073365D01*
X118261525Y-108190114D01*
X118498527Y-108262007D01*
X118745000Y-108286283D01*
X118991474Y-108262007D01*
X119228476Y-108190114D01*
X119446898Y-108073365D01*
X119638347Y-107916247D01*
X119795465Y-107724798D01*
X119912214Y-107506376D01*
X119984107Y-107269373D01*
X120002300Y-107084660D01*
X120002300Y-106275340D01*
X120027700Y-106275340D01*
X120027700Y-107084661D01*
X120045893Y-107269374D01*
X120117786Y-107506376D01*
X120234535Y-107724798D01*
X120391654Y-107916247D01*
X120583103Y-108073365D01*
X120801525Y-108190114D01*
X121038527Y-108262007D01*
X121285000Y-108286283D01*
X121531474Y-108262007D01*
X121768476Y-108190114D01*
X121986898Y-108073365D01*
X122178347Y-107916247D01*
X122335465Y-107724798D01*
X122452214Y-107506376D01*
X122524107Y-107269373D01*
X122542300Y-107084660D01*
X122542300Y-106275340D01*
X122567700Y-106275340D01*
X122567700Y-107084661D01*
X122585893Y-107269374D01*
X122657786Y-107506376D01*
X122774535Y-107724798D01*
X122931654Y-107916247D01*
X123123103Y-108073365D01*
X123341525Y-108190114D01*
X123578527Y-108262007D01*
X123825000Y-108286283D01*
X124071474Y-108262007D01*
X124308476Y-108190114D01*
X124526898Y-108073365D01*
X124718347Y-107916247D01*
X124875465Y-107724798D01*
X124992214Y-107506376D01*
X125064107Y-107269373D01*
X125082300Y-107084660D01*
X125082300Y-106275340D01*
X125107700Y-106275340D01*
X125107700Y-107084661D01*
X125125893Y-107269374D01*
X125197786Y-107506376D01*
X125314535Y-107724798D01*
X125471654Y-107916247D01*
X125663103Y-108073365D01*
X125881525Y-108190114D01*
X126118527Y-108262007D01*
X126365000Y-108286283D01*
X126611474Y-108262007D01*
X126848476Y-108190114D01*
X127066898Y-108073365D01*
X127258347Y-107916247D01*
X127415465Y-107724798D01*
X127532214Y-107506376D01*
X127604107Y-107269373D01*
X127622300Y-107084660D01*
X127622300Y-106275339D01*
X127604107Y-106090626D01*
X127532214Y-105853624D01*
X127415465Y-105635202D01*
X127258347Y-105443753D01*
X127066897Y-105286635D01*
X126848475Y-105169886D01*
X126611473Y-105097993D01*
X126365000Y-105073717D01*
X126118526Y-105097993D01*
X125881524Y-105169886D01*
X125663102Y-105286635D01*
X125471653Y-105443753D01*
X125314535Y-105635203D01*
X125197786Y-105853625D01*
X125125893Y-106090627D01*
X125107700Y-106275340D01*
X125082300Y-106275340D01*
X125082300Y-106275339D01*
X125064107Y-106090626D01*
X124992214Y-105853624D01*
X124875465Y-105635202D01*
X124718347Y-105443753D01*
X124526897Y-105286635D01*
X124308475Y-105169886D01*
X124071473Y-105097993D01*
X123825000Y-105073717D01*
X123578526Y-105097993D01*
X123341524Y-105169886D01*
X123123102Y-105286635D01*
X122931653Y-105443753D01*
X122774535Y-105635203D01*
X122657786Y-105853625D01*
X122585893Y-106090627D01*
X122567700Y-106275340D01*
X122542300Y-106275340D01*
X122542300Y-106275339D01*
X122524107Y-106090626D01*
X122452214Y-105853624D01*
X122335465Y-105635202D01*
X122178347Y-105443753D01*
X121986897Y-105286635D01*
X121768475Y-105169886D01*
X121531473Y-105097993D01*
X121285000Y-105073717D01*
X121038526Y-105097993D01*
X120801524Y-105169886D01*
X120583102Y-105286635D01*
X120391653Y-105443753D01*
X120234535Y-105635203D01*
X120117786Y-105853625D01*
X120045893Y-106090627D01*
X120027700Y-106275340D01*
X120002300Y-106275340D01*
X120002300Y-106275339D01*
X119984107Y-106090626D01*
X119912214Y-105853624D01*
X119795465Y-105635202D01*
X119638347Y-105443753D01*
X119446897Y-105286635D01*
X119228475Y-105169886D01*
X118991473Y-105097993D01*
X118745000Y-105073717D01*
X118498526Y-105097993D01*
X118261524Y-105169886D01*
X118043102Y-105286635D01*
X117851653Y-105443753D01*
X117694535Y-105635203D01*
X117577786Y-105853625D01*
X117505893Y-106090627D01*
X117487700Y-106275340D01*
X117462300Y-106275340D01*
X117462300Y-106275339D01*
X117444107Y-106090626D01*
X117372214Y-105853624D01*
X117255465Y-105635202D01*
X117098347Y-105443753D01*
X116906897Y-105286635D01*
X116688475Y-105169886D01*
X116451473Y-105097993D01*
X116205000Y-105073717D01*
X115958526Y-105097993D01*
X115721524Y-105169886D01*
X115503102Y-105286635D01*
X115311653Y-105443753D01*
X115154535Y-105635203D01*
X115037786Y-105853625D01*
X114965893Y-106090627D01*
X114947700Y-106275340D01*
X114922300Y-106275340D01*
X114922300Y-106275339D01*
X114904107Y-106090626D01*
X114832214Y-105853624D01*
X114715465Y-105635202D01*
X114558347Y-105443753D01*
X114366897Y-105286635D01*
X114148475Y-105169886D01*
X113911473Y-105097993D01*
X113665000Y-105073717D01*
X113418526Y-105097993D01*
X113181524Y-105169886D01*
X112963102Y-105286635D01*
X112771653Y-105443753D01*
X112614535Y-105635203D01*
X112497786Y-105853625D01*
X112425893Y-106090627D01*
X112407700Y-106275340D01*
X112382300Y-106275340D01*
X112382300Y-106275339D01*
X112364107Y-106090626D01*
X112292214Y-105853624D01*
X112175465Y-105635202D01*
X112018347Y-105443753D01*
X111826897Y-105286635D01*
X111608475Y-105169886D01*
X111371473Y-105097993D01*
X111125000Y-105073717D01*
X110878526Y-105097993D01*
X110641524Y-105169886D01*
X110423102Y-105286635D01*
X110231653Y-105443753D01*
X110074535Y-105635203D01*
X109957786Y-105853625D01*
X109885893Y-106090627D01*
X109867700Y-106275340D01*
X109842300Y-106275340D01*
X109842300Y-106275339D01*
X109824107Y-106090626D01*
X109752214Y-105853624D01*
X109635465Y-105635202D01*
X109478347Y-105443753D01*
X109286897Y-105286635D01*
X109068475Y-105169886D01*
X108831473Y-105097993D01*
X108585000Y-105073717D01*
X108338526Y-105097993D01*
X108101524Y-105169886D01*
X107883102Y-105286635D01*
X107691653Y-105443753D01*
X107534535Y-105635203D01*
X107417786Y-105853625D01*
X107345893Y-106090627D01*
X107327700Y-106275340D01*
X107302300Y-106275340D01*
X107302300Y-106275339D01*
X107284107Y-106090626D01*
X107212214Y-105853624D01*
X107095465Y-105635202D01*
X106938347Y-105443753D01*
X106746897Y-105286635D01*
X106528475Y-105169886D01*
X106291473Y-105097993D01*
X106045000Y-105073717D01*
X105798526Y-105097993D01*
X105561524Y-105169886D01*
X105343102Y-105286635D01*
X105151653Y-105443753D01*
X104994535Y-105635203D01*
X104877786Y-105853625D01*
X104805893Y-106090627D01*
X104787700Y-106275340D01*
X104762300Y-106275340D01*
X104762300Y-106275339D01*
X104744107Y-106090626D01*
X104672214Y-105853624D01*
X104555465Y-105635202D01*
X104398347Y-105443753D01*
X104206897Y-105286635D01*
X103988475Y-105169886D01*
X103751473Y-105097993D01*
X103505000Y-105073717D01*
X103258526Y-105097993D01*
X103021524Y-105169886D01*
X102803102Y-105286635D01*
X102611653Y-105443753D01*
X102454535Y-105635203D01*
X102337786Y-105853625D01*
X102265893Y-106090627D01*
X102247700Y-106275340D01*
X102222300Y-106275340D01*
X102222300Y-106275339D01*
X102204107Y-106090626D01*
X102132214Y-105853624D01*
X102015465Y-105635202D01*
X101858347Y-105443753D01*
X101666897Y-105286635D01*
X101448475Y-105169886D01*
X101211473Y-105097993D01*
X100965000Y-105073717D01*
X100718526Y-105097993D01*
X100481524Y-105169886D01*
X100263102Y-105286635D01*
X100071653Y-105443753D01*
X99914535Y-105635203D01*
X99797786Y-105853625D01*
X99725893Y-106090627D01*
X99707700Y-106275340D01*
X99682300Y-106275340D01*
X99682300Y-106275339D01*
X99664107Y-106090626D01*
X99592214Y-105853624D01*
X99475465Y-105635202D01*
X99318347Y-105443753D01*
X99126897Y-105286635D01*
X98908475Y-105169886D01*
X98671473Y-105097993D01*
X98425000Y-105073717D01*
X98178526Y-105097993D01*
X97941524Y-105169886D01*
X97723102Y-105286635D01*
X97531653Y-105443753D01*
X97374535Y-105635203D01*
X97257786Y-105853625D01*
X97185893Y-106090627D01*
X97167700Y-106275340D01*
X97142300Y-106275340D01*
X97142300Y-106275339D01*
X97124107Y-106090626D01*
X97052214Y-105853624D01*
X96935465Y-105635202D01*
X96778347Y-105443753D01*
X96586897Y-105286635D01*
X96368475Y-105169886D01*
X96131473Y-105097993D01*
X95885000Y-105073717D01*
X95638526Y-105097993D01*
X95401524Y-105169886D01*
X95183102Y-105286635D01*
X94991653Y-105443753D01*
X94834535Y-105635203D01*
X94717786Y-105853625D01*
X94645893Y-106090627D01*
X94627700Y-106275340D01*
X94602300Y-106275340D01*
X94602300Y-106275339D01*
X94584107Y-106090626D01*
X94512214Y-105853624D01*
X94395465Y-105635202D01*
X94238347Y-105443753D01*
X94046897Y-105286635D01*
X93828475Y-105169886D01*
X93591473Y-105097993D01*
X93345000Y-105073717D01*
X93098526Y-105097993D01*
X92861524Y-105169886D01*
X92643102Y-105286635D01*
X92451653Y-105443753D01*
X92294535Y-105635203D01*
X92177786Y-105853625D01*
X92105893Y-106090627D01*
X92100523Y-106145145D01*
X92094173Y-106080668D01*
X92019374Y-105834090D01*
X91897908Y-105606842D01*
X91734442Y-105407658D01*
X91592400Y-105291088D01*
X91592400Y-105075450D01*
X102636752Y-94031100D01*
X112356327Y-94031100D01*
X112395000Y-94034909D01*
X112433673Y-94031100D01*
X112549357Y-94019706D01*
X112680251Y-93980000D01*
X146345829Y-93980000D01*
X146381629Y-94343487D01*
X146487654Y-94693005D01*
X146659830Y-95015122D01*
X146891539Y-95297461D01*
X147173878Y-95529170D01*
X147495995Y-95701346D01*
X147845513Y-95807371D01*
X148117915Y-95834200D01*
X150332085Y-95834200D01*
X150604487Y-95807371D01*
X150954005Y-95701346D01*
X151276122Y-95529170D01*
X151558461Y-95297461D01*
X151790170Y-95015122D01*
X151962346Y-94693005D01*
X152068371Y-94343487D01*
X152104171Y-93980000D01*
X152068371Y-93616513D01*
X151962346Y-93266995D01*
X151790170Y-92944878D01*
X151558461Y-92662539D01*
X151276122Y-92430830D01*
X150954005Y-92258654D01*
X150604487Y-92152629D01*
X150332085Y-92125800D01*
X148117915Y-92125800D01*
X147845513Y-92152629D01*
X147495995Y-92258654D01*
X147173878Y-92430830D01*
X146891539Y-92662539D01*
X146659830Y-92944878D01*
X146487654Y-93266995D01*
X146381629Y-93616513D01*
X146345829Y-93980000D01*
X112680251Y-93980000D01*
X112697783Y-93974682D01*
X112834572Y-93901566D01*
X112954469Y-93803169D01*
X113052866Y-93683272D01*
X113125982Y-93546483D01*
X113171006Y-93398057D01*
X113186209Y-93243700D01*
X113182400Y-93205027D01*
X113182400Y-92933552D01*
X113242696Y-92901322D01*
X113300711Y-92853711D01*
X113348322Y-92795696D01*
X113383701Y-92729508D01*
X113405487Y-92657689D01*
X113412843Y-92583000D01*
X113412843Y-89408000D01*
X116508203Y-89408000D01*
X116508203Y-92583000D01*
X116514578Y-92647730D01*
X116533460Y-92709973D01*
X116564121Y-92767337D01*
X116605384Y-92817616D01*
X116655663Y-92858879D01*
X116713027Y-92889540D01*
X116775270Y-92908422D01*
X116840000Y-92914797D01*
X118110000Y-92914797D01*
X118174730Y-92908422D01*
X118236973Y-92889540D01*
X118294337Y-92858879D01*
X118344616Y-92817616D01*
X118385879Y-92767337D01*
X118416540Y-92709973D01*
X118435422Y-92647730D01*
X118441797Y-92583000D01*
X118441797Y-91821000D01*
X138938000Y-91821000D01*
X138938000Y-92075000D01*
X138989619Y-92345101D01*
X139092941Y-92599942D01*
X139243994Y-92829729D01*
X139436974Y-93025632D01*
X139664465Y-93180122D01*
X139917724Y-93287262D01*
X139991930Y-93302220D01*
X140208000Y-93179720D01*
X140208000Y-91821000D01*
X140462000Y-91821000D01*
X140462000Y-93179720D01*
X140678070Y-93302220D01*
X140752276Y-93287262D01*
X141005535Y-93180122D01*
X141233026Y-93025632D01*
X141426006Y-92829729D01*
X141577059Y-92599942D01*
X141680381Y-92345101D01*
X141732000Y-92075000D01*
X141732000Y-91821000D01*
X140462000Y-91821000D01*
X140208000Y-91821000D01*
X138938000Y-91821000D01*
X118441797Y-91821000D01*
X118441797Y-89408000D01*
X118435422Y-89343270D01*
X118416540Y-89281027D01*
X118385879Y-89223663D01*
X118344616Y-89173384D01*
X118294337Y-89132121D01*
X118236973Y-89101460D01*
X118174730Y-89082578D01*
X118110000Y-89076203D01*
X116840000Y-89076203D01*
X116775270Y-89082578D01*
X116713027Y-89101460D01*
X116655663Y-89132121D01*
X116605384Y-89173384D01*
X116564121Y-89223663D01*
X116533460Y-89281027D01*
X116514578Y-89343270D01*
X116508203Y-89408000D01*
X113412843Y-89408000D01*
X113405487Y-89333311D01*
X113383701Y-89261492D01*
X113348322Y-89195304D01*
X113300711Y-89137289D01*
X113242696Y-89089678D01*
X113176508Y-89054299D01*
X113104689Y-89032513D01*
X113030000Y-89025157D01*
X111762152Y-89025157D01*
X113246210Y-87541100D01*
X113968203Y-87541100D01*
X113968203Y-88392000D01*
X113974578Y-88456730D01*
X113993460Y-88518973D01*
X114024121Y-88576337D01*
X114065384Y-88626616D01*
X114115663Y-88667879D01*
X114173027Y-88698540D01*
X114235270Y-88717422D01*
X114300000Y-88723797D01*
X115570000Y-88723797D01*
X115634730Y-88717422D01*
X115696973Y-88698540D01*
X115754337Y-88667879D01*
X115804616Y-88626616D01*
X115845879Y-88576337D01*
X115876540Y-88518973D01*
X115895422Y-88456730D01*
X115901797Y-88392000D01*
X118741928Y-88392000D01*
X118754188Y-88516482D01*
X118790498Y-88636180D01*
X118849463Y-88746494D01*
X118928815Y-88843185D01*
X119025506Y-88922537D01*
X119135820Y-88981502D01*
X119255518Y-89017812D01*
X119380000Y-89030072D01*
X119729250Y-89027000D01*
X119888000Y-88868250D01*
X119888000Y-86931500D01*
X120142000Y-86931500D01*
X120142000Y-88868250D01*
X120300750Y-89027000D01*
X120650000Y-89030072D01*
X120774482Y-89017812D01*
X120894180Y-88981502D01*
X121004494Y-88922537D01*
X121101185Y-88843185D01*
X121180537Y-88746494D01*
X121239502Y-88636180D01*
X121275812Y-88516482D01*
X121288072Y-88392000D01*
X121285000Y-87090250D01*
X121126250Y-86931500D01*
X120142000Y-86931500D01*
X119888000Y-86931500D01*
X118903750Y-86931500D01*
X118745000Y-87090250D01*
X118741928Y-88392000D01*
X115901797Y-88392000D01*
X115901797Y-85217000D01*
X118741928Y-85217000D01*
X118745000Y-86518750D01*
X118903750Y-86677500D01*
X119888000Y-86677500D01*
X119888000Y-84740750D01*
X120142000Y-84740750D01*
X120142000Y-86677500D01*
X121126250Y-86677500D01*
X121285000Y-86518750D01*
X121285674Y-86233000D01*
X138938000Y-86233000D01*
X138938000Y-86487000D01*
X138989619Y-86757101D01*
X139092941Y-87011942D01*
X139243994Y-87241729D01*
X139436974Y-87437632D01*
X139664465Y-87592122D01*
X139846026Y-87668931D01*
X139725272Y-87733475D01*
X139558963Y-87869962D01*
X139422476Y-88036271D01*
X139321057Y-88226011D01*
X139258604Y-88431891D01*
X139242800Y-88592351D01*
X139242800Y-89207648D01*
X139258604Y-89368108D01*
X139321057Y-89573988D01*
X139422475Y-89763729D01*
X139558962Y-89930038D01*
X139725271Y-90066525D01*
X139846026Y-90131070D01*
X139664465Y-90207878D01*
X139436974Y-90362368D01*
X139243994Y-90558271D01*
X139092941Y-90788058D01*
X138989619Y-91042899D01*
X138938000Y-91313000D01*
X138938000Y-91567000D01*
X140208000Y-91567000D01*
X140208000Y-91547000D01*
X140462000Y-91547000D01*
X140462000Y-91567000D01*
X141732000Y-91567000D01*
X141732000Y-91313000D01*
X141680381Y-91042899D01*
X141577059Y-90788058D01*
X141426006Y-90558271D01*
X141233026Y-90362368D01*
X141005535Y-90207878D01*
X140823974Y-90131069D01*
X140944729Y-90066525D01*
X141111038Y-89930038D01*
X141247525Y-89763729D01*
X141348943Y-89573989D01*
X141411396Y-89368109D01*
X141427200Y-89207649D01*
X141427200Y-88900000D01*
X141777516Y-88900000D01*
X141798604Y-89114109D01*
X141861057Y-89319989D01*
X141962475Y-89509729D01*
X142098962Y-89676038D01*
X142265271Y-89812525D01*
X142455011Y-89913943D01*
X142660891Y-89976396D01*
X142821351Y-89992200D01*
X143436649Y-89992200D01*
X143597109Y-89976396D01*
X143802989Y-89913943D01*
X143992729Y-89812525D01*
X144159038Y-89676038D01*
X144295525Y-89509729D01*
X144396943Y-89319989D01*
X144459396Y-89114109D01*
X144480484Y-88900000D01*
X144459396Y-88685891D01*
X144396943Y-88480011D01*
X144295525Y-88290271D01*
X144159038Y-88123962D01*
X143992729Y-87987475D01*
X143802989Y-87886057D01*
X143597109Y-87823604D01*
X143436649Y-87807800D01*
X142821351Y-87807800D01*
X142660891Y-87823604D01*
X142455011Y-87886057D01*
X142265271Y-87987475D01*
X142098962Y-88123962D01*
X141962475Y-88290271D01*
X141861057Y-88480011D01*
X141798604Y-88685891D01*
X141777516Y-88900000D01*
X141427200Y-88900000D01*
X141427200Y-88592352D01*
X141411396Y-88431892D01*
X141348943Y-88226012D01*
X141247525Y-88036271D01*
X141111038Y-87869962D01*
X140944729Y-87733475D01*
X140823974Y-87668930D01*
X141005535Y-87592122D01*
X141233026Y-87437632D01*
X141426006Y-87241729D01*
X141577059Y-87011942D01*
X141680381Y-86757101D01*
X141732000Y-86487000D01*
X141732000Y-86233000D01*
X140462000Y-86233000D01*
X140462000Y-86253000D01*
X140208000Y-86253000D01*
X140208000Y-86233000D01*
X138938000Y-86233000D01*
X121285674Y-86233000D01*
X121286873Y-85725000D01*
X138938000Y-85725000D01*
X138938000Y-85979000D01*
X140208000Y-85979000D01*
X140208000Y-84620280D01*
X140462000Y-84620280D01*
X140462000Y-85979000D01*
X141732000Y-85979000D01*
X141732000Y-85725000D01*
X141680381Y-85454899D01*
X141577059Y-85200058D01*
X141426006Y-84970271D01*
X141233026Y-84774368D01*
X141005535Y-84619878D01*
X140752276Y-84512738D01*
X140678070Y-84497780D01*
X140462000Y-84620280D01*
X140208000Y-84620280D01*
X139991930Y-84497780D01*
X139917724Y-84512738D01*
X139664465Y-84619878D01*
X139436974Y-84774368D01*
X139243994Y-84970271D01*
X139092941Y-85200058D01*
X138989619Y-85454899D01*
X138938000Y-85725000D01*
X121286873Y-85725000D01*
X121288072Y-85217000D01*
X121275812Y-85092518D01*
X121239502Y-84972820D01*
X121180537Y-84862506D01*
X121101185Y-84765815D01*
X121004494Y-84686463D01*
X120894180Y-84627498D01*
X120774482Y-84591188D01*
X120650000Y-84578928D01*
X120300750Y-84582000D01*
X120142000Y-84740750D01*
X119888000Y-84740750D01*
X119729250Y-84582000D01*
X119380000Y-84578928D01*
X119255518Y-84591188D01*
X119135820Y-84627498D01*
X119025506Y-84686463D01*
X118928815Y-84765815D01*
X118849463Y-84862506D01*
X118790498Y-84972820D01*
X118754188Y-85092518D01*
X118741928Y-85217000D01*
X115901797Y-85217000D01*
X115895422Y-85152270D01*
X115876540Y-85090027D01*
X115845879Y-85032663D01*
X115804616Y-84982384D01*
X115754337Y-84941121D01*
X115696973Y-84910460D01*
X115634730Y-84891578D01*
X115570000Y-84885203D01*
X114300000Y-84885203D01*
X114235270Y-84891578D01*
X114173027Y-84910460D01*
X114115663Y-84941121D01*
X114065384Y-84982384D01*
X114024121Y-85032663D01*
X113993460Y-85090027D01*
X113974578Y-85152270D01*
X113968203Y-85217000D01*
X113968203Y-86067900D01*
X112977286Y-86067900D01*
X112941100Y-86064336D01*
X112904914Y-86067900D01*
X112796701Y-86078558D01*
X112657851Y-86120678D01*
X112529887Y-86189076D01*
X112417725Y-86281125D01*
X112394659Y-86309231D01*
X110821797Y-87882094D01*
X110821797Y-85217000D01*
X110815422Y-85152270D01*
X110796540Y-85090027D01*
X110765879Y-85032663D01*
X110724616Y-84982384D01*
X110674337Y-84941121D01*
X110616973Y-84910460D01*
X110591600Y-84902763D01*
X110591600Y-84719775D01*
X110595163Y-84683599D01*
X110591600Y-84647423D01*
X110591600Y-84647414D01*
X110580942Y-84539201D01*
X110538822Y-84400351D01*
X110470424Y-84272387D01*
X110378375Y-84160225D01*
X110350269Y-84137159D01*
X110033110Y-83820000D01*
X146345829Y-83820000D01*
X146381629Y-84183487D01*
X146487654Y-84533005D01*
X146659830Y-84855122D01*
X146891539Y-85137461D01*
X147173878Y-85369170D01*
X147495995Y-85541346D01*
X147845513Y-85647371D01*
X148117915Y-85674200D01*
X150332085Y-85674200D01*
X150604487Y-85647371D01*
X150954005Y-85541346D01*
X151276122Y-85369170D01*
X151558461Y-85137461D01*
X151790170Y-84855122D01*
X151962346Y-84533005D01*
X152068371Y-84183487D01*
X152104171Y-83820000D01*
X152068371Y-83456513D01*
X151962346Y-83106995D01*
X151790170Y-82784878D01*
X151558461Y-82502539D01*
X151276122Y-82270830D01*
X150954005Y-82098654D01*
X150604487Y-81992629D01*
X150332085Y-81965800D01*
X148117915Y-81965800D01*
X147845513Y-81992629D01*
X147495995Y-82098654D01*
X147173878Y-82270830D01*
X146891539Y-82502539D01*
X146659830Y-82784878D01*
X146487654Y-83106995D01*
X146381629Y-83456513D01*
X146345829Y-83820000D01*
X110033110Y-83820000D01*
X104241600Y-78028491D01*
X104241600Y-72484886D01*
X104398347Y-72356247D01*
X104555465Y-72164798D01*
X104672214Y-71946376D01*
X104744107Y-71709373D01*
X104762300Y-71524660D01*
X104762300Y-70715340D01*
X104787700Y-70715340D01*
X104787700Y-71524661D01*
X104805893Y-71709374D01*
X104877786Y-71946376D01*
X104994535Y-72164798D01*
X105151654Y-72356247D01*
X105343103Y-72513365D01*
X105561525Y-72630114D01*
X105798527Y-72702007D01*
X106045000Y-72726283D01*
X106291474Y-72702007D01*
X106528476Y-72630114D01*
X106746898Y-72513365D01*
X106938347Y-72356247D01*
X107095465Y-72164798D01*
X107212214Y-71946376D01*
X107284107Y-71709373D01*
X107302300Y-71524660D01*
X107302300Y-70715340D01*
X107327700Y-70715340D01*
X107327700Y-71524661D01*
X107345893Y-71709374D01*
X107417786Y-71946376D01*
X107534535Y-72164798D01*
X107691654Y-72356247D01*
X107883103Y-72513365D01*
X108101525Y-72630114D01*
X108338527Y-72702007D01*
X108585000Y-72726283D01*
X108831474Y-72702007D01*
X109068476Y-72630114D01*
X109286898Y-72513365D01*
X109478347Y-72356247D01*
X109635465Y-72164798D01*
X109752214Y-71946376D01*
X109824107Y-71709373D01*
X109842300Y-71524660D01*
X109842300Y-70715340D01*
X109867700Y-70715340D01*
X109867700Y-71524661D01*
X109885893Y-71709374D01*
X109957786Y-71946376D01*
X110074535Y-72164798D01*
X110231654Y-72356247D01*
X110423103Y-72513365D01*
X110641525Y-72630114D01*
X110878527Y-72702007D01*
X111125000Y-72726283D01*
X111371474Y-72702007D01*
X111608476Y-72630114D01*
X111826898Y-72513365D01*
X112018347Y-72356247D01*
X112175465Y-72164798D01*
X112292214Y-71946376D01*
X112364107Y-71709373D01*
X112382300Y-71524660D01*
X112382300Y-70715340D01*
X112407700Y-70715340D01*
X112407700Y-71524661D01*
X112425893Y-71709374D01*
X112497786Y-71946376D01*
X112614535Y-72164798D01*
X112771654Y-72356247D01*
X112963103Y-72513365D01*
X113181525Y-72630114D01*
X113418527Y-72702007D01*
X113665000Y-72726283D01*
X113911474Y-72702007D01*
X114148476Y-72630114D01*
X114366898Y-72513365D01*
X114558347Y-72356247D01*
X114715465Y-72164798D01*
X114832214Y-71946376D01*
X114904107Y-71709373D01*
X114922300Y-71524660D01*
X114922300Y-70715340D01*
X114947700Y-70715340D01*
X114947700Y-71524661D01*
X114965893Y-71709374D01*
X115037786Y-71946376D01*
X115154535Y-72164798D01*
X115311654Y-72356247D01*
X115503103Y-72513365D01*
X115721525Y-72630114D01*
X115958527Y-72702007D01*
X116205000Y-72726283D01*
X116451474Y-72702007D01*
X116688476Y-72630114D01*
X116906898Y-72513365D01*
X117098347Y-72356247D01*
X117255465Y-72164798D01*
X117372214Y-71946376D01*
X117444107Y-71709373D01*
X117462300Y-71524660D01*
X117462300Y-70715340D01*
X117487700Y-70715340D01*
X117487700Y-71524661D01*
X117505893Y-71709374D01*
X117577786Y-71946376D01*
X117694535Y-72164798D01*
X117851654Y-72356247D01*
X118043103Y-72513365D01*
X118261525Y-72630114D01*
X118498527Y-72702007D01*
X118745000Y-72726283D01*
X118991474Y-72702007D01*
X119228476Y-72630114D01*
X119446898Y-72513365D01*
X119638347Y-72356247D01*
X119795465Y-72164798D01*
X119912214Y-71946376D01*
X119984107Y-71709373D01*
X120002300Y-71524660D01*
X120002300Y-70715340D01*
X120027700Y-70715340D01*
X120027700Y-71524661D01*
X120045893Y-71709374D01*
X120117786Y-71946376D01*
X120234535Y-72164798D01*
X120391654Y-72356247D01*
X120583103Y-72513365D01*
X120801525Y-72630114D01*
X121038527Y-72702007D01*
X121285000Y-72726283D01*
X121531474Y-72702007D01*
X121768476Y-72630114D01*
X121986898Y-72513365D01*
X122178347Y-72356247D01*
X122335465Y-72164798D01*
X122452214Y-71946376D01*
X122524107Y-71709373D01*
X122542300Y-71524660D01*
X122542300Y-70715340D01*
X122567700Y-70715340D01*
X122567700Y-71524661D01*
X122585893Y-71709374D01*
X122657786Y-71946376D01*
X122774535Y-72164798D01*
X122931654Y-72356247D01*
X123123103Y-72513365D01*
X123341525Y-72630114D01*
X123578527Y-72702007D01*
X123825000Y-72726283D01*
X124071474Y-72702007D01*
X124308476Y-72630114D01*
X124526898Y-72513365D01*
X124718347Y-72356247D01*
X124875465Y-72164798D01*
X124992214Y-71946376D01*
X125064107Y-71709373D01*
X125082300Y-71524660D01*
X125082300Y-70715340D01*
X125107700Y-70715340D01*
X125107700Y-71524661D01*
X125125893Y-71709374D01*
X125197786Y-71946376D01*
X125314535Y-72164798D01*
X125471654Y-72356247D01*
X125663103Y-72513365D01*
X125881525Y-72630114D01*
X126118527Y-72702007D01*
X126365000Y-72726283D01*
X126611474Y-72702007D01*
X126848476Y-72630114D01*
X127066898Y-72513365D01*
X127258347Y-72356247D01*
X127415465Y-72164798D01*
X127532214Y-71946376D01*
X127604107Y-71709373D01*
X127622300Y-71524660D01*
X127622300Y-70715339D01*
X127604107Y-70530626D01*
X127532214Y-70293624D01*
X127415465Y-70075202D01*
X127258347Y-69883753D01*
X127066897Y-69726635D01*
X126848475Y-69609886D01*
X126611473Y-69537993D01*
X126365000Y-69513717D01*
X126118526Y-69537993D01*
X125881524Y-69609886D01*
X125663102Y-69726635D01*
X125471653Y-69883753D01*
X125314535Y-70075203D01*
X125197786Y-70293625D01*
X125125893Y-70530627D01*
X125107700Y-70715340D01*
X125082300Y-70715340D01*
X125082300Y-70715339D01*
X125064107Y-70530626D01*
X124992214Y-70293624D01*
X124875465Y-70075202D01*
X124718347Y-69883753D01*
X124526897Y-69726635D01*
X124308475Y-69609886D01*
X124071473Y-69537993D01*
X123825000Y-69513717D01*
X123578526Y-69537993D01*
X123341524Y-69609886D01*
X123123102Y-69726635D01*
X122931653Y-69883753D01*
X122774535Y-70075203D01*
X122657786Y-70293625D01*
X122585893Y-70530627D01*
X122567700Y-70715340D01*
X122542300Y-70715340D01*
X122542300Y-70715339D01*
X122524107Y-70530626D01*
X122452214Y-70293624D01*
X122335465Y-70075202D01*
X122178347Y-69883753D01*
X121986897Y-69726635D01*
X121768475Y-69609886D01*
X121531473Y-69537993D01*
X121285000Y-69513717D01*
X121038526Y-69537993D01*
X120801524Y-69609886D01*
X120583102Y-69726635D01*
X120391653Y-69883753D01*
X120234535Y-70075203D01*
X120117786Y-70293625D01*
X120045893Y-70530627D01*
X120027700Y-70715340D01*
X120002300Y-70715340D01*
X120002300Y-70715339D01*
X119984107Y-70530626D01*
X119912214Y-70293624D01*
X119795465Y-70075202D01*
X119638347Y-69883753D01*
X119446897Y-69726635D01*
X119228475Y-69609886D01*
X118991473Y-69537993D01*
X118745000Y-69513717D01*
X118498526Y-69537993D01*
X118261524Y-69609886D01*
X118043102Y-69726635D01*
X117851653Y-69883753D01*
X117694535Y-70075203D01*
X117577786Y-70293625D01*
X117505893Y-70530627D01*
X117487700Y-70715340D01*
X117462300Y-70715340D01*
X117462300Y-70715339D01*
X117444107Y-70530626D01*
X117372214Y-70293624D01*
X117255465Y-70075202D01*
X117098347Y-69883753D01*
X116906897Y-69726635D01*
X116688475Y-69609886D01*
X116451473Y-69537993D01*
X116205000Y-69513717D01*
X115958526Y-69537993D01*
X115721524Y-69609886D01*
X115503102Y-69726635D01*
X115311653Y-69883753D01*
X115154535Y-70075203D01*
X115037786Y-70293625D01*
X114965893Y-70530627D01*
X114947700Y-70715340D01*
X114922300Y-70715340D01*
X114922300Y-70715339D01*
X114904107Y-70530626D01*
X114832214Y-70293624D01*
X114715465Y-70075202D01*
X114558347Y-69883753D01*
X114366897Y-69726635D01*
X114148475Y-69609886D01*
X113911473Y-69537993D01*
X113665000Y-69513717D01*
X113418526Y-69537993D01*
X113181524Y-69609886D01*
X112963102Y-69726635D01*
X112771653Y-69883753D01*
X112614535Y-70075203D01*
X112497786Y-70293625D01*
X112425893Y-70530627D01*
X112407700Y-70715340D01*
X112382300Y-70715340D01*
X112382300Y-70715339D01*
X112364107Y-70530626D01*
X112292214Y-70293624D01*
X112175465Y-70075202D01*
X112018347Y-69883753D01*
X111826897Y-69726635D01*
X111608475Y-69609886D01*
X111371473Y-69537993D01*
X111125000Y-69513717D01*
X110878526Y-69537993D01*
X110641524Y-69609886D01*
X110423102Y-69726635D01*
X110231653Y-69883753D01*
X110074535Y-70075203D01*
X109957786Y-70293625D01*
X109885893Y-70530627D01*
X109867700Y-70715340D01*
X109842300Y-70715340D01*
X109842300Y-70715339D01*
X109824107Y-70530626D01*
X109752214Y-70293624D01*
X109635465Y-70075202D01*
X109478347Y-69883753D01*
X109286897Y-69726635D01*
X109068475Y-69609886D01*
X108831473Y-69537993D01*
X108585000Y-69513717D01*
X108338526Y-69537993D01*
X108101524Y-69609886D01*
X107883102Y-69726635D01*
X107691653Y-69883753D01*
X107534535Y-70075203D01*
X107417786Y-70293625D01*
X107345893Y-70530627D01*
X107327700Y-70715340D01*
X107302300Y-70715340D01*
X107302300Y-70715339D01*
X107284107Y-70530626D01*
X107212214Y-70293624D01*
X107095465Y-70075202D01*
X106938347Y-69883753D01*
X106746897Y-69726635D01*
X106528475Y-69609886D01*
X106291473Y-69537993D01*
X106045000Y-69513717D01*
X105798526Y-69537993D01*
X105561524Y-69609886D01*
X105343102Y-69726635D01*
X105151653Y-69883753D01*
X104994535Y-70075203D01*
X104877786Y-70293625D01*
X104805893Y-70530627D01*
X104787700Y-70715340D01*
X104762300Y-70715340D01*
X104762300Y-70715339D01*
X104744107Y-70530626D01*
X104672214Y-70293624D01*
X104555465Y-70075202D01*
X104398347Y-69883753D01*
X104206897Y-69726635D01*
X103988475Y-69609886D01*
X103751473Y-69537993D01*
X103505000Y-69513717D01*
X103258526Y-69537993D01*
X103021524Y-69609886D01*
X102803102Y-69726635D01*
X102611653Y-69883753D01*
X102454535Y-70075203D01*
X102337786Y-70293625D01*
X102265893Y-70530627D01*
X102247700Y-70715340D01*
X102247700Y-71524661D01*
X102265893Y-71709374D01*
X102337786Y-71946376D01*
X102454535Y-72164798D01*
X102611654Y-72356247D01*
X102768401Y-72484886D01*
X102768400Y-78297417D01*
X102764836Y-78333600D01*
X102768400Y-78369783D01*
X102768400Y-78369785D01*
X102779058Y-78477998D01*
X102821178Y-78616848D01*
X102889576Y-78744812D01*
X102981625Y-78856974D01*
X103009732Y-78880041D01*
X109058568Y-84928878D01*
X109035663Y-84941121D01*
X108985384Y-84982384D01*
X108944121Y-85032663D01*
X108913460Y-85090027D01*
X108894578Y-85152270D01*
X108888203Y-85217000D01*
X108888203Y-87772793D01*
X101701600Y-80586191D01*
X101701600Y-72484886D01*
X101858347Y-72356247D01*
X102015465Y-72164798D01*
X102132214Y-71946376D01*
X102204107Y-71709373D01*
X102222300Y-71524660D01*
X102222300Y-70715339D01*
X102204107Y-70530626D01*
X102132214Y-70293624D01*
X102015465Y-70075202D01*
X101858347Y-69883753D01*
X101666897Y-69726635D01*
X101448475Y-69609886D01*
X101211473Y-69537993D01*
X100965000Y-69513717D01*
X100718526Y-69537993D01*
X100481524Y-69609886D01*
X100263102Y-69726635D01*
X100071653Y-69883753D01*
X99914535Y-70075203D01*
X99797786Y-70293625D01*
X99725893Y-70530627D01*
X99707700Y-70715340D01*
X99707700Y-71524661D01*
X99725893Y-71709374D01*
X99797786Y-71946376D01*
X99914535Y-72164798D01*
X100071654Y-72356247D01*
X100228400Y-72484885D01*
X100228401Y-80855107D01*
X100224836Y-80891300D01*
X100237792Y-81022832D01*
X100239059Y-81035699D01*
X100281179Y-81174549D01*
X100349577Y-81302513D01*
X100441626Y-81414675D01*
X100469732Y-81437741D01*
X108446259Y-89414269D01*
X108469325Y-89442375D01*
X108581487Y-89534424D01*
X108709451Y-89602822D01*
X108848301Y-89644942D01*
X108956514Y-89655600D01*
X108956523Y-89655600D01*
X108992699Y-89659163D01*
X109028875Y-89655600D01*
X110790417Y-89655600D01*
X110826600Y-89659164D01*
X110862783Y-89655600D01*
X110862786Y-89655600D01*
X110970999Y-89644942D01*
X111109849Y-89602822D01*
X111237813Y-89534424D01*
X111349975Y-89442375D01*
X111373045Y-89414264D01*
X111377157Y-89410152D01*
X111377157Y-92456300D01*
X102349265Y-92456300D01*
X102310600Y-92452492D01*
X102271935Y-92456300D01*
X102271927Y-92456300D01*
X102156243Y-92467694D01*
X102007817Y-92512718D01*
X101871028Y-92585834D01*
X101781170Y-92659578D01*
X101781167Y-92659581D01*
X101751131Y-92684231D01*
X101726481Y-92714267D01*
X90275573Y-104165177D01*
X90245532Y-104189831D01*
X90220879Y-104219871D01*
X90147135Y-104309728D01*
X90074018Y-104446518D01*
X90028995Y-104594943D01*
X90013792Y-104749300D01*
X90017601Y-104787973D01*
X90017601Y-105291087D01*
X89875558Y-105407658D01*
X89712092Y-105606843D01*
X89590626Y-105834091D01*
X89515827Y-106080669D01*
X89509477Y-106145145D01*
X89504107Y-106090626D01*
X89432214Y-105853624D01*
X89315465Y-105635202D01*
X89158347Y-105443753D01*
X88966897Y-105286635D01*
X88748475Y-105169886D01*
X88511473Y-105097993D01*
X88265000Y-105073717D01*
X88018526Y-105097993D01*
X87781524Y-105169886D01*
X87563102Y-105286635D01*
X87371653Y-105443753D01*
X87214535Y-105635203D01*
X87097786Y-105853625D01*
X87025893Y-106090627D01*
X87007700Y-106275340D01*
X86169500Y-106275340D01*
X86169500Y-101392360D01*
X87426800Y-101392360D01*
X87426800Y-101807640D01*
X87507817Y-102214939D01*
X87666737Y-102598607D01*
X87897454Y-102943899D01*
X88191101Y-103237546D01*
X88536393Y-103468263D01*
X88920061Y-103627183D01*
X89327360Y-103708200D01*
X89742640Y-103708200D01*
X90149939Y-103627183D01*
X90533607Y-103468263D01*
X90878899Y-103237546D01*
X91172546Y-102943899D01*
X91403263Y-102598607D01*
X91562183Y-102214939D01*
X91643200Y-101807640D01*
X91643200Y-101392360D01*
X91562183Y-100985061D01*
X91403263Y-100601393D01*
X91172546Y-100256101D01*
X90878899Y-99962454D01*
X90533607Y-99731737D01*
X90149939Y-99572817D01*
X89742640Y-99491800D01*
X89327360Y-99491800D01*
X88920061Y-99572817D01*
X88536393Y-99731737D01*
X88191101Y-99962454D01*
X87897454Y-100256101D01*
X87666737Y-100601393D01*
X87507817Y-100985061D01*
X87426800Y-101392360D01*
X86169500Y-101392360D01*
X86169500Y-75992360D01*
X87426800Y-75992360D01*
X87426800Y-76407640D01*
X87507817Y-76814939D01*
X87666737Y-77198607D01*
X87897454Y-77543899D01*
X88191101Y-77837546D01*
X88536393Y-78068263D01*
X88920061Y-78227183D01*
X89327360Y-78308200D01*
X89742640Y-78308200D01*
X90149939Y-78227183D01*
X90533607Y-78068263D01*
X90878899Y-77837546D01*
X91172546Y-77543899D01*
X91403263Y-77198607D01*
X91562183Y-76814939D01*
X91643200Y-76407640D01*
X91643200Y-75992360D01*
X91562183Y-75585061D01*
X91403263Y-75201393D01*
X91172546Y-74856101D01*
X90878899Y-74562454D01*
X90533607Y-74331737D01*
X90149939Y-74172817D01*
X89742640Y-74091800D01*
X89327360Y-74091800D01*
X88920061Y-74172817D01*
X88536393Y-74331737D01*
X88191101Y-74562454D01*
X87897454Y-74856101D01*
X87666737Y-75201393D01*
X87507817Y-75585061D01*
X87426800Y-75992360D01*
X86169500Y-75992360D01*
X86169500Y-69850000D01*
X87006103Y-69850000D01*
X87006103Y-72390000D01*
X87012478Y-72454730D01*
X87031360Y-72516973D01*
X87062021Y-72574337D01*
X87103284Y-72624616D01*
X87153563Y-72665879D01*
X87210927Y-72696540D01*
X87273170Y-72715422D01*
X87337900Y-72721797D01*
X89192100Y-72721797D01*
X89256830Y-72715422D01*
X89319073Y-72696540D01*
X89376437Y-72665879D01*
X89426716Y-72624616D01*
X89467979Y-72574337D01*
X89498640Y-72516973D01*
X89517522Y-72454730D01*
X89523897Y-72390000D01*
X89523897Y-72354303D01*
X89576719Y-72436352D01*
X89790231Y-72657273D01*
X90042740Y-72832295D01*
X90324542Y-72954692D01*
X90436006Y-72980793D01*
X90678000Y-72860492D01*
X90678000Y-71247000D01*
X90658000Y-71247000D01*
X90658000Y-70993000D01*
X90678000Y-70993000D01*
X90678000Y-69379508D01*
X90932000Y-69379508D01*
X90932000Y-70993000D01*
X90952000Y-70993000D01*
X90952000Y-71247000D01*
X90932000Y-71247000D01*
X90932000Y-72860492D01*
X91173994Y-72980793D01*
X91285458Y-72954692D01*
X91567260Y-72832295D01*
X91819769Y-72657273D01*
X92033281Y-72436352D01*
X92199591Y-72178022D01*
X92242902Y-72068200D01*
X92294535Y-72164798D01*
X92451654Y-72356247D01*
X92643103Y-72513365D01*
X92861525Y-72630114D01*
X93098527Y-72702007D01*
X93345000Y-72726283D01*
X93591474Y-72702007D01*
X93828476Y-72630114D01*
X94046898Y-72513365D01*
X94238347Y-72356247D01*
X94395465Y-72164798D01*
X94512214Y-71946376D01*
X94584107Y-71709373D01*
X94602300Y-71524660D01*
X94602300Y-70715340D01*
X94627700Y-70715340D01*
X94627700Y-71524661D01*
X94645893Y-71709374D01*
X94717786Y-71946376D01*
X94834535Y-72164798D01*
X94991654Y-72356247D01*
X95183103Y-72513365D01*
X95401525Y-72630114D01*
X95638527Y-72702007D01*
X95885000Y-72726283D01*
X96131474Y-72702007D01*
X96368476Y-72630114D01*
X96586898Y-72513365D01*
X96778347Y-72356247D01*
X96935465Y-72164798D01*
X97052214Y-71946376D01*
X97124107Y-71709373D01*
X97142300Y-71524660D01*
X97142300Y-70715340D01*
X97167700Y-70715340D01*
X97167700Y-71524661D01*
X97185893Y-71709374D01*
X97257786Y-71946376D01*
X97374535Y-72164798D01*
X97531654Y-72356247D01*
X97723103Y-72513365D01*
X97941525Y-72630114D01*
X98178527Y-72702007D01*
X98425000Y-72726283D01*
X98671474Y-72702007D01*
X98908476Y-72630114D01*
X99126898Y-72513365D01*
X99318347Y-72356247D01*
X99475465Y-72164798D01*
X99592214Y-71946376D01*
X99664107Y-71709373D01*
X99682300Y-71524660D01*
X99682300Y-70715339D01*
X99664107Y-70530626D01*
X99592214Y-70293624D01*
X99475465Y-70075202D01*
X99318347Y-69883753D01*
X99126897Y-69726635D01*
X98908475Y-69609886D01*
X98671473Y-69537993D01*
X98425000Y-69513717D01*
X98178526Y-69537993D01*
X97941524Y-69609886D01*
X97723102Y-69726635D01*
X97531653Y-69883753D01*
X97374535Y-70075203D01*
X97257786Y-70293625D01*
X97185893Y-70530627D01*
X97167700Y-70715340D01*
X97142300Y-70715340D01*
X97142300Y-70715339D01*
X97124107Y-70530626D01*
X97052214Y-70293624D01*
X96935465Y-70075202D01*
X96778347Y-69883753D01*
X96586897Y-69726635D01*
X96368475Y-69609886D01*
X96131473Y-69537993D01*
X95885000Y-69513717D01*
X95638526Y-69537993D01*
X95401524Y-69609886D01*
X95183102Y-69726635D01*
X94991653Y-69883753D01*
X94834535Y-70075203D01*
X94717786Y-70293625D01*
X94645893Y-70530627D01*
X94627700Y-70715340D01*
X94602300Y-70715340D01*
X94602300Y-70715339D01*
X94584107Y-70530626D01*
X94512214Y-70293624D01*
X94395465Y-70075202D01*
X94238347Y-69883753D01*
X94046897Y-69726635D01*
X93828475Y-69609886D01*
X93591473Y-69537993D01*
X93345000Y-69513717D01*
X93098526Y-69537993D01*
X92861524Y-69609886D01*
X92643102Y-69726635D01*
X92451653Y-69883753D01*
X92294535Y-70075203D01*
X92242902Y-70171801D01*
X92199591Y-70061978D01*
X92033281Y-69803648D01*
X91819769Y-69582727D01*
X91567260Y-69407705D01*
X91285458Y-69285308D01*
X91173994Y-69259207D01*
X90932000Y-69379508D01*
X90678000Y-69379508D01*
X90436006Y-69259207D01*
X90324542Y-69285308D01*
X90042740Y-69407705D01*
X89790231Y-69582727D01*
X89576719Y-69803648D01*
X89523897Y-69885697D01*
X89523897Y-69850000D01*
X89517522Y-69785270D01*
X89498640Y-69723027D01*
X89467979Y-69665663D01*
X89426716Y-69615384D01*
X89376437Y-69574121D01*
X89319073Y-69543460D01*
X89256830Y-69524578D01*
X89192100Y-69518203D01*
X87337900Y-69518203D01*
X87273170Y-69524578D01*
X87210927Y-69543460D01*
X87153563Y-69574121D01*
X87103284Y-69615384D01*
X87062021Y-69665663D01*
X87031360Y-69723027D01*
X87012478Y-69785270D01*
X87006103Y-69850000D01*
X86169500Y-69850000D01*
X86169500Y-69024500D01*
X129903513Y-69024500D01*
X129560061Y-69092817D01*
G37*
%TD.AperFunction*%
%TD*%
M02*
