M48
;DRILL file {KiCad no-vcs-found-a592832~58~ubuntu16.04.1} date Thu Mar  9 13:35:27 2017
;FORMAT={-:-/ absolute / inch / decimal}
FMAT,2
INCH,TZ
T1C0.025
T2C0.035
T3C0.043
T4C0.090
T5C0.130
%
G90
G05
M72
T1
X4.4904Y-3.334
X4.9076Y-3.5022
X4.963Y-3.671
T2
X5.55Y-2.9
X5.55Y-3.
X5.55Y-3.1
X5.55Y-3.9
X5.55Y-4.
X5.55Y-4.1
X5.65Y-3.
X5.65Y-4.
T3
X3.475Y-2.8
X3.475Y-4.2
X3.575Y-2.8
X3.575Y-4.2
X3.675Y-2.8
X3.675Y-4.2
X3.775Y-2.8
X3.775Y-4.2
X3.875Y-2.8
X3.875Y-4.2
X3.975Y-2.8
X3.975Y-4.2
X4.075Y-2.8
X4.075Y-4.2
X4.175Y-2.8
X4.175Y-4.2
X4.275Y-2.8
X4.275Y-4.2
X4.375Y-2.8
X4.375Y-4.2
X4.475Y-2.8
X4.475Y-4.2
X4.575Y-2.8
X4.575Y-4.2
X4.675Y-2.8
X4.675Y-4.2
X4.775Y-2.8
X4.775Y-4.2
X4.875Y-2.8
X4.875Y-4.2
X4.975Y-2.8
X4.975Y-4.2
T4
X5.9Y-2.8
X5.9Y-3.2
X5.9Y-3.8
X5.9Y-4.2
T5
X3.525Y-3.
X3.525Y-4.
X5.125Y-2.8
X5.125Y-4.2
T0
M30
