<?xml version="1.0" standalone="no"?>
 <!DOCTYPE svg PUBLIC "-//W3C//DTD SVG 1.1//EN" 
 "http://www.w3.org/Graphics/SVG/1.1/DTD/svg11.dtd"> 
<svg
  xmlns:svg="http://www.w3.org/2000/svg"
  xmlns="http://www.w3.org/2000/svg"
  xmlns:xlink="http://www.w3.org/1999/xlink"
  version="1.1"
  width="7.239000cm" height="4.318000cm" viewBox="0 0 28500 17000">
<title>SVG Picture created as encoder_interface_simple_3x2-B_SilkS.svg date 2020/10/30 10:10:30 </title>
  <desc>Picture generated by PCBNEW </desc>
<g style="fill:#000000; fill-opacity:1;stroke:#000000; stroke-opacity:1;
stroke-linecap:round; stroke-linejoin:round;"
 transform="translate(0 0) scale(1 1)">
</g>
<g style="fill:#000000; fill-opacity:0.0; 
stroke:#000000; stroke-width:-0.000393701; stroke-opacity:1; 
stroke-linecap:round; stroke-linejoin:round;">
</g>
<g style="fill:#840084; fill-opacity:0.0; 
stroke:#840084; stroke-width:-0.000393701; stroke-opacity:1; 
stroke-linecap:round; stroke-linejoin:round;">
</g>
<g style="fill:#840084; fill-opacity:0.0; 
stroke:#840084; stroke-width:150; stroke-opacity:1; 
stroke-linecap:round; stroke-linejoin:round;">
<path d="M1000 15000
L1000 16000
" />
<path d="M1000 16000
L17000 16000
" />
<path d="M17000 16000
L17000 15000
" />
<path d="M17000 15000
L1000 15000
" />
<path d="M1000 1000
L1000 2000
" />
<path d="M1000 2000
L17000 2000
" />
<path d="M17000 2000
L17000 1000
" />
<path d="M17000 1000
L1000 1000
" />
</g>
<g style="fill:#840084; fill-opacity:0.0; 
stroke:#840084; stroke-width:70; stroke-opacity:1; 
stroke-linecap:round; stroke-linejoin:round;">
<path d="M16650 12550
L16050 12550
" />
<path d="M16650 11450
L16650 12550
" />
<path d="M16050 11450
L16650 11450
" />
<path d="M14850 11450
L15450 11450
" />
<path d="M14850 12550
L14850 11450
" />
<path d="M15450 12550
L14850 12550
" />
<path d="M12950 9050
L12350 9050
" />
<path d="M12350 9050
L12350 7950
" />
<path d="M12350 7950
L12950 7950
" />
<path d="M13550 7950
L14150 7950
" />
<path d="M14150 7950
L14150 9050
" />
<path d="M14150 9050
L13550 9050
" />
<path d="M9850 7950
L10450 7950
" />
<path d="M9850 9050
L9850 7950
" />
<path d="M10450 9050
L9850 9050
" />
<path d="M11650 9050
L11050 9050
" />
<path d="M11650 7950
L11650 9050
" />
<path d="M11050 7950
L11650 7950
" />
</g>
<g style="fill:#840084; fill-opacity:0.0; 
stroke:#840084; stroke-width:150; stroke-opacity:1; 
stroke-linecap:round; stroke-linejoin:round;">
<path d="M15190 9976
L15190 7023
" />
<path d="M20309 9976
L15190 9976
" />
<path d="M20309 7023
L20309 9976
" />
<path d="M15190 7023
L20309 7023
" />
<circle cx="15750" cy="7500" r="250" /> 
</g>
<g style="fill:#840084; fill-opacity:0.0; 
stroke:#840084; stroke-width:100; stroke-opacity:1; 
stroke-linecap:round; stroke-linejoin:round;">
<g transform="rotate(-90 14500 12000)">
<text x="14500" y="12200"
transform="scale(-1 1) translate(-29000.000000 0)"
textLength="662.842" font-size="533.333" lengthAdjust="spacingAndGlyphs"
text-anchor="middle" opacity="0">C1</text>
</g>
<path d="M14642 11933
L14661 11914
L14680 11857
L14680 11819
L14661 11761
L14623 11723
L14585 11704
L14509 11685
L14452 11685
L14376 11704
L14338 11723
L14300 11761
L14280 11819
L14280 11857
L14300 11914
L14319 11933
" />
<path d="M14680 12314
L14680 12085
" />
<path d="M14680 12200
L14280 12200
L14338 12161
L14376 12123
L14395 12085
" />
<g transform="rotate(-90 17000 12000)">
<text x="17000" y="12200"
transform="scale(-1 1) translate(-34000.000000 0)"
textLength="1527.14" font-size="533.333" lengthAdjust="spacingAndGlyphs"
text-anchor="middle" opacity="0">0.1uF</text>
</g>
<path d="M16780 11342
L16780 11380
L16800 11419
L16819 11438
L16857 11457
L16933 11476
L17028 11476
L17104 11457
L17142 11438
L17161 11419
L17180 11380
L17180 11342
L17161 11304
L17142 11285
L17104 11266
L17028 11247
L16933 11247
L16857 11266
L16819 11285
L16800 11304
L16780 11342
" />
<path d="M17142 11647
L17161 11666
L17180 11647
L17161 11628
L17142 11647
L17180 11647
" />
<path d="M17180 12047
L17180 11819
" />
<path d="M17180 11933
L16780 11933
L16838 11895
L16876 11857
L16895 11819
" />
<path d="M16914 12390
L17180 12390
" />
<path d="M16914 12219
L17123 12219
L17161 12238
L17180 12276
L17180 12333
L17161 12371
L17142 12390
" />
<path d="M16971 12714
L16971 12580
" />
<path d="M17180 12580
L16780 12580
L16780 12771
" />
<text x="13250" y="9950"
transform="scale(-1 1) translate(-26500.000000 0)"
textLength="650.952" font-size="533.333" lengthAdjust="spacingAndGlyphs"
text-anchor="middle" opacity="0">R1</text>
<path d="M13316 9930
L13450 9740
" />
<path d="M13545 9930
L13545 9530
L13392 9530
L13354 9550
L13335 9569
L13316 9607
L13316 9664
L13335 9702
L13354 9721
L13392 9740
L13545 9740
" />
<path d="M12935 9930
L13164 9930
" />
<path d="M13050 9930
L13050 9530
L13088 9588
L13126 9626
L13164 9645
" />
<text x="13250" y="7450"
transform="scale(-1 1) translate(-26500.000000 0)"
textLength="1527.14" font-size="533.333" lengthAdjust="spacingAndGlyphs"
text-anchor="middle" opacity="0">3.16k</text>
<path d="M14021 7030
L13773 7030
L13907 7183
L13850 7183
L13811 7202
L13792 7221
L13773 7259
L13773 7354
L13792 7392
L13811 7411
L13850 7430
L13964 7430
L14002 7411
L14021 7392
" />
<path d="M13602 7392
L13583 7411
L13602 7430
L13621 7411
L13602 7392
L13602 7430
" />
<path d="M13202 7430
L13430 7430
" />
<path d="M13316 7430
L13316 7030
L13354 7088
L13392 7126
L13430 7145
" />
<path d="M12859 7030
L12935 7030
L12973 7050
L12992 7069
L13030 7126
L13050 7202
L13050 7354
L13030 7392
L13011 7411
L12973 7430
L12897 7430
L12859 7411
L12840 7392
L12821 7354
L12821 7259
L12840 7221
L12859 7202
L12897 7183
L12973 7183
L13011 7202
L13030 7221
L13050 7259
" />
<path d="M12650 7430
L12650 7030
" />
<path d="M12611 7278
L12497 7430
" />
<path d="M12497 7164
L12650 7316
" />
<text x="10750" y="7450"
transform="scale(-1 1) translate(-21500.000000 0)"
textLength="650.952" font-size="533.333" lengthAdjust="spacingAndGlyphs"
text-anchor="middle" opacity="0">R2</text>
<path d="M10816 7430
L10950 7240
" />
<path d="M11045 7430
L11045 7030
L10892 7030
L10854 7050
L10835 7069
L10816 7107
L10816 7164
L10835 7202
L10854 7221
L10892 7240
L11045 7240
" />
<path d="M10664 7069
L10645 7050
L10607 7030
L10511 7030
L10473 7050
L10454 7069
L10435 7107
L10435 7145
L10454 7202
L10683 7430
L10435 7430
" />
<text x="10750" y="9950"
transform="scale(-1 1) translate(-21500.000000 0)"
textLength="1527.14" font-size="533.333" lengthAdjust="spacingAndGlyphs"
text-anchor="middle" opacity="0">3.16k</text>
<path d="M11521 9530
L11273 9530
L11407 9683
L11350 9683
L11311 9702
L11292 9721
L11273 9759
L11273 9854
L11292 9892
L11311 9911
L11350 9930
L11464 9930
L11502 9911
L11521 9892
" />
<path d="M11102 9892
L11083 9911
L11102 9930
L11121 9911
L11102 9892
L11102 9930
" />
<path d="M10702 9930
L10930 9930
" />
<path d="M10816 9930
L10816 9530
L10854 9588
L10892 9626
L10930 9645
" />
<path d="M10359 9530
L10435 9530
L10473 9550
L10492 9569
L10530 9626
L10550 9702
L10550 9854
L10530 9892
L10511 9911
L10473 9930
L10397 9930
L10359 9911
L10340 9892
L10321 9854
L10321 9759
L10340 9721
L10359 9702
L10397 9683
L10473 9683
L10511 9702
L10530 9721
L10550 9759
" />
<path d="M10150 9930
L10150 9530
" />
<path d="M10111 9778
L9997 9930
" />
<path d="M9997 9664
L10150 9816
" />
<g transform="rotate(-90 20750 8500)">
<text x="20750" y="8700"
transform="scale(-1 1) translate(-41500.000000 0)"
textLength="670" font-size="533.333" lengthAdjust="spacingAndGlyphs"
text-anchor="middle" opacity="0">U1</text>
</g>
<path d="M20530 8195
L20854 8195
L20892 8214
L20911 8233
L20930 8271
L20930 8347
L20911 8385
L20892 8404
L20854 8423
L20530 8423
" />
<path d="M20930 8823
L20930 8595
" />
<path d="M20930 8709
L20530 8709
L20588 8671
L20626 8633
L20645 8595
" />
<g >
</g>
</g>
<g style="fill:#000000; fill-opacity:0.0; 
stroke:#000000; stroke-width:100; stroke-opacity:1; 
stroke-linecap:round; stroke-linejoin:round;">
</g>
<g style="fill:#C2C200; fill-opacity:0.0; 
stroke:#C2C200; stroke-width:100; stroke-opacity:1; 
stroke-linecap:round; stroke-linejoin:round;">
</g>
<g style="fill:#C2C200; fill-opacity:0.0; 
stroke:#C2C200; stroke-width:90; stroke-opacity:1; 
stroke-linecap:round; stroke-linejoin:round;">
<path d="M28000 500
L500 500
" />
<path d="M28000 16500
L28000 500
" />
<path d="M500 16500
L28000 16500
" />
<path d="M500 500
L500 16500
" />
<g >
</g>
<g >
</g>
<g >
</g>
<g >
</g>
<g >
</g>
<g >
</g>
<g >
</g>
<g >
</g>
</g> 
</svg>
