<?xml version="1.0" standalone="no"?>
 <!DOCTYPE svg PUBLIC "-//W3C//DTD SVG 1.1//EN" 
 "http://www.w3.org/Graphics/SVG/1.1/DTD/svg11.dtd"> 
<svg
  xmlns:svg="http://www.w3.org/2000/svg"
  xmlns="http://www.w3.org/2000/svg"
  xmlns:xlink="http://www.w3.org/1999/xlink"
  version="1.1"
  width="7.239000cm" height="4.318000cm" viewBox="0 0 28500 17000">
<title>SVG Picture created as encoder_interface_simple_3x2-F_SilkS.svg date 2020/10/30 10:10:30 </title>
  <desc>Picture generated by PCBNEW </desc>
<g style="fill:#000000; fill-opacity:1;stroke:#000000; stroke-opacity:1;
stroke-linecap:round; stroke-linejoin:round;"
 transform="translate(0 0) scale(1 1)">
</g>
<g style="fill:#000000; fill-opacity:0.0; 
stroke:#000000; stroke-width:-0.000393701; stroke-opacity:1; 
stroke-linecap:round; stroke-linejoin:round;">
</g>
<g style="fill:#008484; fill-opacity:0.0; 
stroke:#008484; stroke-width:-0.000393701; stroke-opacity:1; 
stroke-linecap:round; stroke-linejoin:round;">
</g>
<g style="fill:#008484; fill-opacity:0.0; 
stroke:#008484; stroke-width:150; stroke-opacity:1; 
stroke-linecap:round; stroke-linejoin:round;">
<g transform="rotate(-90 8250 8500)">
<text x="8250" y="8800"
textLength="4272.86" font-size="800" lengthAdjust="spacingAndGlyphs"
text-anchor="middle" opacity="0">ENCODER</text>
</g>
<path d="M8207 10428
L8207 10228
" />
<path d="M8521 10142
L8521 10428
L7921 10428
L7921 10142
" />
<path d="M8521 9885
L7921 9885
L8521 9542
L7921 9542
" />
<path d="M8464 8914
L8492 8942
L8521 9028
L8521 9085
L8492 9171
L8435 9228
L8378 9257
L8264 9285
L8178 9285
L8064 9257
L8007 9228
L7950 9171
L7921 9085
L7921 9028
L7950 8942
L7978 8914
" />
<path d="M7921 8542
L7921 8428
L7950 8371
L8007 8314
L8121 8285
L8321 8285
L8435 8314
L8492 8371
L8521 8428
L8521 8542
L8492 8600
L8435 8657
L8321 8685
L8121 8685
L8007 8657
L7950 8600
L7921 8542
" />
<path d="M8521 8028
L7921 8028
L7921 7885
L7950 7800
L8007 7742
L8064 7714
L8178 7685
L8264 7685
L8378 7714
L8435 7742
L8492 7800
L8521 7885
L8521 8028
" />
<path d="M8207 7428
L8207 7228
" />
<path d="M8521 7142
L8521 7428
L7921 7428
L7921 7142
" />
<path d="M8521 6542
L8235 6742
" />
<path d="M8521 6885
L7921 6885
L7921 6657
L7950 6600
L7978 6571
L8035 6542
L8121 6542
L8178 6571
L8207 6600
L8235 6657
L8235 6885
" />
</g>
<g style="fill:#008484; fill-opacity:0.0; 
stroke:#008484; stroke-width:90; stroke-opacity:1; 
stroke-linecap:round; stroke-linejoin:round;">
<path d="M13000 10000
L13000 10750
" />
<path d="M11000 10000
L11000 10750
" />
<path d="M10000 10000
L10000 10750
" />
<path d="M14000 10000
L14000 10750
" />
<path d="M12000 10000
L12000 10750
" />
<path d="M13000 6750
L13000 6250
" />
<path d="M12000 6750
L12000 6250
" />
<path d="M11000 6750
L11000 6250
" />
<path d="M10000 6750
L10000 6250
" />
</g>
<g style="fill:#008484; fill-opacity:0.0; 
stroke:#008484; stroke-width:75; stroke-opacity:1; 
stroke-linecap:round; stroke-linejoin:round;">
<text x="12000" y="11150"
textLength="966.429" font-size="400" lengthAdjust="spacingAndGlyphs"
text-anchor="middle" opacity="0">A_0</text>
<path d="M11671 11050
L11814 11050
" />
<path d="M11642 11135
L11742 10835
L11842 11135
" />
<path d="M11871 11164
L12100 11164
" />
<path d="M12228 10835
L12257 10835
L12285 10850
L12300 10864
L12314 10892
L12328 10950
L12328 11021
L12314 11078
L12300 11107
L12285 11121
L12257 11135
L12228 11135
L12200 11121
L12185 11107
L12171 11078
L12157 11021
L12157 10950
L12171 10892
L12185 10864
L12200 10850
L12228 10835
" />
<text x="10000" y="11150"
textLength="911.786" font-size="400" lengthAdjust="spacingAndGlyphs"
text-anchor="middle" opacity="0">B_0</text>
<path d="M9764 10978
L9807 10992
L9821 11007
L9835 11035
L9835 11078
L9821 11107
L9807 11121
L9778 11135
L9664 11135
L9664 10835
L9764 10835
L9792 10850
L9807 10864
L9821 10892
L9821 10921
L9807 10950
L9792 10964
L9764 10978
L9664 10978
" />
<path d="M9892 11164
L10121 11164
" />
<path d="M10250 10835
L10278 10835
L10307 10850
L10321 10864
L10335 10892
L10350 10950
L10350 11021
L10335 11078
L10321 11107
L10307 11121
L10278 11135
L10250 11135
L10221 11121
L10207 11107
L10192 11078
L10178 11021
L10178 10950
L10192 10892
L10207 10864
L10221 10850
L10250 10835
" />
<text x="11000" y="11150"
textLength="897.5" font-size="400" lengthAdjust="spacingAndGlyphs"
text-anchor="middle" opacity="0">VEE</text>
<path d="M10628 10835
L10728 11135
L10828 10835
" />
<path d="M10928 10978
L11028 10978
" />
<path d="M11071 11135
L10928 11135
L10928 10835
L11071 10835
" />
<path d="M11200 10978
L11300 10978
" />
<path d="M11342 11135
L11200 11135
L11200 10835
L11342 10835
" />
<text x="13000" y="11150"
textLength="711.786" font-size="400" lengthAdjust="spacingAndGlyphs"
text-anchor="middle" opacity="0">NC</text>
<path d="M12764 11135
L12764 10835
L12935 11135
L12935 10835
" />
<path d="M13250 11107
L13235 11121
L13192 11135
L13164 11135
L13121 11121
L13092 11092
L13078 11064
L13064 11007
L13064 10964
L13078 10907
L13092 10878
L13121 10850
L13164 10835
L13192 10835
L13235 10850
L13250 10864
" />
<text x="14000" y="11150"
textLength="1011.79" font-size="400" lengthAdjust="spacingAndGlyphs"
text-anchor="middle" opacity="0">GND</text>
<path d="M13771 10850
L13742 10835
L13700 10835
L13657 10850
L13628 10878
L13614 10907
L13600 10964
L13600 11007
L13614 11064
L13628 11092
L13657 11121
L13700 11135
L13728 11135
L13771 11121
L13785 11107
L13785 11007
L13728 11007
" />
<path d="M13914 11135
L13914 10835
L14085 11135
L14085 10835
" />
<path d="M14228 11135
L14228 10835
L14300 10835
L14342 10850
L14371 10878
L14385 10907
L14400 10964
L14400 11007
L14385 11064
L14371 11092
L14342 11121
L14300 11135
L14228 11135
" />
<text x="11000" y="6150"
textLength="968.929" font-size="400" lengthAdjust="spacingAndGlyphs"
text-anchor="middle" opacity="0">RED</text>
<path d="M10807 6135
L10707 5992
" />
<path d="M10635 6135
L10635 5835
L10750 5835
L10778 5850
L10792 5864
L10807 5892
L10807 5935
L10792 5964
L10778 5978
L10750 5992
L10635 5992
" />
<path d="M10935 5978
L11035 5978
" />
<path d="M11078 6135
L10935 6135
L10935 5835
L11078 5835
" />
<path d="M11207 6135
L11207 5835
L11278 5835
L11321 5850
L11350 5878
L11364 5907
L11378 5964
L11378 6007
L11364 6064
L11350 6092
L11321 6121
L11278 6135
L11207 6135
" />
<text x="14000" y="6150"
textLength="1011.79" font-size="400" lengthAdjust="spacingAndGlyphs"
text-anchor="middle" opacity="0">GRN</text>
<path d="M13771 5850
L13742 5835
L13700 5835
L13657 5850
L13628 5878
L13614 5907
L13600 5964
L13600 6007
L13614 6064
L13628 6092
L13657 6121
L13700 6135
L13728 6135
L13771 6121
L13785 6107
L13785 6007
L13728 6007
" />
<path d="M14085 6135
L13985 5992
" />
<path d="M13914 6135
L13914 5835
L14028 5835
L14057 5850
L14071 5864
L14085 5892
L14085 5935
L14071 5964
L14057 5978
L14028 5992
L13914 5992
" />
<path d="M14214 6135
L14214 5835
L14385 6135
L14385 5835
" />
<text x="12000" y="6150"
textLength="940.357" font-size="400" lengthAdjust="spacingAndGlyphs"
text-anchor="middle" opacity="0">BLK</text>
<path d="M11750 5978
L11792 5992
L11807 6007
L11821 6035
L11821 6078
L11807 6107
L11792 6121
L11764 6135
L11650 6135
L11650 5835
L11750 5835
L11778 5850
L11792 5864
L11807 5892
L11807 5921
L11792 5950
L11778 5964
L11750 5978
L11650 5978
" />
<path d="M12092 6135
L11950 6135
L11950 5835
" />
<path d="M12192 6135
L12192 5835
" />
<path d="M12364 6135
L12235 5964
" />
<path d="M12364 5835
L12192 6007
" />
<text x="10000" y="6150"
textLength="983.214" font-size="400" lengthAdjust="spacingAndGlyphs"
text-anchor="middle" opacity="0">WHT</text>
<path d="M9600 5835
L9671 6135
L9728 5921
L9785 6135
L9857 5835
" />
<path d="M9971 6135
L9971 5835
" />
<path d="M9971 5978
L10142 5978
" />
<path d="M10142 6135
L10142 5835
" />
<path d="M10242 5835
L10414 5835
" />
<path d="M10328 6135
L10328 5835
" />
<text x="13000" y="6150"
textLength="383.214" font-size="400" lengthAdjust="spacingAndGlyphs"
text-anchor="middle" opacity="0">X</text>
<path d="M12900 5835
L13100 6135
" />
<path d="M13100 5835
L12900 6135
" />
<text x="10000" y="14700"
textLength="14002.3" font-size="533.333" lengthAdjust="spacingAndGlyphs"
text-anchor="middle" opacity="0">https://github.com/janelia-modular-devices</text>
<path d="M3142 14680
L3142 14280
" />
<path d="M3314 14680
L3314 14471
L3295 14433
L3257 14414
L3200 14414
L3161 14433
L3142 14452
" />
<path d="M3447 14414
L3600 14414
" />
<path d="M3504 14280
L3504 14623
L3523 14661
L3561 14680
L3600 14680
" />
<path d="M3676 14414
L3828 14414
" />
<path d="M3733 14280
L3733 14623
L3752 14661
L3790 14680
L3828 14680
" />
<path d="M3961 14414
L3961 14814
" />
<path d="M3961 14433
L4000 14414
L4076 14414
L4114 14433
L4133 14452
L4152 14490
L4152 14604
L4133 14642
L4114 14661
L4076 14680
L4000 14680
L3961 14661
" />
<path d="M4304 14661
L4342 14680
L4419 14680
L4457 14661
L4476 14623
L4476 14604
L4457 14566
L4419 14547
L4361 14547
L4323 14528
L4304 14490
L4304 14471
L4323 14433
L4361 14414
L4419 14414
L4457 14433
" />
<path d="M4647 14642
L4666 14661
L4647 14680
L4628 14661
L4647 14642
L4647 14680
" />
<path d="M4647 14433
L4666 14452
L4647 14471
L4628 14452
L4647 14433
L4647 14471
" />
<path d="M5123 14261
L4780 14776
" />
<path d="M5542 14261
L5200 14776
" />
<path d="M5847 14414
L5847 14738
L5828 14776
L5809 14795
L5771 14814
L5714 14814
L5676 14795
" />
<path d="M5847 14661
L5809 14680
L5733 14680
L5695 14661
L5676 14642
L5657 14604
L5657 14490
L5676 14452
L5695 14433
L5733 14414
L5809 14414
L5847 14433
" />
<path d="M6038 14680
L6038 14414
" />
<path d="M6038 14280
L6019 14300
L6038 14319
L6057 14300
L6038 14280
L6038 14319
" />
<path d="M6171 14414
L6323 14414
" />
<path d="M6228 14280
L6228 14623
L6247 14661
L6285 14680
L6323 14680
" />
<path d="M6457 14680
L6457 14280
" />
<path d="M6628 14680
L6628 14471
L6609 14433
L6571 14414
L6514 14414
L6476 14433
L6457 14452
" />
<path d="M6990 14414
L6990 14680
" />
<path d="M6819 14414
L6819 14623
L6838 14661
L6876 14680
L6933 14680
L6971 14661
L6990 14642
" />
<path d="M7180 14680
L7180 14280
" />
<path d="M7180 14433
L7219 14414
L7295 14414
L7333 14433
L7352 14452
L7371 14490
L7371 14604
L7352 14642
L7333 14661
L7295 14680
L7219 14680
L7180 14661
" />
<path d="M7542 14642
L7561 14661
L7542 14680
L7523 14661
L7542 14642
L7542 14680
" />
<path d="M7904 14661
L7866 14680
L7790 14680
L7752 14661
L7733 14642
L7714 14604
L7714 14490
L7733 14452
L7752 14433
L7790 14414
L7866 14414
L7904 14433
" />
<path d="M8133 14680
L8095 14661
L8076 14642
L8057 14604
L8057 14490
L8076 14452
L8095 14433
L8133 14414
L8190 14414
L8228 14433
L8247 14452
L8266 14490
L8266 14604
L8247 14642
L8228 14661
L8190 14680
L8133 14680
" />
<path d="M8438 14680
L8438 14414
" />
<path d="M8438 14452
L8457 14433
L8495 14414
L8552 14414
L8590 14433
L8609 14471
L8609 14680
" />
<path d="M8609 14471
L8628 14433
L8666 14414
L8723 14414
L8761 14433
L8780 14471
L8780 14680
" />
<path d="M9257 14261
L8914 14776
" />
<path d="M9390 14414
L9390 14757
L9371 14795
L9333 14814
L9314 14814
" />
<path d="M9390 14280
L9371 14300
L9390 14319
L9409 14300
L9390 14280
L9390 14319
" />
<path d="M9752 14680
L9752 14471
L9733 14433
L9695 14414
L9619 14414
L9580 14433
" />
<path d="M9752 14661
L9714 14680
L9619 14680
L9580 14661
L9561 14623
L9561 14585
L9580 14547
L9619 14528
L9714 14528
L9752 14509
" />
<path d="M9942 14414
L9942 14680
" />
<path d="M9942 14452
L9961 14433
L10000 14414
L10057 14414
L10095 14433
L10114 14471
L10114 14680
" />
<path d="M10457 14661
L10419 14680
L10342 14680
L10304 14661
L10285 14623
L10285 14471
L10304 14433
L10342 14414
L10419 14414
L10457 14433
L10476 14471
L10476 14509
L10285 14547
" />
<path d="M10704 14680
L10666 14661
L10647 14623
L10647 14280
" />
<path d="M10857 14680
L10857 14414
" />
<path d="M10857 14280
L10838 14300
L10857 14319
L10876 14300
L10857 14280
L10857 14319
" />
<path d="M11219 14680
L11219 14471
L11200 14433
L11161 14414
L11085 14414
L11047 14433
" />
<path d="M11219 14661
L11180 14680
L11085 14680
L11047 14661
L11028 14623
L11028 14585
L11047 14547
L11085 14528
L11180 14528
L11219 14509
" />
<path d="M11409 14528
L11714 14528
" />
<path d="M11904 14680
L11904 14414
" />
<path d="M11904 14452
L11923 14433
L11961 14414
L12019 14414
L12057 14433
L12076 14471
L12076 14680
" />
<path d="M12076 14471
L12095 14433
L12133 14414
L12190 14414
L12228 14433
L12247 14471
L12247 14680
" />
<path d="M12495 14680
L12457 14661
L12438 14642
L12419 14604
L12419 14490
L12438 14452
L12457 14433
L12495 14414
L12552 14414
L12590 14433
L12609 14452
L12628 14490
L12628 14604
L12609 14642
L12590 14661
L12552 14680
L12495 14680
" />
<path d="M12971 14680
L12971 14280
" />
<path d="M12971 14661
L12933 14680
L12857 14680
L12819 14661
L12800 14642
L12780 14604
L12780 14490
L12800 14452
L12819 14433
L12857 14414
L12933 14414
L12971 14433
" />
<path d="M13333 14414
L13333 14680
" />
<path d="M13161 14414
L13161 14623
L13180 14661
L13219 14680
L13276 14680
L13314 14661
L13333 14642
" />
<path d="M13580 14680
L13542 14661
L13523 14623
L13523 14280
" />
<path d="M13904 14680
L13904 14471
L13885 14433
L13847 14414
L13771 14414
L13733 14433
" />
<path d="M13904 14661
L13866 14680
L13771 14680
L13733 14661
L13714 14623
L13714 14585
L13733 14547
L13771 14528
L13866 14528
L13904 14509
" />
<path d="M14095 14680
L14095 14414
" />
<path d="M14095 14490
L14114 14452
L14133 14433
L14171 14414
L14209 14414
" />
<path d="M14342 14528
L14647 14528
" />
<path d="M15009 14680
L15009 14280
" />
<path d="M15009 14661
L14971 14680
L14895 14680
L14857 14661
L14838 14642
L14819 14604
L14819 14490
L14838 14452
L14857 14433
L14895 14414
L14971 14414
L15009 14433
" />
<path d="M15352 14661
L15314 14680
L15238 14680
L15200 14661
L15180 14623
L15180 14471
L15200 14433
L15238 14414
L15314 14414
L15352 14433
L15371 14471
L15371 14509
L15180 14547
" />
<path d="M15504 14414
L15600 14680
L15695 14414
" />
<path d="M15847 14680
L15847 14414
" />
<path d="M15847 14280
L15828 14300
L15847 14319
L15866 14300
L15847 14280
L15847 14319
" />
<path d="M16209 14661
L16171 14680
L16095 14680
L16057 14661
L16038 14642
L16019 14604
L16019 14490
L16038 14452
L16057 14433
L16095 14414
L16171 14414
L16209 14433
" />
<path d="M16533 14661
L16495 14680
L16419 14680
L16380 14661
L16361 14623
L16361 14471
L16380 14433
L16419 14414
L16495 14414
L16533 14433
L16552 14471
L16552 14509
L16361 14547
" />
<path d="M16704 14661
L16742 14680
L16819 14680
L16857 14661
L16876 14623
L16876 14604
L16857 14566
L16819 14547
L16761 14547
L16723 14528
L16704 14490
L16704 14471
L16723 14433
L16761 14414
L16819 14414
L16857 14433
" />
</g>
<g style="fill:#008484; fill-opacity:0.0; 
stroke:#008484; stroke-width:100; stroke-opacity:1; 
stroke-linecap:round; stroke-linejoin:round;">
<g transform="rotate(-90 950 8500)">
<text x="950" y="8700"
textLength="7126.07" font-size="533.333" lengthAdjust="spacingAndGlyphs"
text-anchor="middle" opacity="0">Janelia Modular Device</text>
</g>
<path d="M730 11804
L1016 11804
L1073 11823
L1111 11861
L1130 11919
L1130 11957
" />
<path d="M1130 11442
L921 11442
L883 11461
L864 11500
L864 11576
L883 11614
" />
<path d="M1111 11442
L1130 11480
L1130 11576
L1111 11614
L1073 11633
L1035 11633
L997 11614
L978 11576
L978 11480
L959 11442
" />
<path d="M864 11252
L1130 11252
" />
<path d="M902 11252
L883 11233
L864 11195
L864 11138
L883 11100
L921 11080
L1130 11080
" />
<path d="M1111 10738
L1130 10776
L1130 10852
L1111 10890
L1073 10909
L921 10909
L883 10890
L864 10852
L864 10776
L883 10738
L921 10719
L959 10719
L997 10909
" />
<path d="M1130 10490
L1111 10528
L1073 10547
L730 10547
" />
<path d="M1130 10338
L864 10338
" />
<path d="M730 10338
L750 10357
L769 10338
L750 10319
L730 10338
L769 10338
" />
<path d="M1130 9976
L921 9976
L883 9995
L864 10033
L864 10109
L883 10147
" />
<path d="M1111 9976
L1130 10014
L1130 10109
L1111 10147
L1073 10166
L1035 10166
L997 10147
L978 10109
L978 10014
L959 9976
" />
<path d="M1130 9480
L730 9480
L1016 9347
L730 9214
L1130 9214
" />
<path d="M1130 8966
L1111 9004
L1092 9023
L1054 9042
L940 9042
L902 9023
L883 9004
L864 8966
L864 8909
L883 8871
L902 8852
L940 8833
L1054 8833
L1092 8852
L1111 8871
L1130 8909
L1130 8966
" />
<path d="M1130 8490
L730 8490
" />
<path d="M1111 8490
L1130 8528
L1130 8604
L1111 8642
L1092 8661
L1054 8680
L940 8680
L902 8661
L883 8642
L864 8604
L864 8528
L883 8490
" />
<path d="M864 8128
L1130 8128
" />
<path d="M864 8300
L1073 8300
L1111 8280
L1130 8242
L1130 8185
L1111 8147
L1092 8128
" />
<path d="M1130 7880
L1111 7919
L1073 7938
L730 7938
" />
<path d="M1130 7557
L921 7557
L883 7576
L864 7614
L864 7690
L883 7728
" />
<path d="M1111 7557
L1130 7595
L1130 7690
L1111 7728
L1073 7747
L1035 7747
L997 7728
L978 7690
L978 7595
L959 7557
" />
<path d="M1130 7366
L864 7366
" />
<path d="M940 7366
L902 7347
L883 7328
L864 7290
L864 7252
" />
<path d="M1130 6814
L730 6814
L730 6719
L750 6661
L788 6623
L826 6604
L902 6585
L959 6585
L1035 6604
L1073 6623
L1111 6661
L1130 6719
L1130 6814
" />
<path d="M1111 6261
L1130 6300
L1130 6376
L1111 6414
L1073 6433
L921 6433
L883 6414
L864 6376
L864 6300
L883 6261
L921 6242
L959 6242
L997 6433
" />
<path d="M864 6109
L1130 6014
L864 5919
" />
<path d="M1130 5766
L864 5766
" />
<path d="M730 5766
L750 5785
L769 5766
L750 5747
L730 5766
L769 5766
" />
<path d="M1111 5404
L1130 5442
L1130 5519
L1111 5557
L1092 5576
L1054 5595
L940 5595
L902 5576
L883 5557
L864 5519
L864 5442
L883 5404
" />
<path d="M1111 5080
L1130 5119
L1130 5195
L1111 5233
L1073 5252
L921 5252
L883 5233
L864 5195
L864 5119
L883 5080
L921 5061
L959 5061
L997 5252
" />
<g transform="rotate(-90 1650 8500)">
<text x="1650" y="8700"
textLength="7710.95" font-size="533.333" lengthAdjust="spacingAndGlyphs"
text-anchor="middle" opacity="0">encoder_interface_simple</text>
</g>
<path d="M1811 12042
L1830 12080
L1830 12157
L1811 12195
L1773 12214
L1621 12214
L1583 12195
L1564 12157
L1564 12080
L1583 12042
L1621 12023
L1659 12023
L1697 12214
" />
<path d="M1564 11852
L1830 11852
" />
<path d="M1602 11852
L1583 11833
L1564 11795
L1564 11738
L1583 11700
L1621 11680
L1830 11680
" />
<path d="M1811 11319
L1830 11357
L1830 11433
L1811 11471
L1792 11490
L1754 11509
L1640 11509
L1602 11490
L1583 11471
L1564 11433
L1564 11357
L1583 11319
" />
<path d="M1830 11090
L1811 11128
L1792 11147
L1754 11166
L1640 11166
L1602 11147
L1583 11128
L1564 11090
L1564 11033
L1583 10995
L1602 10976
L1640 10957
L1754 10957
L1792 10976
L1811 10995
L1830 11033
L1830 11090
" />
<path d="M1830 10614
L1430 10614
" />
<path d="M1811 10614
L1830 10652
L1830 10728
L1811 10766
L1792 10785
L1754 10804
L1640 10804
L1602 10785
L1583 10766
L1564 10728
L1564 10652
L1583 10614
" />
<path d="M1811 10271
L1830 10309
L1830 10385
L1811 10423
L1773 10442
L1621 10442
L1583 10423
L1564 10385
L1564 10309
L1583 10271
L1621 10252
L1659 10252
L1697 10442
" />
<path d="M1830 10080
L1564 10080
" />
<path d="M1640 10080
L1602 10061
L1583 10042
L1564 10004
L1564 9966
" />
<path d="M1869 9928
L1869 9623
" />
<path d="M1830 9528
L1564 9528
" />
<path d="M1430 9528
L1450 9547
L1469 9528
L1450 9509
L1430 9528
L1469 9528
" />
<path d="M1564 9338
L1830 9338
" />
<path d="M1602 9338
L1583 9319
L1564 9280
L1564 9223
L1583 9185
L1621 9166
L1830 9166
" />
<path d="M1564 9033
L1564 8880
" />
<path d="M1430 8976
L1773 8976
L1811 8957
L1830 8919
L1830 8880
" />
<path d="M1811 8595
L1830 8633
L1830 8709
L1811 8747
L1773 8766
L1621 8766
L1583 8747
L1564 8709
L1564 8633
L1583 8595
L1621 8576
L1659 8576
L1697 8766
" />
<path d="M1830 8404
L1564 8404
" />
<path d="M1640 8404
L1602 8385
L1583 8366
L1564 8328
L1564 8290
" />
<path d="M1564 8214
L1564 8061
" />
<path d="M1830 8157
L1488 8157
L1450 8138
L1430 8100
L1430 8061
" />
<path d="M1830 7757
L1621 7757
L1583 7776
L1564 7814
L1564 7890
L1583 7928
" />
<path d="M1811 7757
L1830 7795
L1830 7890
L1811 7928
L1773 7947
L1735 7947
L1697 7928
L1678 7890
L1678 7795
L1659 7757
" />
<path d="M1811 7395
L1830 7433
L1830 7509
L1811 7547
L1792 7566
L1754 7585
L1640 7585
L1602 7566
L1583 7547
L1564 7509
L1564 7433
L1583 7395
" />
<path d="M1811 7071
L1830 7109
L1830 7185
L1811 7223
L1773 7242
L1621 7242
L1583 7223
L1564 7185
L1564 7109
L1583 7071
L1621 7052
L1659 7052
L1697 7242
" />
<path d="M1869 6976
L1869 6671
" />
<path d="M1811 6595
L1830 6557
L1830 6480
L1811 6442
L1773 6423
L1754 6423
L1716 6442
L1697 6480
L1697 6538
L1678 6576
L1640 6595
L1621 6595
L1583 6576
L1564 6538
L1564 6480
L1583 6442
" />
<path d="M1830 6252
L1564 6252
" />
<path d="M1430 6252
L1450 6271
L1469 6252
L1450 6233
L1430 6252
L1469 6252
" />
<path d="M1830 6061
L1564 6061
" />
<path d="M1602 6061
L1583 6042
L1564 6004
L1564 5947
L1583 5909
L1621 5890
L1830 5890
" />
<path d="M1621 5890
L1583 5871
L1564 5833
L1564 5776
L1583 5738
L1621 5719
L1830 5719
" />
<path d="M1564 5528
L1964 5528
" />
<path d="M1583 5528
L1564 5490
L1564 5414
L1583 5376
L1602 5357
L1640 5338
L1754 5338
L1792 5357
L1811 5376
L1830 5414
L1830 5490
L1811 5528
" />
<path d="M1830 5109
L1811 5147
L1773 5166
L1430 5166
" />
<path d="M1811 4804
L1830 4842
L1830 4919
L1811 4957
L1773 4976
L1621 4976
L1583 4957
L1564 4919
L1564 4842
L1583 4804
L1621 4785
L1659 4785
L1697 4976
" />
<g transform="rotate(-90 2350 8500)">
<text x="2350" y="8700"
textLength="5863.33" font-size="533.333" lengthAdjust="spacingAndGlyphs"
text-anchor="middle" opacity="0">part_number: 1231</text>
</g>
<path d="M2264 11271
L2664 11271
" />
<path d="M2283 11271
L2264 11233
L2264 11157
L2283 11119
L2302 11100
L2340 11080
L2454 11080
L2492 11100
L2511 11119
L2530 11157
L2530 11233
L2511 11271
" />
<path d="M2530 10738
L2321 10738
L2283 10757
L2264 10795
L2264 10871
L2283 10909
" />
<path d="M2511 10738
L2530 10776
L2530 10871
L2511 10909
L2473 10928
L2435 10928
L2397 10909
L2378 10871
L2378 10776
L2359 10738
" />
<path d="M2530 10547
L2264 10547
" />
<path d="M2340 10547
L2302 10528
L2283 10509
L2264 10471
L2264 10433
" />
<path d="M2264 10357
L2264 10204
" />
<path d="M2130 10300
L2473 10300
L2511 10280
L2530 10242
L2530 10204
" />
<path d="M2569 10166
L2569 9861
" />
<path d="M2264 9766
L2530 9766
" />
<path d="M2302 9766
L2283 9747
L2264 9709
L2264 9652
L2283 9614
L2321 9595
L2530 9595
" />
<path d="M2264 9233
L2530 9233
" />
<path d="M2264 9404
L2473 9404
L2511 9385
L2530 9347
L2530 9290
L2511 9252
L2492 9233
" />
<path d="M2530 9042
L2264 9042
" />
<path d="M2302 9042
L2283 9023
L2264 8985
L2264 8928
L2283 8890
L2321 8871
L2530 8871
" />
<path d="M2321 8871
L2283 8852
L2264 8814
L2264 8757
L2283 8719
L2321 8700
L2530 8700
" />
<path d="M2530 8509
L2130 8509
" />
<path d="M2283 8509
L2264 8471
L2264 8395
L2283 8357
L2302 8338
L2340 8319
L2454 8319
L2492 8338
L2511 8357
L2530 8395
L2530 8471
L2511 8509
" />
<path d="M2511 7995
L2530 8033
L2530 8109
L2511 8147
L2473 8166
L2321 8166
L2283 8147
L2264 8109
L2264 8033
L2283 7995
L2321 7976
L2359 7976
L2397 8166
" />
<path d="M2530 7804
L2264 7804
" />
<path d="M2340 7804
L2302 7785
L2283 7766
L2264 7728
L2264 7690
" />
<path d="M2492 7557
L2511 7538
L2530 7557
L2511 7576
L2492 7557
L2530 7557
" />
<path d="M2283 7557
L2302 7538
L2321 7557
L2302 7576
L2283 7557
L2321 7557
" />
<path d="M2530 6852
L2530 7080
" />
<path d="M2530 6966
L2130 6966
L2188 7004
L2226 7042
L2245 7080
" />
<path d="M2169 6700
L2150 6680
L2130 6642
L2130 6547
L2150 6509
L2169 6490
L2207 6471
L2245 6471
L2302 6490
L2530 6719
L2530 6471
" />
<path d="M2130 6338
L2130 6090
L2283 6223
L2283 6166
L2302 6128
L2321 6109
L2359 6090
L2454 6090
L2492 6109
L2511 6128
L2530 6166
L2530 6280
L2511 6319
L2492 6338
" />
<path d="M2530 5709
L2530 5938
" />
<path d="M2530 5823
L2130 5823
L2188 5861
L2226 5899
L2245 5938
" />
<g transform="rotate(-90 3050 8500)">
<text x="3050" y="8700"
textLength="6682.38" font-size="533.333" lengthAdjust="spacingAndGlyphs"
text-anchor="middle" opacity="0">10/2020 ver 1.1 3x2</text>
</g>
<path d="M3230 11471
L3230 11700
" />
<path d="M3230 11585
L2830 11585
L2888 11623
L2926 11661
L2945 11700
" />
<path d="M2830 11223
L2830 11185
L2850 11147
L2869 11128
L2907 11109
L2983 11090
L3078 11090
L3154 11109
L3192 11128
L3211 11147
L3230 11185
L3230 11223
L3211 11261
L3192 11280
L3154 11300
L3078 11319
L2983 11319
L2907 11300
L2869 11280
L2850 11261
L2830 11223
" />
<path d="M2811 10633
L3326 10976
" />
<path d="M2869 10519
L2850 10500
L2830 10461
L2830 10366
L2850 10328
L2869 10309
L2907 10290
L2945 10290
L3002 10309
L3230 10538
L3230 10290
" />
<path d="M2830 10042
L2830 10004
L2850 9966
L2869 9947
L2907 9928
L2983 9909
L3078 9909
L3154 9928
L3192 9947
L3211 9966
L3230 10004
L3230 10042
L3211 10080
L3192 10100
L3154 10119
L3078 10138
L2983 10138
L2907 10119
L2869 10100
L2850 10080
L2830 10042
" />
<path d="M2869 9757
L2850 9738
L2830 9700
L2830 9604
L2850 9566
L2869 9547
L2907 9528
L2945 9528
L3002 9547
L3230 9776
L3230 9528
" />
<path d="M2830 9280
L2830 9242
L2850 9204
L2869 9185
L2907 9166
L2983 9147
L3078 9147
L3154 9166
L3192 9185
L3211 9204
L3230 9242
L3230 9280
L3211 9319
L3192 9338
L3154 9357
L3078 9376
L2983 9376
L2907 9357
L2869 9338
L2850 9319
L2830 9280
" />
<path d="M2964 8709
L3230 8614
L2964 8519
" />
<path d="M3211 8214
L3230 8252
L3230 8328
L3211 8366
L3173 8385
L3021 8385
L2983 8366
L2964 8328
L2964 8252
L2983 8214
L3021 8195
L3059 8195
L3097 8385
" />
<path d="M3230 8023
L2964 8023
" />
<path d="M3040 8023
L3002 8004
L2983 7985
L2964 7947
L2964 7909
" />
<path d="M3230 7261
L3230 7490
" />
<path d="M3230 7376
L2830 7376
L2888 7414
L2926 7452
L2945 7490
" />
<path d="M3192 7090
L3211 7071
L3230 7090
L3211 7109
L3192 7090
L3230 7090
" />
<path d="M3230 6690
L3230 6919
" />
<path d="M3230 6804
L2830 6804
L2888 6842
L2926 6880
L2945 6919
" />
<path d="M2830 6252
L2830 6004
L2983 6138
L2983 6080
L3002 6042
L3021 6023
L3059 6004
L3154 6004
L3192 6023
L3211 6042
L3230 6080
L3230 6195
L3211 6233
L3192 6252
" />
<path d="M3230 5871
L2964 5661
" />
<path d="M2964 5871
L3230 5661
" />
<path d="M2869 5528
L2850 5509
L2830 5471
L2830 5376
L2850 5338
L2869 5319
L2907 5300
L2945 5300
L3002 5319
L3230 5547
L3230 5300
" />
</g>
<g style="fill:#008484; fill-opacity:0.0; 
stroke:#008484; stroke-width:90; stroke-opacity:1; 
stroke-linecap:round; stroke-linejoin:round;">
<circle cx="2000" cy="3500" r="1000" /> 
<circle cx="2000" cy="13500" r="1000" /> 
<circle cx="18000" cy="15500" r="1000" /> 
<circle cx="18000" cy="1500" r="1000" /> 
</g>
<g style="fill:#008484; fill-opacity:0.0; 
stroke:#008484; stroke-width:150; stroke-opacity:1; 
stroke-linecap:round; stroke-linejoin:round;">
<path d="M22500 8500
L22500 7500
" />
<path d="M22250 10200
L23750 8700
" />
<path d="M27750 11500
L27750 5500
" />
<path d="M21500 11500
L27750 11500
" />
<path d="M21500 5500
L21500 11500
" />
<path d="M27750 5500
L21500 5500
" />
<path d="M28000 11000
L27750 11000
" />
<path d="M28000 6000
L28000 11000
" />
<path d="M27750 6000
L28000 6000
" />
<path d="M22500 8000
L23100 7600
" />
<path d="M23000 9500
L23300 9800
" />
<path d="M15000 7500
L9000 7500
" />
<path d="M15000 9500
L15000 7500
" />
<path d="M9000 9500
L15000 9500
" />
<path d="M9000 7500
L9000 9500
" />
<path d="M10500 6900
L13500 6900
" />
<path d="M14250 6450
L13750 6450
" />
<path d="M14000 6950
L14250 6450
" />
<path d="M13750 6450
L14000 6950
" />
<path d="M10500 7500
L10500 6900
" />
<path d="M13500 7500
L13500 6900
" />
</g>
<g style="fill:#008484; fill-opacity:0.0; 
stroke:#008484; stroke-width:100; stroke-opacity:1; 
stroke-linecap:round; stroke-linejoin:round;">
<text x="27250" y="12200"
textLength="910.952" font-size="533.333" lengthAdjust="spacingAndGlyphs"
text-anchor="middle" opacity="0">P1</text>
<path d="M26954 12180
L26954 11780
L27107 11780
L27145 11800
L27164 11819
L27183 11857
L27183 11914
L27164 11952
L27145 11971
L27107 11990
L26954 11990
" />
<path d="M27564 12180
L27335 12180
" />
<path d="M27450 12180
L27450 11780
L27411 11838
L27373 11876
L27335 11895
" />
<g transform="rotate(-90 20500 8500)">
<text x="20500" y="8700"
textLength="5120.48" font-size="533.333" lengthAdjust="spacingAndGlyphs"
text-anchor="middle" opacity="0">Top: ENCODER B</text>
</g>
<path d="M20280 10957
L20280 10728
" />
<path d="M20680 10842
L20280 10842
" />
<path d="M20680 10538
L20661 10576
L20642 10595
L20604 10614
L20490 10614
L20452 10595
L20433 10576
L20414 10538
L20414 10480
L20433 10442
L20452 10423
L20490 10404
L20604 10404
L20642 10423
L20661 10442
L20680 10480
L20680 10538
" />
<path d="M20414 10233
L20814 10233
" />
<path d="M20433 10233
L20414 10195
L20414 10119
L20433 10080
L20452 10061
L20490 10042
L20604 10042
L20642 10061
L20661 10080
L20680 10119
L20680 10195
L20661 10233
" />
<path d="M20642 9871
L20661 9852
L20680 9871
L20661 9890
L20642 9871
L20680 9871
" />
<path d="M20433 9871
L20452 9852
L20471 9871
L20452 9890
L20433 9871
L20471 9871
" />
<path d="M20471 9376
L20471 9242
" />
<path d="M20680 9185
L20680 9376
L20280 9376
L20280 9185
" />
<path d="M20680 9014
L20280 9014
L20680 8785
L20280 8785
" />
<path d="M20642 8366
L20661 8385
L20680 8442
L20680 8480
L20661 8538
L20623 8576
L20585 8595
L20509 8614
L20452 8614
L20376 8595
L20338 8576
L20300 8538
L20280 8480
L20280 8442
L20300 8385
L20319 8366
" />
<path d="M20280 8119
L20280 8042
L20300 8004
L20338 7966
L20414 7947
L20547 7947
L20623 7966
L20661 8004
L20680 8042
L20680 8119
L20661 8157
L20623 8195
L20547 8214
L20414 8214
L20338 8195
L20300 8157
L20280 8119
" />
<path d="M20680 7776
L20280 7776
L20280 7680
L20300 7623
L20338 7585
L20376 7566
L20452 7547
L20509 7547
L20585 7566
L20623 7585
L20661 7623
L20680 7680
L20680 7776
" />
<path d="M20471 7376
L20471 7242
" />
<path d="M20680 7185
L20680 7376
L20280 7376
L20280 7185
" />
<path d="M20680 6785
L20490 6919
" />
<path d="M20680 7014
L20280 7014
L20280 6861
L20300 6823
L20319 6804
L20357 6785
L20414 6785
L20452 6804
L20471 6823
L20490 6861
L20490 7014
" />
<path d="M20471 6176
L20490 6119
L20509 6100
L20547 6080
L20604 6080
L20642 6100
L20661 6119
L20680 6157
L20680 6309
L20280 6309
L20280 6176
L20300 6138
L20319 6119
L20357 6100
L20395 6100
L20433 6119
L20452 6138
L20471 6176
L20471 6309
" />
<g transform="rotate(-90 21100 8500)">
<text x="21100" y="8700"
textLength="6149.05" font-size="533.333" lengthAdjust="spacingAndGlyphs"
text-anchor="middle" opacity="0">Bottom: ENCODER A</text>
</g>
<path d="M21071 11280
L21090 11223
L21109 11204
L21147 11185
L21204 11185
L21242 11204
L21261 11223
L21280 11261
L21280 11414
L20880 11414
L20880 11280
L20900 11242
L20919 11223
L20957 11204
L20995 11204
L21033 11223
L21052 11242
L21071 11280
L21071 11414
" />
<path d="M21280 10957
L21261 10995
L21242 11014
L21204 11033
L21090 11033
L21052 11014
L21033 10995
L21014 10957
L21014 10900
L21033 10861
L21052 10842
L21090 10823
L21204 10823
L21242 10842
L21261 10861
L21280 10900
L21280 10957
" />
<path d="M21014 10709
L21014 10557
" />
<path d="M20880 10652
L21223 10652
L21261 10633
L21280 10595
L21280 10557
" />
<path d="M21014 10480
L21014 10328
" />
<path d="M20880 10423
L21223 10423
L21261 10404
L21280 10366
L21280 10328
" />
<path d="M21280 10138
L21261 10176
L21242 10195
L21204 10214
L21090 10214
L21052 10195
L21033 10176
L21014 10138
L21014 10080
L21033 10042
L21052 10023
L21090 10004
L21204 10004
L21242 10023
L21261 10042
L21280 10080
L21280 10138
" />
<path d="M21280 9833
L21014 9833
" />
<path d="M21052 9833
L21033 9814
L21014 9776
L21014 9719
L21033 9680
L21071 9661
L21280 9661
" />
<path d="M21071 9661
L21033 9642
L21014 9604
L21014 9547
L21033 9509
L21071 9490
L21280 9490
" />
<path d="M21242 9300
L21261 9280
L21280 9300
L21261 9319
L21242 9300
L21280 9300
" />
<path d="M21033 9300
L21052 9280
L21071 9300
L21052 9319
L21033 9300
L21071 9300
" />
<path d="M21071 8804
L21071 8671
" />
<path d="M21280 8614
L21280 8804
L20880 8804
L20880 8614
" />
<path d="M21280 8442
L20880 8442
L21280 8214
L20880 8214
" />
<path d="M21242 7795
L21261 7814
L21280 7871
L21280 7909
L21261 7966
L21223 8004
L21185 8023
L21109 8042
L21052 8042
L20976 8023
L20938 8004
L20900 7966
L20880 7909
L20880 7871
L20900 7814
L20919 7795
" />
<path d="M20880 7547
L20880 7471
L20900 7433
L20938 7395
L21014 7376
L21147 7376
L21223 7395
L21261 7433
L21280 7471
L21280 7547
L21261 7585
L21223 7623
L21147 7642
L21014 7642
L20938 7623
L20900 7585
L20880 7547
" />
<path d="M21280 7204
L20880 7204
L20880 7109
L20900 7052
L20938 7014
L20976 6995
L21052 6976
L21109 6976
L21185 6995
L21223 7014
L21261 7052
L21280 7109
L21280 7204
" />
<path d="M21071 6804
L21071 6671
" />
<path d="M21280 6614
L21280 6804
L20880 6804
L20880 6614
" />
<path d="M21280 6214
L21090 6347
" />
<path d="M21280 6442
L20880 6442
L20880 6290
L20900 6252
L20919 6233
L20957 6214
L21014 6214
L21052 6233
L21071 6252
L21090 6290
L21090 6442
" />
<path d="M21166 5757
L21166 5566
" />
<path d="M21280 5795
L20880 5661
L21280 5528
" />
<g transform="rotate(-90 23400 10100)">
<text x="23400" y="10300"
textLength="530" font-size="533.333" lengthAdjust="spacingAndGlyphs"
text-anchor="middle" opacity="0">B</text>
</g>
<path d="M23371 10071
L23390 10014
L23409 9995
L23447 9976
L23504 9976
L23542 9995
L23561 10014
L23580 10052
L23580 10204
L23180 10204
L23180 10071
L23200 10033
L23219 10014
L23257 9995
L23295 9995
L23333 10014
L23352 10033
L23371 10071
L23371 10204
" />
<g transform="rotate(-90 23500 7500)">
<text x="23500" y="7700"
textLength="434.762" font-size="533.333" lengthAdjust="spacingAndGlyphs"
text-anchor="middle" opacity="0">T</text>
</g>
<path d="M23280 7614
L23280 7385
" />
<path d="M23680 7500
L23280 7500
" />
<g transform="rotate(-90 15500 8500)">
<text x="15500" y="8700"
textLength="910.952" font-size="533.333" lengthAdjust="spacingAndGlyphs"
text-anchor="middle" opacity="0">P2</text>
</g>
<path d="M15680 8795
L15280 8795
L15280 8642
L15300 8604
L15319 8585
L15357 8566
L15414 8566
L15452 8585
L15471 8604
L15490 8642
L15490 8795
" />
<path d="M15319 8414
L15300 8395
L15280 8357
L15280 8261
L15300 8223
L15319 8204
L15357 8185
L15395 8185
L15452 8204
L15680 8433
L15680 8185
" />
<g >
</g>
</g>
<g style="fill:#000000; fill-opacity:0.0; 
stroke:#000000; stroke-width:100; stroke-opacity:1; 
stroke-linecap:round; stroke-linejoin:round;">
</g>
<g style="fill:#C2C200; fill-opacity:0.0; 
stroke:#C2C200; stroke-width:100; stroke-opacity:1; 
stroke-linecap:round; stroke-linejoin:round;">
</g>
<g style="fill:#C2C200; fill-opacity:0.0; 
stroke:#C2C200; stroke-width:90; stroke-opacity:1; 
stroke-linecap:round; stroke-linejoin:round;">
<path d="M28000 500
L500 500
" />
<path d="M28000 16500
L28000 500
" />
<path d="M500 16500
L28000 16500
" />
<path d="M500 500
L500 16500
" />
<g >
</g>
<g >
</g>
<g >
</g>
<g >
</g>
<g >
</g>
<g >
</g>
<g >
</g>
<g >
</g>
</g> 
</svg>
