%TF.GenerationSoftware,KiCad,Pcbnew,5.1.7-a382d34a8~87~ubuntu20.04.1*%
%TF.CreationDate,2020-10-29T11:39:12-04:00*%
%TF.ProjectId,encoder_interface_simple_3x2,656e636f-6465-4725-9f69-6e7465726661,1.1*%
%TF.SameCoordinates,Original*%
%TF.FileFunction,Legend,Bot*%
%TF.FilePolarity,Positive*%
%FSLAX46Y46*%
G04 Gerber Fmt 4.6, Leading zero omitted, Abs format (unit mm)*
G04 Created by KiCad (PCBNEW 5.1.7-a382d34a8~87~ubuntu20.04.1) date 2020-10-29 11:39:12*
%MOMM*%
%LPD*%
G01*
G04 APERTURE LIST*
%ADD10C,0.381000*%
%ADD11C,0.177800*%
%ADD12C,0.254000*%
%ADD13C,3.556000*%
%ADD14O,1.854200X2.540000*%
%ADD15R,1.854200X2.540000*%
%ADD16R,1.270000X2.540000*%
%ADD17O,5.080000X3.048000*%
%ADD18O,2.032000X1.524000*%
%ADD19O,1.524000X2.032000*%
%ADD20R,0.600000X2.000000*%
G04 APERTURE END LIST*
D10*
%TO.C,MDB1*%
X127635000Y-69850000D02*
X86995000Y-69850000D01*
X127635000Y-72390000D02*
X127635000Y-69850000D01*
X86995000Y-72390000D02*
X127635000Y-72390000D01*
X86995000Y-69850000D02*
X86995000Y-72390000D01*
X127635000Y-105410000D02*
X86995000Y-105410000D01*
X127635000Y-107950000D02*
X127635000Y-105410000D01*
X86995000Y-107950000D02*
X127635000Y-107950000D01*
X86995000Y-105410000D02*
X86995000Y-107950000D01*
D11*
%TO.C,C1*%
X123698000Y-99187000D02*
X122174000Y-99187000D01*
X122174000Y-99187000D02*
X122174000Y-96393000D01*
X122174000Y-96393000D02*
X123698000Y-96393000D01*
X125222000Y-96393000D02*
X126746000Y-96393000D01*
X126746000Y-96393000D02*
X126746000Y-99187000D01*
X126746000Y-99187000D02*
X125222000Y-99187000D01*
%TO.C,R1*%
X120396000Y-90297000D02*
X118872000Y-90297000D01*
X120396000Y-87503000D02*
X120396000Y-90297000D01*
X118872000Y-87503000D02*
X120396000Y-87503000D01*
X115824000Y-87503000D02*
X117348000Y-87503000D01*
X115824000Y-90297000D02*
X115824000Y-87503000D01*
X117348000Y-90297000D02*
X115824000Y-90297000D01*
%TO.C,R2*%
X112522000Y-87503000D02*
X114046000Y-87503000D01*
X114046000Y-87503000D02*
X114046000Y-90297000D01*
X114046000Y-90297000D02*
X112522000Y-90297000D01*
X110998000Y-90297000D02*
X109474000Y-90297000D01*
X109474000Y-90297000D02*
X109474000Y-87503000D01*
X109474000Y-87503000D02*
X110998000Y-87503000D01*
D10*
%TO.C,U1*%
X125095000Y-86360000D02*
G75*
G03*
X125095000Y-86360000I-635000J0D01*
G01*
X123040000Y-85150000D02*
X136040000Y-85150000D01*
X136040000Y-85150000D02*
X136040000Y-92650000D01*
X136040000Y-92650000D02*
X123040000Y-92650000D01*
X123040000Y-92650000D02*
X123040000Y-85150000D01*
%TO.C,C1*%
D12*
X121647857Y-97620666D02*
X121696238Y-97572285D01*
X121744619Y-97427142D01*
X121744619Y-97330380D01*
X121696238Y-97185238D01*
X121599476Y-97088476D01*
X121502714Y-97040095D01*
X121309190Y-96991714D01*
X121164047Y-96991714D01*
X120970523Y-97040095D01*
X120873761Y-97088476D01*
X120777000Y-97185238D01*
X120728619Y-97330380D01*
X120728619Y-97427142D01*
X120777000Y-97572285D01*
X120825380Y-97620666D01*
X121744619Y-98588285D02*
X121744619Y-98007714D01*
X121744619Y-98298000D02*
X120728619Y-98298000D01*
X120873761Y-98201238D01*
X120970523Y-98104476D01*
X121018904Y-98007714D01*
X127078619Y-96120857D02*
X127078619Y-96217619D01*
X127127000Y-96314380D01*
X127175380Y-96362761D01*
X127272142Y-96411142D01*
X127465666Y-96459523D01*
X127707571Y-96459523D01*
X127901095Y-96411142D01*
X127997857Y-96362761D01*
X128046238Y-96314380D01*
X128094619Y-96217619D01*
X128094619Y-96120857D01*
X128046238Y-96024095D01*
X127997857Y-95975714D01*
X127901095Y-95927333D01*
X127707571Y-95878952D01*
X127465666Y-95878952D01*
X127272142Y-95927333D01*
X127175380Y-95975714D01*
X127127000Y-96024095D01*
X127078619Y-96120857D01*
X127997857Y-96894952D02*
X128046238Y-96943333D01*
X128094619Y-96894952D01*
X128046238Y-96846571D01*
X127997857Y-96894952D01*
X128094619Y-96894952D01*
X128094619Y-97910952D02*
X128094619Y-97330380D01*
X128094619Y-97620666D02*
X127078619Y-97620666D01*
X127223761Y-97523904D01*
X127320523Y-97427142D01*
X127368904Y-97330380D01*
X127417285Y-98781809D02*
X128094619Y-98781809D01*
X127417285Y-98346380D02*
X127949476Y-98346380D01*
X128046238Y-98394761D01*
X128094619Y-98491523D01*
X128094619Y-98636666D01*
X128046238Y-98733428D01*
X127997857Y-98781809D01*
X127562428Y-99604285D02*
X127562428Y-99265619D01*
X128094619Y-99265619D02*
X127078619Y-99265619D01*
X127078619Y-99749428D01*
%TO.C,R1*%
X118279333Y-92534619D02*
X118618000Y-92050809D01*
X118859904Y-92534619D02*
X118859904Y-91518619D01*
X118472857Y-91518619D01*
X118376095Y-91567000D01*
X118327714Y-91615380D01*
X118279333Y-91712142D01*
X118279333Y-91857285D01*
X118327714Y-91954047D01*
X118376095Y-92002428D01*
X118472857Y-92050809D01*
X118859904Y-92050809D01*
X117311714Y-92534619D02*
X117892285Y-92534619D01*
X117602000Y-92534619D02*
X117602000Y-91518619D01*
X117698761Y-91663761D01*
X117795523Y-91760523D01*
X117892285Y-91808904D01*
X120069428Y-85168619D02*
X119440476Y-85168619D01*
X119779142Y-85555666D01*
X119634000Y-85555666D01*
X119537238Y-85604047D01*
X119488857Y-85652428D01*
X119440476Y-85749190D01*
X119440476Y-85991095D01*
X119488857Y-86087857D01*
X119537238Y-86136238D01*
X119634000Y-86184619D01*
X119924285Y-86184619D01*
X120021047Y-86136238D01*
X120069428Y-86087857D01*
X119005047Y-86087857D02*
X118956666Y-86136238D01*
X119005047Y-86184619D01*
X119053428Y-86136238D01*
X119005047Y-86087857D01*
X119005047Y-86184619D01*
X117989047Y-86184619D02*
X118569619Y-86184619D01*
X118279333Y-86184619D02*
X118279333Y-85168619D01*
X118376095Y-85313761D01*
X118472857Y-85410523D01*
X118569619Y-85458904D01*
X117118190Y-85168619D02*
X117311714Y-85168619D01*
X117408476Y-85217000D01*
X117456857Y-85265380D01*
X117553619Y-85410523D01*
X117602000Y-85604047D01*
X117602000Y-85991095D01*
X117553619Y-86087857D01*
X117505238Y-86136238D01*
X117408476Y-86184619D01*
X117214952Y-86184619D01*
X117118190Y-86136238D01*
X117069809Y-86087857D01*
X117021428Y-85991095D01*
X117021428Y-85749190D01*
X117069809Y-85652428D01*
X117118190Y-85604047D01*
X117214952Y-85555666D01*
X117408476Y-85555666D01*
X117505238Y-85604047D01*
X117553619Y-85652428D01*
X117602000Y-85749190D01*
X116586000Y-86184619D02*
X116586000Y-85168619D01*
X116489238Y-85797571D02*
X116198952Y-86184619D01*
X116198952Y-85507285D02*
X116586000Y-85894333D01*
%TO.C,R2*%
X111929333Y-86184619D02*
X112268000Y-85700809D01*
X112509904Y-86184619D02*
X112509904Y-85168619D01*
X112122857Y-85168619D01*
X112026095Y-85217000D01*
X111977714Y-85265380D01*
X111929333Y-85362142D01*
X111929333Y-85507285D01*
X111977714Y-85604047D01*
X112026095Y-85652428D01*
X112122857Y-85700809D01*
X112509904Y-85700809D01*
X111542285Y-85265380D02*
X111493904Y-85217000D01*
X111397142Y-85168619D01*
X111155238Y-85168619D01*
X111058476Y-85217000D01*
X111010095Y-85265380D01*
X110961714Y-85362142D01*
X110961714Y-85458904D01*
X111010095Y-85604047D01*
X111590666Y-86184619D01*
X110961714Y-86184619D01*
X113719428Y-91518619D02*
X113090476Y-91518619D01*
X113429142Y-91905666D01*
X113284000Y-91905666D01*
X113187238Y-91954047D01*
X113138857Y-92002428D01*
X113090476Y-92099190D01*
X113090476Y-92341095D01*
X113138857Y-92437857D01*
X113187238Y-92486238D01*
X113284000Y-92534619D01*
X113574285Y-92534619D01*
X113671047Y-92486238D01*
X113719428Y-92437857D01*
X112655047Y-92437857D02*
X112606666Y-92486238D01*
X112655047Y-92534619D01*
X112703428Y-92486238D01*
X112655047Y-92437857D01*
X112655047Y-92534619D01*
X111639047Y-92534619D02*
X112219619Y-92534619D01*
X111929333Y-92534619D02*
X111929333Y-91518619D01*
X112026095Y-91663761D01*
X112122857Y-91760523D01*
X112219619Y-91808904D01*
X110768190Y-91518619D02*
X110961714Y-91518619D01*
X111058476Y-91567000D01*
X111106857Y-91615380D01*
X111203619Y-91760523D01*
X111252000Y-91954047D01*
X111252000Y-92341095D01*
X111203619Y-92437857D01*
X111155238Y-92486238D01*
X111058476Y-92534619D01*
X110864952Y-92534619D01*
X110768190Y-92486238D01*
X110719809Y-92437857D01*
X110671428Y-92341095D01*
X110671428Y-92099190D01*
X110719809Y-92002428D01*
X110768190Y-91954047D01*
X110864952Y-91905666D01*
X111058476Y-91905666D01*
X111155238Y-91954047D01*
X111203619Y-92002428D01*
X111252000Y-92099190D01*
X110236000Y-92534619D02*
X110236000Y-91518619D01*
X110139238Y-92147571D02*
X109848952Y-92534619D01*
X109848952Y-91857285D02*
X110236000Y-92244333D01*
%TO.C,U1*%
X136603619Y-88125904D02*
X137426095Y-88125904D01*
X137522857Y-88174285D01*
X137571238Y-88222666D01*
X137619619Y-88319428D01*
X137619619Y-88512952D01*
X137571238Y-88609714D01*
X137522857Y-88658095D01*
X137426095Y-88706476D01*
X136603619Y-88706476D01*
X137619619Y-89722476D02*
X137619619Y-89141904D01*
X137619619Y-89432190D02*
X136603619Y-89432190D01*
X136748761Y-89335428D01*
X136845523Y-89238666D01*
X136893904Y-89141904D01*
%TD*%
%LPC*%
D13*
%TO.C,MDB1*%
X130175000Y-71120000D03*
X130175000Y-106680000D03*
X89535000Y-101600000D03*
X89535000Y-76200000D03*
D14*
X88265000Y-106680000D03*
X90805000Y-106680000D03*
X93345000Y-106680000D03*
X95885000Y-106680000D03*
X98425000Y-106680000D03*
X100965000Y-106680000D03*
X103505000Y-106680000D03*
X106045000Y-106680000D03*
X108585000Y-106680000D03*
X111125000Y-106680000D03*
X113665000Y-106680000D03*
X116205000Y-106680000D03*
X118745000Y-106680000D03*
X121285000Y-106680000D03*
X123825000Y-106680000D03*
X126365000Y-106680000D03*
X126365000Y-71120000D03*
X123825000Y-71120000D03*
X121285000Y-71120000D03*
X118745000Y-71120000D03*
X116205000Y-71120000D03*
X113665000Y-71120000D03*
X111125000Y-71120000D03*
X108585000Y-71120000D03*
X106045000Y-71120000D03*
X103505000Y-71120000D03*
X100965000Y-71120000D03*
X98425000Y-71120000D03*
X95885000Y-71120000D03*
D15*
X88265000Y-71120000D03*
D14*
X93345000Y-71120000D03*
X90805000Y-71120000D03*
%TD*%
D16*
%TO.C,C1*%
X122936000Y-97790000D03*
X125984000Y-97790000D03*
%TD*%
D17*
%TO.C,P1*%
X149225000Y-83820000D03*
X149225000Y-93980000D03*
D18*
X143129000Y-88900000D03*
D19*
X140335000Y-88900000D03*
X140335000Y-91694000D03*
X140335000Y-86106000D03*
%TD*%
D16*
%TO.C,R1*%
X119634000Y-88900000D03*
X116586000Y-88900000D03*
%TD*%
%TO.C,R2*%
X113284000Y-88900000D03*
X110236000Y-88900000D03*
%TD*%
D20*
%TO.C,U1*%
X123825000Y-93550000D03*
X125095000Y-93550000D03*
X126365000Y-93550000D03*
X127635000Y-93550000D03*
X128905000Y-93550000D03*
X130175000Y-93550000D03*
X131445000Y-93550000D03*
X132715000Y-93550000D03*
X133985000Y-93550000D03*
X135255000Y-93550000D03*
X135255000Y-84250000D03*
X133985000Y-84250000D03*
X132715000Y-84250000D03*
X131445000Y-84250000D03*
X130175000Y-84250000D03*
X128905000Y-84250000D03*
X127635000Y-84250000D03*
X126365000Y-84250000D03*
X125095000Y-84250000D03*
X123825000Y-84250000D03*
%TD*%
M02*
