%TF.GenerationSoftware,KiCad,Pcbnew,5.1.7-a382d34a8~87~ubuntu20.04.1*%
%TF.CreationDate,2020-10-29T11:39:12-04:00*%
%TF.ProjectId,encoder_interface_simple_3x2,656e636f-6465-4725-9f69-6e7465726661,1.1*%
%TF.SameCoordinates,Original*%
%TF.FileFunction,Legend,Top*%
%TF.FilePolarity,Positive*%
%FSLAX46Y46*%
G04 Gerber Fmt 4.6, Leading zero omitted, Abs format (unit mm)*
G04 Created by KiCad (PCBNEW 5.1.7-a382d34a8~87~ubuntu20.04.1) date 2020-10-29 11:39:12*
%MOMM*%
%LPD*%
G01*
G04 APERTURE LIST*
%ADD10C,0.381000*%
%ADD11C,0.228600*%
%ADD12C,0.190500*%
%ADD13C,0.254000*%
%ADD14C,3.556000*%
%ADD15O,1.854200X2.540000*%
%ADD16R,1.854200X2.540000*%
%ADD17O,5.080000X3.048000*%
%ADD18O,2.032000X1.524000*%
%ADD19O,1.524000X2.032000*%
%ADD20R,1.270000X3.175000*%
G04 APERTURE END LIST*
D10*
X105301142Y-93798571D02*
X105301142Y-93290571D01*
X106099428Y-93072857D02*
X106099428Y-93798571D01*
X104575428Y-93798571D01*
X104575428Y-93072857D01*
X106099428Y-92419714D02*
X104575428Y-92419714D01*
X106099428Y-91548857D01*
X104575428Y-91548857D01*
X105954285Y-89952285D02*
X106026857Y-90024857D01*
X106099428Y-90242571D01*
X106099428Y-90387714D01*
X106026857Y-90605428D01*
X105881714Y-90750571D01*
X105736571Y-90823142D01*
X105446285Y-90895714D01*
X105228571Y-90895714D01*
X104938285Y-90823142D01*
X104793142Y-90750571D01*
X104648000Y-90605428D01*
X104575428Y-90387714D01*
X104575428Y-90242571D01*
X104648000Y-90024857D01*
X104720571Y-89952285D01*
X104575428Y-89008857D02*
X104575428Y-88718571D01*
X104648000Y-88573428D01*
X104793142Y-88428285D01*
X105083428Y-88355714D01*
X105591428Y-88355714D01*
X105881714Y-88428285D01*
X106026857Y-88573428D01*
X106099428Y-88718571D01*
X106099428Y-89008857D01*
X106026857Y-89154000D01*
X105881714Y-89299142D01*
X105591428Y-89371714D01*
X105083428Y-89371714D01*
X104793142Y-89299142D01*
X104648000Y-89154000D01*
X104575428Y-89008857D01*
X106099428Y-87702571D02*
X104575428Y-87702571D01*
X104575428Y-87339714D01*
X104648000Y-87122000D01*
X104793142Y-86976857D01*
X104938285Y-86904285D01*
X105228571Y-86831714D01*
X105446285Y-86831714D01*
X105736571Y-86904285D01*
X105881714Y-86976857D01*
X106026857Y-87122000D01*
X106099428Y-87339714D01*
X106099428Y-87702571D01*
X105301142Y-86178571D02*
X105301142Y-85670571D01*
X106099428Y-85452857D02*
X106099428Y-86178571D01*
X104575428Y-86178571D01*
X104575428Y-85452857D01*
X106099428Y-83928857D02*
X105373714Y-84436857D01*
X106099428Y-84799714D02*
X104575428Y-84799714D01*
X104575428Y-84219142D01*
X104648000Y-84074000D01*
X104720571Y-84001428D01*
X104865714Y-83928857D01*
X105083428Y-83928857D01*
X105228571Y-84001428D01*
X105301142Y-84074000D01*
X105373714Y-84219142D01*
X105373714Y-84799714D01*
D11*
X117475000Y-92710000D02*
X117475000Y-94615000D01*
X112395000Y-92710000D02*
X112395000Y-94615000D01*
X109855000Y-92710000D02*
X109855000Y-94615000D01*
X120015000Y-92710000D02*
X120015000Y-94615000D01*
X114935000Y-92710000D02*
X114935000Y-94615000D01*
X117475000Y-84455000D02*
X117475000Y-83185000D01*
X114935000Y-84455000D02*
X114935000Y-83185000D01*
X112395000Y-84455000D02*
X112395000Y-83185000D01*
X109855000Y-84455000D02*
X109855000Y-83185000D01*
D12*
X114100428Y-95377000D02*
X114463285Y-95377000D01*
X114027857Y-95594714D02*
X114281857Y-94832714D01*
X114535857Y-95594714D01*
X114608428Y-95667285D02*
X115189000Y-95667285D01*
X115515571Y-94832714D02*
X115588142Y-94832714D01*
X115660714Y-94869000D01*
X115697000Y-94905285D01*
X115733285Y-94977857D01*
X115769571Y-95123000D01*
X115769571Y-95304428D01*
X115733285Y-95449571D01*
X115697000Y-95522142D01*
X115660714Y-95558428D01*
X115588142Y-95594714D01*
X115515571Y-95594714D01*
X115443000Y-95558428D01*
X115406714Y-95522142D01*
X115370428Y-95449571D01*
X115334142Y-95304428D01*
X115334142Y-95123000D01*
X115370428Y-94977857D01*
X115406714Y-94905285D01*
X115443000Y-94869000D01*
X115515571Y-94832714D01*
X109256285Y-95195571D02*
X109365142Y-95231857D01*
X109401428Y-95268142D01*
X109437714Y-95340714D01*
X109437714Y-95449571D01*
X109401428Y-95522142D01*
X109365142Y-95558428D01*
X109292571Y-95594714D01*
X109002285Y-95594714D01*
X109002285Y-94832714D01*
X109256285Y-94832714D01*
X109328857Y-94869000D01*
X109365142Y-94905285D01*
X109401428Y-94977857D01*
X109401428Y-95050428D01*
X109365142Y-95123000D01*
X109328857Y-95159285D01*
X109256285Y-95195571D01*
X109002285Y-95195571D01*
X109582857Y-95667285D02*
X110163428Y-95667285D01*
X110490000Y-94832714D02*
X110562571Y-94832714D01*
X110635142Y-94869000D01*
X110671428Y-94905285D01*
X110707714Y-94977857D01*
X110744000Y-95123000D01*
X110744000Y-95304428D01*
X110707714Y-95449571D01*
X110671428Y-95522142D01*
X110635142Y-95558428D01*
X110562571Y-95594714D01*
X110490000Y-95594714D01*
X110417428Y-95558428D01*
X110381142Y-95522142D01*
X110344857Y-95449571D01*
X110308571Y-95304428D01*
X110308571Y-95123000D01*
X110344857Y-94977857D01*
X110381142Y-94905285D01*
X110417428Y-94869000D01*
X110490000Y-94832714D01*
X111451571Y-94832714D02*
X111705571Y-95594714D01*
X111959571Y-94832714D01*
X112213571Y-95195571D02*
X112467571Y-95195571D01*
X112576428Y-95594714D02*
X112213571Y-95594714D01*
X112213571Y-94832714D01*
X112576428Y-94832714D01*
X112903000Y-95195571D02*
X113157000Y-95195571D01*
X113265857Y-95594714D02*
X112903000Y-95594714D01*
X112903000Y-94832714D01*
X113265857Y-94832714D01*
X116876285Y-95594714D02*
X116876285Y-94832714D01*
X117311714Y-95594714D01*
X117311714Y-94832714D01*
X118110000Y-95522142D02*
X118073714Y-95558428D01*
X117964857Y-95594714D01*
X117892285Y-95594714D01*
X117783428Y-95558428D01*
X117710857Y-95485857D01*
X117674571Y-95413285D01*
X117638285Y-95268142D01*
X117638285Y-95159285D01*
X117674571Y-95014142D01*
X117710857Y-94941571D01*
X117783428Y-94869000D01*
X117892285Y-94832714D01*
X117964857Y-94832714D01*
X118073714Y-94869000D01*
X118110000Y-94905285D01*
X119434428Y-94869000D02*
X119361857Y-94832714D01*
X119253000Y-94832714D01*
X119144142Y-94869000D01*
X119071571Y-94941571D01*
X119035285Y-95014142D01*
X118999000Y-95159285D01*
X118999000Y-95268142D01*
X119035285Y-95413285D01*
X119071571Y-95485857D01*
X119144142Y-95558428D01*
X119253000Y-95594714D01*
X119325571Y-95594714D01*
X119434428Y-95558428D01*
X119470714Y-95522142D01*
X119470714Y-95268142D01*
X119325571Y-95268142D01*
X119797285Y-95594714D02*
X119797285Y-94832714D01*
X120232714Y-95594714D01*
X120232714Y-94832714D01*
X120595571Y-95594714D02*
X120595571Y-94832714D01*
X120777000Y-94832714D01*
X120885857Y-94869000D01*
X120958428Y-94941571D01*
X120994714Y-95014142D01*
X121031000Y-95159285D01*
X121031000Y-95268142D01*
X120994714Y-95413285D01*
X120958428Y-95485857D01*
X120885857Y-95558428D01*
X120777000Y-95594714D01*
X120595571Y-95594714D01*
X111905142Y-82894714D02*
X111651142Y-82531857D01*
X111469714Y-82894714D02*
X111469714Y-82132714D01*
X111760000Y-82132714D01*
X111832571Y-82169000D01*
X111868857Y-82205285D01*
X111905142Y-82277857D01*
X111905142Y-82386714D01*
X111868857Y-82459285D01*
X111832571Y-82495571D01*
X111760000Y-82531857D01*
X111469714Y-82531857D01*
X112231714Y-82495571D02*
X112485714Y-82495571D01*
X112594571Y-82894714D02*
X112231714Y-82894714D01*
X112231714Y-82132714D01*
X112594571Y-82132714D01*
X112921142Y-82894714D02*
X112921142Y-82132714D01*
X113102571Y-82132714D01*
X113211428Y-82169000D01*
X113284000Y-82241571D01*
X113320285Y-82314142D01*
X113356571Y-82459285D01*
X113356571Y-82568142D01*
X113320285Y-82713285D01*
X113284000Y-82785857D01*
X113211428Y-82858428D01*
X113102571Y-82894714D01*
X112921142Y-82894714D01*
X119434428Y-82169000D02*
X119361857Y-82132714D01*
X119253000Y-82132714D01*
X119144142Y-82169000D01*
X119071571Y-82241571D01*
X119035285Y-82314142D01*
X118999000Y-82459285D01*
X118999000Y-82568142D01*
X119035285Y-82713285D01*
X119071571Y-82785857D01*
X119144142Y-82858428D01*
X119253000Y-82894714D01*
X119325571Y-82894714D01*
X119434428Y-82858428D01*
X119470714Y-82822142D01*
X119470714Y-82568142D01*
X119325571Y-82568142D01*
X120232714Y-82894714D02*
X119978714Y-82531857D01*
X119797285Y-82894714D02*
X119797285Y-82132714D01*
X120087571Y-82132714D01*
X120160142Y-82169000D01*
X120196428Y-82205285D01*
X120232714Y-82277857D01*
X120232714Y-82386714D01*
X120196428Y-82459285D01*
X120160142Y-82495571D01*
X120087571Y-82531857D01*
X119797285Y-82531857D01*
X120559285Y-82894714D02*
X120559285Y-82132714D01*
X120994714Y-82894714D01*
X120994714Y-82132714D01*
X114300000Y-82495571D02*
X114408857Y-82531857D01*
X114445142Y-82568142D01*
X114481428Y-82640714D01*
X114481428Y-82749571D01*
X114445142Y-82822142D01*
X114408857Y-82858428D01*
X114336285Y-82894714D01*
X114046000Y-82894714D01*
X114046000Y-82132714D01*
X114300000Y-82132714D01*
X114372571Y-82169000D01*
X114408857Y-82205285D01*
X114445142Y-82277857D01*
X114445142Y-82350428D01*
X114408857Y-82423000D01*
X114372571Y-82459285D01*
X114300000Y-82495571D01*
X114046000Y-82495571D01*
X115170857Y-82894714D02*
X114808000Y-82894714D01*
X114808000Y-82132714D01*
X115424857Y-82894714D02*
X115424857Y-82132714D01*
X115860285Y-82894714D02*
X115533714Y-82459285D01*
X115860285Y-82132714D02*
X115424857Y-82568142D01*
X108839000Y-82132714D02*
X109020428Y-82894714D01*
X109165571Y-82350428D01*
X109310714Y-82894714D01*
X109492142Y-82132714D01*
X109782428Y-82894714D02*
X109782428Y-82132714D01*
X109782428Y-82495571D02*
X110217857Y-82495571D01*
X110217857Y-82894714D02*
X110217857Y-82132714D01*
X110471857Y-82132714D02*
X110907285Y-82132714D01*
X110689571Y-82894714D02*
X110689571Y-82132714D01*
X117221000Y-82132714D02*
X117729000Y-82894714D01*
X117729000Y-82132714D02*
X117221000Y-82894714D01*
X92437857Y-104599619D02*
X92437857Y-103583619D01*
X92873285Y-104599619D02*
X92873285Y-104067428D01*
X92824904Y-103970666D01*
X92728142Y-103922285D01*
X92583000Y-103922285D01*
X92486238Y-103970666D01*
X92437857Y-104019047D01*
X93211952Y-103922285D02*
X93599000Y-103922285D01*
X93357095Y-103583619D02*
X93357095Y-104454476D01*
X93405476Y-104551238D01*
X93502238Y-104599619D01*
X93599000Y-104599619D01*
X93792523Y-103922285D02*
X94179571Y-103922285D01*
X93937666Y-103583619D02*
X93937666Y-104454476D01*
X93986047Y-104551238D01*
X94082809Y-104599619D01*
X94179571Y-104599619D01*
X94518238Y-103922285D02*
X94518238Y-104938285D01*
X94518238Y-103970666D02*
X94615000Y-103922285D01*
X94808523Y-103922285D01*
X94905285Y-103970666D01*
X94953666Y-104019047D01*
X95002047Y-104115809D01*
X95002047Y-104406095D01*
X94953666Y-104502857D01*
X94905285Y-104551238D01*
X94808523Y-104599619D01*
X94615000Y-104599619D01*
X94518238Y-104551238D01*
X95389095Y-104551238D02*
X95485857Y-104599619D01*
X95679380Y-104599619D01*
X95776142Y-104551238D01*
X95824523Y-104454476D01*
X95824523Y-104406095D01*
X95776142Y-104309333D01*
X95679380Y-104260952D01*
X95534238Y-104260952D01*
X95437476Y-104212571D01*
X95389095Y-104115809D01*
X95389095Y-104067428D01*
X95437476Y-103970666D01*
X95534238Y-103922285D01*
X95679380Y-103922285D01*
X95776142Y-103970666D01*
X96259952Y-104502857D02*
X96308333Y-104551238D01*
X96259952Y-104599619D01*
X96211571Y-104551238D01*
X96259952Y-104502857D01*
X96259952Y-104599619D01*
X96259952Y-103970666D02*
X96308333Y-104019047D01*
X96259952Y-104067428D01*
X96211571Y-104019047D01*
X96259952Y-103970666D01*
X96259952Y-104067428D01*
X97469476Y-103535238D02*
X96598619Y-104841523D01*
X98533857Y-103535238D02*
X97663000Y-104841523D01*
X99307952Y-103922285D02*
X99307952Y-104744761D01*
X99259571Y-104841523D01*
X99211190Y-104889904D01*
X99114428Y-104938285D01*
X98969285Y-104938285D01*
X98872523Y-104889904D01*
X99307952Y-104551238D02*
X99211190Y-104599619D01*
X99017666Y-104599619D01*
X98920904Y-104551238D01*
X98872523Y-104502857D01*
X98824142Y-104406095D01*
X98824142Y-104115809D01*
X98872523Y-104019047D01*
X98920904Y-103970666D01*
X99017666Y-103922285D01*
X99211190Y-103922285D01*
X99307952Y-103970666D01*
X99791761Y-104599619D02*
X99791761Y-103922285D01*
X99791761Y-103583619D02*
X99743380Y-103632000D01*
X99791761Y-103680380D01*
X99840142Y-103632000D01*
X99791761Y-103583619D01*
X99791761Y-103680380D01*
X100130428Y-103922285D02*
X100517476Y-103922285D01*
X100275571Y-103583619D02*
X100275571Y-104454476D01*
X100323952Y-104551238D01*
X100420714Y-104599619D01*
X100517476Y-104599619D01*
X100856142Y-104599619D02*
X100856142Y-103583619D01*
X101291571Y-104599619D02*
X101291571Y-104067428D01*
X101243190Y-103970666D01*
X101146428Y-103922285D01*
X101001285Y-103922285D01*
X100904523Y-103970666D01*
X100856142Y-104019047D01*
X102210809Y-103922285D02*
X102210809Y-104599619D01*
X101775380Y-103922285D02*
X101775380Y-104454476D01*
X101823761Y-104551238D01*
X101920523Y-104599619D01*
X102065666Y-104599619D01*
X102162428Y-104551238D01*
X102210809Y-104502857D01*
X102694619Y-104599619D02*
X102694619Y-103583619D01*
X102694619Y-103970666D02*
X102791380Y-103922285D01*
X102984904Y-103922285D01*
X103081666Y-103970666D01*
X103130047Y-104019047D01*
X103178428Y-104115809D01*
X103178428Y-104406095D01*
X103130047Y-104502857D01*
X103081666Y-104551238D01*
X102984904Y-104599619D01*
X102791380Y-104599619D01*
X102694619Y-104551238D01*
X103613857Y-104502857D02*
X103662238Y-104551238D01*
X103613857Y-104599619D01*
X103565476Y-104551238D01*
X103613857Y-104502857D01*
X103613857Y-104599619D01*
X104533095Y-104551238D02*
X104436333Y-104599619D01*
X104242809Y-104599619D01*
X104146047Y-104551238D01*
X104097666Y-104502857D01*
X104049285Y-104406095D01*
X104049285Y-104115809D01*
X104097666Y-104019047D01*
X104146047Y-103970666D01*
X104242809Y-103922285D01*
X104436333Y-103922285D01*
X104533095Y-103970666D01*
X105113666Y-104599619D02*
X105016904Y-104551238D01*
X104968523Y-104502857D01*
X104920142Y-104406095D01*
X104920142Y-104115809D01*
X104968523Y-104019047D01*
X105016904Y-103970666D01*
X105113666Y-103922285D01*
X105258809Y-103922285D01*
X105355571Y-103970666D01*
X105403952Y-104019047D01*
X105452333Y-104115809D01*
X105452333Y-104406095D01*
X105403952Y-104502857D01*
X105355571Y-104551238D01*
X105258809Y-104599619D01*
X105113666Y-104599619D01*
X105887761Y-104599619D02*
X105887761Y-103922285D01*
X105887761Y-104019047D02*
X105936142Y-103970666D01*
X106032904Y-103922285D01*
X106178047Y-103922285D01*
X106274809Y-103970666D01*
X106323190Y-104067428D01*
X106323190Y-104599619D01*
X106323190Y-104067428D02*
X106371571Y-103970666D01*
X106468333Y-103922285D01*
X106613476Y-103922285D01*
X106710238Y-103970666D01*
X106758619Y-104067428D01*
X106758619Y-104599619D01*
X107968142Y-103535238D02*
X107097285Y-104841523D01*
X108306809Y-103922285D02*
X108306809Y-104793142D01*
X108258428Y-104889904D01*
X108161666Y-104938285D01*
X108113285Y-104938285D01*
X108306809Y-103583619D02*
X108258428Y-103632000D01*
X108306809Y-103680380D01*
X108355190Y-103632000D01*
X108306809Y-103583619D01*
X108306809Y-103680380D01*
X109226047Y-104599619D02*
X109226047Y-104067428D01*
X109177666Y-103970666D01*
X109080904Y-103922285D01*
X108887380Y-103922285D01*
X108790619Y-103970666D01*
X109226047Y-104551238D02*
X109129285Y-104599619D01*
X108887380Y-104599619D01*
X108790619Y-104551238D01*
X108742238Y-104454476D01*
X108742238Y-104357714D01*
X108790619Y-104260952D01*
X108887380Y-104212571D01*
X109129285Y-104212571D01*
X109226047Y-104164190D01*
X109709857Y-103922285D02*
X109709857Y-104599619D01*
X109709857Y-104019047D02*
X109758238Y-103970666D01*
X109855000Y-103922285D01*
X110000142Y-103922285D01*
X110096904Y-103970666D01*
X110145285Y-104067428D01*
X110145285Y-104599619D01*
X111016142Y-104551238D02*
X110919380Y-104599619D01*
X110725857Y-104599619D01*
X110629095Y-104551238D01*
X110580714Y-104454476D01*
X110580714Y-104067428D01*
X110629095Y-103970666D01*
X110725857Y-103922285D01*
X110919380Y-103922285D01*
X111016142Y-103970666D01*
X111064523Y-104067428D01*
X111064523Y-104164190D01*
X110580714Y-104260952D01*
X111645095Y-104599619D02*
X111548333Y-104551238D01*
X111499952Y-104454476D01*
X111499952Y-103583619D01*
X112032142Y-104599619D02*
X112032142Y-103922285D01*
X112032142Y-103583619D02*
X111983761Y-103632000D01*
X112032142Y-103680380D01*
X112080523Y-103632000D01*
X112032142Y-103583619D01*
X112032142Y-103680380D01*
X112951380Y-104599619D02*
X112951380Y-104067428D01*
X112903000Y-103970666D01*
X112806238Y-103922285D01*
X112612714Y-103922285D01*
X112515952Y-103970666D01*
X112951380Y-104551238D02*
X112854619Y-104599619D01*
X112612714Y-104599619D01*
X112515952Y-104551238D01*
X112467571Y-104454476D01*
X112467571Y-104357714D01*
X112515952Y-104260952D01*
X112612714Y-104212571D01*
X112854619Y-104212571D01*
X112951380Y-104164190D01*
X113435190Y-104212571D02*
X114209285Y-104212571D01*
X114693095Y-104599619D02*
X114693095Y-103922285D01*
X114693095Y-104019047D02*
X114741476Y-103970666D01*
X114838238Y-103922285D01*
X114983380Y-103922285D01*
X115080142Y-103970666D01*
X115128523Y-104067428D01*
X115128523Y-104599619D01*
X115128523Y-104067428D02*
X115176904Y-103970666D01*
X115273666Y-103922285D01*
X115418809Y-103922285D01*
X115515571Y-103970666D01*
X115563952Y-104067428D01*
X115563952Y-104599619D01*
X116192904Y-104599619D02*
X116096142Y-104551238D01*
X116047761Y-104502857D01*
X115999380Y-104406095D01*
X115999380Y-104115809D01*
X116047761Y-104019047D01*
X116096142Y-103970666D01*
X116192904Y-103922285D01*
X116338047Y-103922285D01*
X116434809Y-103970666D01*
X116483190Y-104019047D01*
X116531571Y-104115809D01*
X116531571Y-104406095D01*
X116483190Y-104502857D01*
X116434809Y-104551238D01*
X116338047Y-104599619D01*
X116192904Y-104599619D01*
X117402428Y-104599619D02*
X117402428Y-103583619D01*
X117402428Y-104551238D02*
X117305666Y-104599619D01*
X117112142Y-104599619D01*
X117015380Y-104551238D01*
X116967000Y-104502857D01*
X116918619Y-104406095D01*
X116918619Y-104115809D01*
X116967000Y-104019047D01*
X117015380Y-103970666D01*
X117112142Y-103922285D01*
X117305666Y-103922285D01*
X117402428Y-103970666D01*
X118321666Y-103922285D02*
X118321666Y-104599619D01*
X117886238Y-103922285D02*
X117886238Y-104454476D01*
X117934619Y-104551238D01*
X118031380Y-104599619D01*
X118176523Y-104599619D01*
X118273285Y-104551238D01*
X118321666Y-104502857D01*
X118950619Y-104599619D02*
X118853857Y-104551238D01*
X118805476Y-104454476D01*
X118805476Y-103583619D01*
X119773095Y-104599619D02*
X119773095Y-104067428D01*
X119724714Y-103970666D01*
X119627952Y-103922285D01*
X119434428Y-103922285D01*
X119337666Y-103970666D01*
X119773095Y-104551238D02*
X119676333Y-104599619D01*
X119434428Y-104599619D01*
X119337666Y-104551238D01*
X119289285Y-104454476D01*
X119289285Y-104357714D01*
X119337666Y-104260952D01*
X119434428Y-104212571D01*
X119676333Y-104212571D01*
X119773095Y-104164190D01*
X120256904Y-104599619D02*
X120256904Y-103922285D01*
X120256904Y-104115809D02*
X120305285Y-104019047D01*
X120353666Y-103970666D01*
X120450428Y-103922285D01*
X120547190Y-103922285D01*
X120885857Y-104212571D02*
X121659952Y-104212571D01*
X122579190Y-104599619D02*
X122579190Y-103583619D01*
X122579190Y-104551238D02*
X122482428Y-104599619D01*
X122288904Y-104599619D01*
X122192142Y-104551238D01*
X122143761Y-104502857D01*
X122095380Y-104406095D01*
X122095380Y-104115809D01*
X122143761Y-104019047D01*
X122192142Y-103970666D01*
X122288904Y-103922285D01*
X122482428Y-103922285D01*
X122579190Y-103970666D01*
X123450047Y-104551238D02*
X123353285Y-104599619D01*
X123159761Y-104599619D01*
X123063000Y-104551238D01*
X123014619Y-104454476D01*
X123014619Y-104067428D01*
X123063000Y-103970666D01*
X123159761Y-103922285D01*
X123353285Y-103922285D01*
X123450047Y-103970666D01*
X123498428Y-104067428D01*
X123498428Y-104164190D01*
X123014619Y-104260952D01*
X123837095Y-103922285D02*
X124079000Y-104599619D01*
X124320904Y-103922285D01*
X124707952Y-104599619D02*
X124707952Y-103922285D01*
X124707952Y-103583619D02*
X124659571Y-103632000D01*
X124707952Y-103680380D01*
X124756333Y-103632000D01*
X124707952Y-103583619D01*
X124707952Y-103680380D01*
X125627190Y-104551238D02*
X125530428Y-104599619D01*
X125336904Y-104599619D01*
X125240142Y-104551238D01*
X125191761Y-104502857D01*
X125143380Y-104406095D01*
X125143380Y-104115809D01*
X125191761Y-104019047D01*
X125240142Y-103970666D01*
X125336904Y-103922285D01*
X125530428Y-103922285D01*
X125627190Y-103970666D01*
X126449666Y-104551238D02*
X126352904Y-104599619D01*
X126159380Y-104599619D01*
X126062619Y-104551238D01*
X126014238Y-104454476D01*
X126014238Y-104067428D01*
X126062619Y-103970666D01*
X126159380Y-103922285D01*
X126352904Y-103922285D01*
X126449666Y-103970666D01*
X126498047Y-104067428D01*
X126498047Y-104164190D01*
X126014238Y-104260952D01*
X126885095Y-104551238D02*
X126981857Y-104599619D01*
X127175380Y-104599619D01*
X127272142Y-104551238D01*
X127320523Y-104454476D01*
X127320523Y-104406095D01*
X127272142Y-104309333D01*
X127175380Y-104260952D01*
X127030238Y-104260952D01*
X126933476Y-104212571D01*
X126885095Y-104115809D01*
X126885095Y-104067428D01*
X126933476Y-103970666D01*
X127030238Y-103922285D01*
X127175380Y-103922285D01*
X127272142Y-103970666D01*
D13*
X86311619Y-97294095D02*
X87037333Y-97294095D01*
X87182476Y-97342476D01*
X87279238Y-97439238D01*
X87327619Y-97584380D01*
X87327619Y-97681142D01*
X87327619Y-96374857D02*
X86795428Y-96374857D01*
X86698666Y-96423238D01*
X86650285Y-96520000D01*
X86650285Y-96713523D01*
X86698666Y-96810285D01*
X87279238Y-96374857D02*
X87327619Y-96471619D01*
X87327619Y-96713523D01*
X87279238Y-96810285D01*
X87182476Y-96858666D01*
X87085714Y-96858666D01*
X86988952Y-96810285D01*
X86940571Y-96713523D01*
X86940571Y-96471619D01*
X86892190Y-96374857D01*
X86650285Y-95891047D02*
X87327619Y-95891047D01*
X86747047Y-95891047D02*
X86698666Y-95842666D01*
X86650285Y-95745904D01*
X86650285Y-95600761D01*
X86698666Y-95504000D01*
X86795428Y-95455619D01*
X87327619Y-95455619D01*
X87279238Y-94584761D02*
X87327619Y-94681523D01*
X87327619Y-94875047D01*
X87279238Y-94971809D01*
X87182476Y-95020190D01*
X86795428Y-95020190D01*
X86698666Y-94971809D01*
X86650285Y-94875047D01*
X86650285Y-94681523D01*
X86698666Y-94584761D01*
X86795428Y-94536380D01*
X86892190Y-94536380D01*
X86988952Y-95020190D01*
X87327619Y-93955809D02*
X87279238Y-94052571D01*
X87182476Y-94100952D01*
X86311619Y-94100952D01*
X87327619Y-93568761D02*
X86650285Y-93568761D01*
X86311619Y-93568761D02*
X86360000Y-93617142D01*
X86408380Y-93568761D01*
X86360000Y-93520380D01*
X86311619Y-93568761D01*
X86408380Y-93568761D01*
X87327619Y-92649523D02*
X86795428Y-92649523D01*
X86698666Y-92697904D01*
X86650285Y-92794666D01*
X86650285Y-92988190D01*
X86698666Y-93084952D01*
X87279238Y-92649523D02*
X87327619Y-92746285D01*
X87327619Y-92988190D01*
X87279238Y-93084952D01*
X87182476Y-93133333D01*
X87085714Y-93133333D01*
X86988952Y-93084952D01*
X86940571Y-92988190D01*
X86940571Y-92746285D01*
X86892190Y-92649523D01*
X87327619Y-91391619D02*
X86311619Y-91391619D01*
X87037333Y-91052952D01*
X86311619Y-90714285D01*
X87327619Y-90714285D01*
X87327619Y-90085333D02*
X87279238Y-90182095D01*
X87230857Y-90230476D01*
X87134095Y-90278857D01*
X86843809Y-90278857D01*
X86747047Y-90230476D01*
X86698666Y-90182095D01*
X86650285Y-90085333D01*
X86650285Y-89940190D01*
X86698666Y-89843428D01*
X86747047Y-89795047D01*
X86843809Y-89746666D01*
X87134095Y-89746666D01*
X87230857Y-89795047D01*
X87279238Y-89843428D01*
X87327619Y-89940190D01*
X87327619Y-90085333D01*
X87327619Y-88875809D02*
X86311619Y-88875809D01*
X87279238Y-88875809D02*
X87327619Y-88972571D01*
X87327619Y-89166095D01*
X87279238Y-89262857D01*
X87230857Y-89311238D01*
X87134095Y-89359619D01*
X86843809Y-89359619D01*
X86747047Y-89311238D01*
X86698666Y-89262857D01*
X86650285Y-89166095D01*
X86650285Y-88972571D01*
X86698666Y-88875809D01*
X86650285Y-87956571D02*
X87327619Y-87956571D01*
X86650285Y-88392000D02*
X87182476Y-88392000D01*
X87279238Y-88343619D01*
X87327619Y-88246857D01*
X87327619Y-88101714D01*
X87279238Y-88004952D01*
X87230857Y-87956571D01*
X87327619Y-87327619D02*
X87279238Y-87424380D01*
X87182476Y-87472761D01*
X86311619Y-87472761D01*
X87327619Y-86505142D02*
X86795428Y-86505142D01*
X86698666Y-86553523D01*
X86650285Y-86650285D01*
X86650285Y-86843809D01*
X86698666Y-86940571D01*
X87279238Y-86505142D02*
X87327619Y-86601904D01*
X87327619Y-86843809D01*
X87279238Y-86940571D01*
X87182476Y-86988952D01*
X87085714Y-86988952D01*
X86988952Y-86940571D01*
X86940571Y-86843809D01*
X86940571Y-86601904D01*
X86892190Y-86505142D01*
X87327619Y-86021333D02*
X86650285Y-86021333D01*
X86843809Y-86021333D02*
X86747047Y-85972952D01*
X86698666Y-85924571D01*
X86650285Y-85827809D01*
X86650285Y-85731047D01*
X87327619Y-84618285D02*
X86311619Y-84618285D01*
X86311619Y-84376380D01*
X86360000Y-84231238D01*
X86456761Y-84134476D01*
X86553523Y-84086095D01*
X86747047Y-84037714D01*
X86892190Y-84037714D01*
X87085714Y-84086095D01*
X87182476Y-84134476D01*
X87279238Y-84231238D01*
X87327619Y-84376380D01*
X87327619Y-84618285D01*
X87279238Y-83215238D02*
X87327619Y-83312000D01*
X87327619Y-83505523D01*
X87279238Y-83602285D01*
X87182476Y-83650666D01*
X86795428Y-83650666D01*
X86698666Y-83602285D01*
X86650285Y-83505523D01*
X86650285Y-83312000D01*
X86698666Y-83215238D01*
X86795428Y-83166857D01*
X86892190Y-83166857D01*
X86988952Y-83650666D01*
X86650285Y-82828190D02*
X87327619Y-82586285D01*
X86650285Y-82344380D01*
X87327619Y-81957333D02*
X86650285Y-81957333D01*
X86311619Y-81957333D02*
X86360000Y-82005714D01*
X86408380Y-81957333D01*
X86360000Y-81908952D01*
X86311619Y-81957333D01*
X86408380Y-81957333D01*
X87279238Y-81038095D02*
X87327619Y-81134857D01*
X87327619Y-81328380D01*
X87279238Y-81425142D01*
X87230857Y-81473523D01*
X87134095Y-81521904D01*
X86843809Y-81521904D01*
X86747047Y-81473523D01*
X86698666Y-81425142D01*
X86650285Y-81328380D01*
X86650285Y-81134857D01*
X86698666Y-81038095D01*
X87279238Y-80215619D02*
X87327619Y-80312380D01*
X87327619Y-80505904D01*
X87279238Y-80602666D01*
X87182476Y-80651047D01*
X86795428Y-80651047D01*
X86698666Y-80602666D01*
X86650285Y-80505904D01*
X86650285Y-80312380D01*
X86698666Y-80215619D01*
X86795428Y-80167238D01*
X86892190Y-80167238D01*
X86988952Y-80651047D01*
X89057238Y-97898857D02*
X89105619Y-97995619D01*
X89105619Y-98189142D01*
X89057238Y-98285904D01*
X88960476Y-98334285D01*
X88573428Y-98334285D01*
X88476666Y-98285904D01*
X88428285Y-98189142D01*
X88428285Y-97995619D01*
X88476666Y-97898857D01*
X88573428Y-97850476D01*
X88670190Y-97850476D01*
X88766952Y-98334285D01*
X88428285Y-97415047D02*
X89105619Y-97415047D01*
X88525047Y-97415047D02*
X88476666Y-97366666D01*
X88428285Y-97269904D01*
X88428285Y-97124761D01*
X88476666Y-97028000D01*
X88573428Y-96979619D01*
X89105619Y-96979619D01*
X89057238Y-96060380D02*
X89105619Y-96157142D01*
X89105619Y-96350666D01*
X89057238Y-96447428D01*
X89008857Y-96495809D01*
X88912095Y-96544190D01*
X88621809Y-96544190D01*
X88525047Y-96495809D01*
X88476666Y-96447428D01*
X88428285Y-96350666D01*
X88428285Y-96157142D01*
X88476666Y-96060380D01*
X89105619Y-95479809D02*
X89057238Y-95576571D01*
X89008857Y-95624952D01*
X88912095Y-95673333D01*
X88621809Y-95673333D01*
X88525047Y-95624952D01*
X88476666Y-95576571D01*
X88428285Y-95479809D01*
X88428285Y-95334666D01*
X88476666Y-95237904D01*
X88525047Y-95189523D01*
X88621809Y-95141142D01*
X88912095Y-95141142D01*
X89008857Y-95189523D01*
X89057238Y-95237904D01*
X89105619Y-95334666D01*
X89105619Y-95479809D01*
X89105619Y-94270285D02*
X88089619Y-94270285D01*
X89057238Y-94270285D02*
X89105619Y-94367047D01*
X89105619Y-94560571D01*
X89057238Y-94657333D01*
X89008857Y-94705714D01*
X88912095Y-94754095D01*
X88621809Y-94754095D01*
X88525047Y-94705714D01*
X88476666Y-94657333D01*
X88428285Y-94560571D01*
X88428285Y-94367047D01*
X88476666Y-94270285D01*
X89057238Y-93399428D02*
X89105619Y-93496190D01*
X89105619Y-93689714D01*
X89057238Y-93786476D01*
X88960476Y-93834857D01*
X88573428Y-93834857D01*
X88476666Y-93786476D01*
X88428285Y-93689714D01*
X88428285Y-93496190D01*
X88476666Y-93399428D01*
X88573428Y-93351047D01*
X88670190Y-93351047D01*
X88766952Y-93834857D01*
X89105619Y-92915619D02*
X88428285Y-92915619D01*
X88621809Y-92915619D02*
X88525047Y-92867238D01*
X88476666Y-92818857D01*
X88428285Y-92722095D01*
X88428285Y-92625333D01*
X89202380Y-92528571D02*
X89202380Y-91754476D01*
X89105619Y-91512571D02*
X88428285Y-91512571D01*
X88089619Y-91512571D02*
X88138000Y-91560952D01*
X88186380Y-91512571D01*
X88138000Y-91464190D01*
X88089619Y-91512571D01*
X88186380Y-91512571D01*
X88428285Y-91028761D02*
X89105619Y-91028761D01*
X88525047Y-91028761D02*
X88476666Y-90980380D01*
X88428285Y-90883619D01*
X88428285Y-90738476D01*
X88476666Y-90641714D01*
X88573428Y-90593333D01*
X89105619Y-90593333D01*
X88428285Y-90254666D02*
X88428285Y-89867619D01*
X88089619Y-90109523D02*
X88960476Y-90109523D01*
X89057238Y-90061142D01*
X89105619Y-89964380D01*
X89105619Y-89867619D01*
X89057238Y-89141904D02*
X89105619Y-89238666D01*
X89105619Y-89432190D01*
X89057238Y-89528952D01*
X88960476Y-89577333D01*
X88573428Y-89577333D01*
X88476666Y-89528952D01*
X88428285Y-89432190D01*
X88428285Y-89238666D01*
X88476666Y-89141904D01*
X88573428Y-89093523D01*
X88670190Y-89093523D01*
X88766952Y-89577333D01*
X89105619Y-88658095D02*
X88428285Y-88658095D01*
X88621809Y-88658095D02*
X88525047Y-88609714D01*
X88476666Y-88561333D01*
X88428285Y-88464571D01*
X88428285Y-88367809D01*
X88428285Y-88174285D02*
X88428285Y-87787238D01*
X89105619Y-88029142D02*
X88234761Y-88029142D01*
X88138000Y-87980761D01*
X88089619Y-87884000D01*
X88089619Y-87787238D01*
X89105619Y-87013142D02*
X88573428Y-87013142D01*
X88476666Y-87061523D01*
X88428285Y-87158285D01*
X88428285Y-87351809D01*
X88476666Y-87448571D01*
X89057238Y-87013142D02*
X89105619Y-87109904D01*
X89105619Y-87351809D01*
X89057238Y-87448571D01*
X88960476Y-87496952D01*
X88863714Y-87496952D01*
X88766952Y-87448571D01*
X88718571Y-87351809D01*
X88718571Y-87109904D01*
X88670190Y-87013142D01*
X89057238Y-86093904D02*
X89105619Y-86190666D01*
X89105619Y-86384190D01*
X89057238Y-86480952D01*
X89008857Y-86529333D01*
X88912095Y-86577714D01*
X88621809Y-86577714D01*
X88525047Y-86529333D01*
X88476666Y-86480952D01*
X88428285Y-86384190D01*
X88428285Y-86190666D01*
X88476666Y-86093904D01*
X89057238Y-85271428D02*
X89105619Y-85368190D01*
X89105619Y-85561714D01*
X89057238Y-85658476D01*
X88960476Y-85706857D01*
X88573428Y-85706857D01*
X88476666Y-85658476D01*
X88428285Y-85561714D01*
X88428285Y-85368190D01*
X88476666Y-85271428D01*
X88573428Y-85223047D01*
X88670190Y-85223047D01*
X88766952Y-85706857D01*
X89202380Y-85029523D02*
X89202380Y-84255428D01*
X89057238Y-84061904D02*
X89105619Y-83965142D01*
X89105619Y-83771619D01*
X89057238Y-83674857D01*
X88960476Y-83626476D01*
X88912095Y-83626476D01*
X88815333Y-83674857D01*
X88766952Y-83771619D01*
X88766952Y-83916761D01*
X88718571Y-84013523D01*
X88621809Y-84061904D01*
X88573428Y-84061904D01*
X88476666Y-84013523D01*
X88428285Y-83916761D01*
X88428285Y-83771619D01*
X88476666Y-83674857D01*
X89105619Y-83191047D02*
X88428285Y-83191047D01*
X88089619Y-83191047D02*
X88138000Y-83239428D01*
X88186380Y-83191047D01*
X88138000Y-83142666D01*
X88089619Y-83191047D01*
X88186380Y-83191047D01*
X89105619Y-82707238D02*
X88428285Y-82707238D01*
X88525047Y-82707238D02*
X88476666Y-82658857D01*
X88428285Y-82562095D01*
X88428285Y-82416952D01*
X88476666Y-82320190D01*
X88573428Y-82271809D01*
X89105619Y-82271809D01*
X88573428Y-82271809D02*
X88476666Y-82223428D01*
X88428285Y-82126666D01*
X88428285Y-81981523D01*
X88476666Y-81884761D01*
X88573428Y-81836380D01*
X89105619Y-81836380D01*
X88428285Y-81352571D02*
X89444285Y-81352571D01*
X88476666Y-81352571D02*
X88428285Y-81255809D01*
X88428285Y-81062285D01*
X88476666Y-80965523D01*
X88525047Y-80917142D01*
X88621809Y-80868761D01*
X88912095Y-80868761D01*
X89008857Y-80917142D01*
X89057238Y-80965523D01*
X89105619Y-81062285D01*
X89105619Y-81255809D01*
X89057238Y-81352571D01*
X89105619Y-80288190D02*
X89057238Y-80384952D01*
X88960476Y-80433333D01*
X88089619Y-80433333D01*
X89057238Y-79514095D02*
X89105619Y-79610857D01*
X89105619Y-79804380D01*
X89057238Y-79901142D01*
X88960476Y-79949523D01*
X88573428Y-79949523D01*
X88476666Y-79901142D01*
X88428285Y-79804380D01*
X88428285Y-79610857D01*
X88476666Y-79514095D01*
X88573428Y-79465714D01*
X88670190Y-79465714D01*
X88766952Y-79949523D01*
X90206285Y-95939428D02*
X91222285Y-95939428D01*
X90254666Y-95939428D02*
X90206285Y-95842666D01*
X90206285Y-95649142D01*
X90254666Y-95552380D01*
X90303047Y-95504000D01*
X90399809Y-95455619D01*
X90690095Y-95455619D01*
X90786857Y-95504000D01*
X90835238Y-95552380D01*
X90883619Y-95649142D01*
X90883619Y-95842666D01*
X90835238Y-95939428D01*
X90883619Y-94584761D02*
X90351428Y-94584761D01*
X90254666Y-94633142D01*
X90206285Y-94729904D01*
X90206285Y-94923428D01*
X90254666Y-95020190D01*
X90835238Y-94584761D02*
X90883619Y-94681523D01*
X90883619Y-94923428D01*
X90835238Y-95020190D01*
X90738476Y-95068571D01*
X90641714Y-95068571D01*
X90544952Y-95020190D01*
X90496571Y-94923428D01*
X90496571Y-94681523D01*
X90448190Y-94584761D01*
X90883619Y-94100952D02*
X90206285Y-94100952D01*
X90399809Y-94100952D02*
X90303047Y-94052571D01*
X90254666Y-94004190D01*
X90206285Y-93907428D01*
X90206285Y-93810666D01*
X90206285Y-93617142D02*
X90206285Y-93230095D01*
X89867619Y-93472000D02*
X90738476Y-93472000D01*
X90835238Y-93423619D01*
X90883619Y-93326857D01*
X90883619Y-93230095D01*
X90980380Y-93133333D02*
X90980380Y-92359238D01*
X90206285Y-92117333D02*
X90883619Y-92117333D01*
X90303047Y-92117333D02*
X90254666Y-92068952D01*
X90206285Y-91972190D01*
X90206285Y-91827047D01*
X90254666Y-91730285D01*
X90351428Y-91681904D01*
X90883619Y-91681904D01*
X90206285Y-90762666D02*
X90883619Y-90762666D01*
X90206285Y-91198095D02*
X90738476Y-91198095D01*
X90835238Y-91149714D01*
X90883619Y-91052952D01*
X90883619Y-90907809D01*
X90835238Y-90811047D01*
X90786857Y-90762666D01*
X90883619Y-90278857D02*
X90206285Y-90278857D01*
X90303047Y-90278857D02*
X90254666Y-90230476D01*
X90206285Y-90133714D01*
X90206285Y-89988571D01*
X90254666Y-89891809D01*
X90351428Y-89843428D01*
X90883619Y-89843428D01*
X90351428Y-89843428D02*
X90254666Y-89795047D01*
X90206285Y-89698285D01*
X90206285Y-89553142D01*
X90254666Y-89456380D01*
X90351428Y-89408000D01*
X90883619Y-89408000D01*
X90883619Y-88924190D02*
X89867619Y-88924190D01*
X90254666Y-88924190D02*
X90206285Y-88827428D01*
X90206285Y-88633904D01*
X90254666Y-88537142D01*
X90303047Y-88488761D01*
X90399809Y-88440380D01*
X90690095Y-88440380D01*
X90786857Y-88488761D01*
X90835238Y-88537142D01*
X90883619Y-88633904D01*
X90883619Y-88827428D01*
X90835238Y-88924190D01*
X90835238Y-87617904D02*
X90883619Y-87714666D01*
X90883619Y-87908190D01*
X90835238Y-88004952D01*
X90738476Y-88053333D01*
X90351428Y-88053333D01*
X90254666Y-88004952D01*
X90206285Y-87908190D01*
X90206285Y-87714666D01*
X90254666Y-87617904D01*
X90351428Y-87569523D01*
X90448190Y-87569523D01*
X90544952Y-88053333D01*
X90883619Y-87134095D02*
X90206285Y-87134095D01*
X90399809Y-87134095D02*
X90303047Y-87085714D01*
X90254666Y-87037333D01*
X90206285Y-86940571D01*
X90206285Y-86843809D01*
X90786857Y-86505142D02*
X90835238Y-86456761D01*
X90883619Y-86505142D01*
X90835238Y-86553523D01*
X90786857Y-86505142D01*
X90883619Y-86505142D01*
X90254666Y-86505142D02*
X90303047Y-86456761D01*
X90351428Y-86505142D01*
X90303047Y-86553523D01*
X90254666Y-86505142D01*
X90351428Y-86505142D01*
X90883619Y-84715047D02*
X90883619Y-85295619D01*
X90883619Y-85005333D02*
X89867619Y-85005333D01*
X90012761Y-85102095D01*
X90109523Y-85198857D01*
X90157904Y-85295619D01*
X89964380Y-84328000D02*
X89916000Y-84279619D01*
X89867619Y-84182857D01*
X89867619Y-83940952D01*
X89916000Y-83844190D01*
X89964380Y-83795809D01*
X90061142Y-83747428D01*
X90157904Y-83747428D01*
X90303047Y-83795809D01*
X90883619Y-84376380D01*
X90883619Y-83747428D01*
X89867619Y-83408761D02*
X89867619Y-82779809D01*
X90254666Y-83118476D01*
X90254666Y-82973333D01*
X90303047Y-82876571D01*
X90351428Y-82828190D01*
X90448190Y-82779809D01*
X90690095Y-82779809D01*
X90786857Y-82828190D01*
X90835238Y-82876571D01*
X90883619Y-82973333D01*
X90883619Y-83263619D01*
X90835238Y-83360380D01*
X90786857Y-83408761D01*
X90883619Y-81812190D02*
X90883619Y-82392761D01*
X90883619Y-82102476D02*
X89867619Y-82102476D01*
X90012761Y-82199238D01*
X90109523Y-82295999D01*
X90157904Y-82392761D01*
X92661619Y-96447428D02*
X92661619Y-97028000D01*
X92661619Y-96737714D02*
X91645619Y-96737714D01*
X91790761Y-96834476D01*
X91887523Y-96931238D01*
X91935904Y-97028000D01*
X91645619Y-95818476D02*
X91645619Y-95721714D01*
X91694000Y-95624952D01*
X91742380Y-95576571D01*
X91839142Y-95528190D01*
X92032666Y-95479809D01*
X92274571Y-95479809D01*
X92468095Y-95528190D01*
X92564857Y-95576571D01*
X92613238Y-95624952D01*
X92661619Y-95721714D01*
X92661619Y-95818476D01*
X92613238Y-95915238D01*
X92564857Y-95963619D01*
X92468095Y-96012000D01*
X92274571Y-96060380D01*
X92032666Y-96060380D01*
X91839142Y-96012000D01*
X91742380Y-95963619D01*
X91694000Y-95915238D01*
X91645619Y-95818476D01*
X91597238Y-94318666D02*
X92903523Y-95189523D01*
X91742380Y-94028380D02*
X91694000Y-93980000D01*
X91645619Y-93883238D01*
X91645619Y-93641333D01*
X91694000Y-93544571D01*
X91742380Y-93496190D01*
X91839142Y-93447809D01*
X91935904Y-93447809D01*
X92081047Y-93496190D01*
X92661619Y-94076761D01*
X92661619Y-93447809D01*
X91645619Y-92818857D02*
X91645619Y-92722095D01*
X91694000Y-92625333D01*
X91742380Y-92576952D01*
X91839142Y-92528571D01*
X92032666Y-92480190D01*
X92274571Y-92480190D01*
X92468095Y-92528571D01*
X92564857Y-92576952D01*
X92613238Y-92625333D01*
X92661619Y-92722095D01*
X92661619Y-92818857D01*
X92613238Y-92915619D01*
X92564857Y-92964000D01*
X92468095Y-93012380D01*
X92274571Y-93060761D01*
X92032666Y-93060761D01*
X91839142Y-93012380D01*
X91742380Y-92964000D01*
X91694000Y-92915619D01*
X91645619Y-92818857D01*
X91742380Y-92093142D02*
X91694000Y-92044761D01*
X91645619Y-91948000D01*
X91645619Y-91706095D01*
X91694000Y-91609333D01*
X91742380Y-91560952D01*
X91839142Y-91512571D01*
X91935904Y-91512571D01*
X92081047Y-91560952D01*
X92661619Y-92141523D01*
X92661619Y-91512571D01*
X91645619Y-90883619D02*
X91645619Y-90786857D01*
X91694000Y-90690095D01*
X91742380Y-90641714D01*
X91839142Y-90593333D01*
X92032666Y-90544952D01*
X92274571Y-90544952D01*
X92468095Y-90593333D01*
X92564857Y-90641714D01*
X92613238Y-90690095D01*
X92661619Y-90786857D01*
X92661619Y-90883619D01*
X92613238Y-90980380D01*
X92564857Y-91028761D01*
X92468095Y-91077142D01*
X92274571Y-91125523D01*
X92032666Y-91125523D01*
X91839142Y-91077142D01*
X91742380Y-91028761D01*
X91694000Y-90980380D01*
X91645619Y-90883619D01*
X91984285Y-89432190D02*
X92661619Y-89190285D01*
X91984285Y-88948380D01*
X92613238Y-88174285D02*
X92661619Y-88271047D01*
X92661619Y-88464571D01*
X92613238Y-88561333D01*
X92516476Y-88609714D01*
X92129428Y-88609714D01*
X92032666Y-88561333D01*
X91984285Y-88464571D01*
X91984285Y-88271047D01*
X92032666Y-88174285D01*
X92129428Y-88125904D01*
X92226190Y-88125904D01*
X92322952Y-88609714D01*
X92661619Y-87690476D02*
X91984285Y-87690476D01*
X92177809Y-87690476D02*
X92081047Y-87642095D01*
X92032666Y-87593714D01*
X91984285Y-87496952D01*
X91984285Y-87400190D01*
X92661619Y-85755238D02*
X92661619Y-86335809D01*
X92661619Y-86045523D02*
X91645619Y-86045523D01*
X91790761Y-86142285D01*
X91887523Y-86239047D01*
X91935904Y-86335809D01*
X92564857Y-85319809D02*
X92613238Y-85271428D01*
X92661619Y-85319809D01*
X92613238Y-85368190D01*
X92564857Y-85319809D01*
X92661619Y-85319809D01*
X92661619Y-84303809D02*
X92661619Y-84884380D01*
X92661619Y-84594095D02*
X91645619Y-84594095D01*
X91790761Y-84690857D01*
X91887523Y-84787619D01*
X91935904Y-84884380D01*
X91645619Y-83191047D02*
X91645619Y-82562095D01*
X92032666Y-82900761D01*
X92032666Y-82755619D01*
X92081047Y-82658857D01*
X92129428Y-82610476D01*
X92226190Y-82562095D01*
X92468095Y-82562095D01*
X92564857Y-82610476D01*
X92613238Y-82658857D01*
X92661619Y-82755619D01*
X92661619Y-83045904D01*
X92613238Y-83142666D01*
X92564857Y-83191047D01*
X92661619Y-82223428D02*
X91984285Y-81691238D01*
X91984285Y-82223428D02*
X92661619Y-81691238D01*
X91742380Y-81352571D02*
X91694000Y-81304190D01*
X91645619Y-81207428D01*
X91645619Y-80965523D01*
X91694000Y-80868761D01*
X91742380Y-80820380D01*
X91839142Y-80772000D01*
X91935904Y-80772000D01*
X92081047Y-80820380D01*
X92661619Y-81400952D01*
X92661619Y-80772000D01*
D11*
%TO.C,MDB1*%
X132715000Y-71120000D02*
G75*
G03*
X132715000Y-71120000I-2540000J0D01*
G01*
X132715000Y-106680000D02*
G75*
G03*
X132715000Y-106680000I-2540000J0D01*
G01*
X92075000Y-101600000D02*
G75*
G03*
X92075000Y-101600000I-2540000J0D01*
G01*
X92075000Y-76200000D02*
G75*
G03*
X92075000Y-76200000I-2540000J0D01*
G01*
D10*
%TO.C,P1*%
X142875000Y-91440000D02*
X143637000Y-92202000D01*
X141605000Y-87630000D02*
X143129000Y-86614000D01*
X154940000Y-82550000D02*
X155575000Y-82550000D01*
X155575000Y-82550000D02*
X155575000Y-95250000D01*
X155575000Y-95250000D02*
X154940000Y-95250000D01*
X154940000Y-81280000D02*
X139065000Y-81280000D01*
X139065000Y-81280000D02*
X139065000Y-96520000D01*
X139065000Y-96520000D02*
X154940000Y-96520000D01*
X154940000Y-96520000D02*
X154940000Y-81280000D01*
X140970000Y-93218000D02*
X144780000Y-89408000D01*
X141605000Y-88900000D02*
X141605000Y-86360000D01*
%TO.C,P2*%
X118745000Y-86360000D02*
X118745000Y-84836000D01*
X111125000Y-86360000D02*
X111125000Y-84836000D01*
X119380000Y-83693000D02*
X120015000Y-84963000D01*
X120015000Y-84963000D02*
X120650000Y-83693000D01*
X120650000Y-83693000D02*
X119380000Y-83693000D01*
X111125000Y-84836000D02*
X118745000Y-84836000D01*
X107315000Y-86360000D02*
X107315000Y-91440000D01*
X107315000Y-91440000D02*
X122555000Y-91440000D01*
X122555000Y-91440000D02*
X122555000Y-86360000D01*
X122555000Y-86360000D02*
X107315000Y-86360000D01*
%TO.C,P1*%
D13*
X152920095Y-98249619D02*
X152920095Y-97233619D01*
X153307142Y-97233619D01*
X153403904Y-97282000D01*
X153452285Y-97330380D01*
X153500666Y-97427142D01*
X153500666Y-97572285D01*
X153452285Y-97669047D01*
X153403904Y-97717428D01*
X153307142Y-97765809D01*
X152920095Y-97765809D01*
X154468285Y-98249619D02*
X153887714Y-98249619D01*
X154178000Y-98249619D02*
X154178000Y-97233619D01*
X154081238Y-97378761D01*
X153984476Y-97475523D01*
X153887714Y-97523904D01*
X135968619Y-95141142D02*
X135968619Y-94560571D01*
X136984619Y-94850857D02*
X135968619Y-94850857D01*
X136984619Y-94076761D02*
X136936238Y-94173523D01*
X136887857Y-94221904D01*
X136791095Y-94270285D01*
X136500809Y-94270285D01*
X136404047Y-94221904D01*
X136355666Y-94173523D01*
X136307285Y-94076761D01*
X136307285Y-93931619D01*
X136355666Y-93834857D01*
X136404047Y-93786476D01*
X136500809Y-93738095D01*
X136791095Y-93738095D01*
X136887857Y-93786476D01*
X136936238Y-93834857D01*
X136984619Y-93931619D01*
X136984619Y-94076761D01*
X136307285Y-93302666D02*
X137323285Y-93302666D01*
X136355666Y-93302666D02*
X136307285Y-93205904D01*
X136307285Y-93012380D01*
X136355666Y-92915619D01*
X136404047Y-92867238D01*
X136500809Y-92818857D01*
X136791095Y-92818857D01*
X136887857Y-92867238D01*
X136936238Y-92915619D01*
X136984619Y-93012380D01*
X136984619Y-93205904D01*
X136936238Y-93302666D01*
X136887857Y-92383428D02*
X136936238Y-92335047D01*
X136984619Y-92383428D01*
X136936238Y-92431809D01*
X136887857Y-92383428D01*
X136984619Y-92383428D01*
X136355666Y-92383428D02*
X136404047Y-92335047D01*
X136452428Y-92383428D01*
X136404047Y-92431809D01*
X136355666Y-92383428D01*
X136452428Y-92383428D01*
X136452428Y-91125523D02*
X136452428Y-90786857D01*
X136984619Y-90641714D02*
X136984619Y-91125523D01*
X135968619Y-91125523D01*
X135968619Y-90641714D01*
X136984619Y-90206285D02*
X135968619Y-90206285D01*
X136984619Y-89625714D01*
X135968619Y-89625714D01*
X136887857Y-88561333D02*
X136936238Y-88609714D01*
X136984619Y-88754857D01*
X136984619Y-88851619D01*
X136936238Y-88996761D01*
X136839476Y-89093523D01*
X136742714Y-89141904D01*
X136549190Y-89190285D01*
X136404047Y-89190285D01*
X136210523Y-89141904D01*
X136113761Y-89093523D01*
X136017000Y-88996761D01*
X135968619Y-88851619D01*
X135968619Y-88754857D01*
X136017000Y-88609714D01*
X136065380Y-88561333D01*
X135968619Y-87932380D02*
X135968619Y-87738857D01*
X136017000Y-87642095D01*
X136113761Y-87545333D01*
X136307285Y-87496952D01*
X136645952Y-87496952D01*
X136839476Y-87545333D01*
X136936238Y-87642095D01*
X136984619Y-87738857D01*
X136984619Y-87932380D01*
X136936238Y-88029142D01*
X136839476Y-88125904D01*
X136645952Y-88174285D01*
X136307285Y-88174285D01*
X136113761Y-88125904D01*
X136017000Y-88029142D01*
X135968619Y-87932380D01*
X136984619Y-87061523D02*
X135968619Y-87061523D01*
X135968619Y-86819619D01*
X136017000Y-86674476D01*
X136113761Y-86577714D01*
X136210523Y-86529333D01*
X136404047Y-86480952D01*
X136549190Y-86480952D01*
X136742714Y-86529333D01*
X136839476Y-86577714D01*
X136936238Y-86674476D01*
X136984619Y-86819619D01*
X136984619Y-87061523D01*
X136452428Y-86045523D02*
X136452428Y-85706857D01*
X136984619Y-85561714D02*
X136984619Y-86045523D01*
X135968619Y-86045523D01*
X135968619Y-85561714D01*
X136984619Y-84545714D02*
X136500809Y-84884380D01*
X136984619Y-85126285D02*
X135968619Y-85126285D01*
X135968619Y-84739238D01*
X136017000Y-84642476D01*
X136065380Y-84594095D01*
X136162142Y-84545714D01*
X136307285Y-84545714D01*
X136404047Y-84594095D01*
X136452428Y-84642476D01*
X136500809Y-84739238D01*
X136500809Y-85126285D01*
X136452428Y-82997523D02*
X136500809Y-82852380D01*
X136549190Y-82804000D01*
X136645952Y-82755619D01*
X136791095Y-82755619D01*
X136887857Y-82804000D01*
X136936238Y-82852380D01*
X136984619Y-82949142D01*
X136984619Y-83336190D01*
X135968619Y-83336190D01*
X135968619Y-82997523D01*
X136017000Y-82900761D01*
X136065380Y-82852380D01*
X136162142Y-82804000D01*
X136258904Y-82804000D01*
X136355666Y-82852380D01*
X136404047Y-82900761D01*
X136452428Y-82997523D01*
X136452428Y-83336190D01*
X137976428Y-95963619D02*
X138024809Y-95818476D01*
X138073190Y-95770095D01*
X138169952Y-95721714D01*
X138315095Y-95721714D01*
X138411857Y-95770095D01*
X138460238Y-95818476D01*
X138508619Y-95915238D01*
X138508619Y-96302285D01*
X137492619Y-96302285D01*
X137492619Y-95963619D01*
X137541000Y-95866857D01*
X137589380Y-95818476D01*
X137686142Y-95770095D01*
X137782904Y-95770095D01*
X137879666Y-95818476D01*
X137928047Y-95866857D01*
X137976428Y-95963619D01*
X137976428Y-96302285D01*
X138508619Y-95141142D02*
X138460238Y-95237904D01*
X138411857Y-95286285D01*
X138315095Y-95334666D01*
X138024809Y-95334666D01*
X137928047Y-95286285D01*
X137879666Y-95237904D01*
X137831285Y-95141142D01*
X137831285Y-94996000D01*
X137879666Y-94899238D01*
X137928047Y-94850857D01*
X138024809Y-94802476D01*
X138315095Y-94802476D01*
X138411857Y-94850857D01*
X138460238Y-94899238D01*
X138508619Y-94996000D01*
X138508619Y-95141142D01*
X137831285Y-94512190D02*
X137831285Y-94125142D01*
X137492619Y-94367047D02*
X138363476Y-94367047D01*
X138460238Y-94318666D01*
X138508619Y-94221904D01*
X138508619Y-94125142D01*
X137831285Y-93931619D02*
X137831285Y-93544571D01*
X137492619Y-93786476D02*
X138363476Y-93786476D01*
X138460238Y-93738095D01*
X138508619Y-93641333D01*
X138508619Y-93544571D01*
X138508619Y-93060761D02*
X138460238Y-93157523D01*
X138411857Y-93205904D01*
X138315095Y-93254285D01*
X138024809Y-93254285D01*
X137928047Y-93205904D01*
X137879666Y-93157523D01*
X137831285Y-93060761D01*
X137831285Y-92915619D01*
X137879666Y-92818857D01*
X137928047Y-92770476D01*
X138024809Y-92722095D01*
X138315095Y-92722095D01*
X138411857Y-92770476D01*
X138460238Y-92818857D01*
X138508619Y-92915619D01*
X138508619Y-93060761D01*
X138508619Y-92286666D02*
X137831285Y-92286666D01*
X137928047Y-92286666D02*
X137879666Y-92238285D01*
X137831285Y-92141523D01*
X137831285Y-91996380D01*
X137879666Y-91899619D01*
X137976428Y-91851238D01*
X138508619Y-91851238D01*
X137976428Y-91851238D02*
X137879666Y-91802857D01*
X137831285Y-91706095D01*
X137831285Y-91560952D01*
X137879666Y-91464190D01*
X137976428Y-91415809D01*
X138508619Y-91415809D01*
X138411857Y-90932000D02*
X138460238Y-90883619D01*
X138508619Y-90932000D01*
X138460238Y-90980380D01*
X138411857Y-90932000D01*
X138508619Y-90932000D01*
X137879666Y-90932000D02*
X137928047Y-90883619D01*
X137976428Y-90932000D01*
X137928047Y-90980380D01*
X137879666Y-90932000D01*
X137976428Y-90932000D01*
X137976428Y-89674095D02*
X137976428Y-89335428D01*
X138508619Y-89190285D02*
X138508619Y-89674095D01*
X137492619Y-89674095D01*
X137492619Y-89190285D01*
X138508619Y-88754857D02*
X137492619Y-88754857D01*
X138508619Y-88174285D01*
X137492619Y-88174285D01*
X138411857Y-87109904D02*
X138460238Y-87158285D01*
X138508619Y-87303428D01*
X138508619Y-87400190D01*
X138460238Y-87545333D01*
X138363476Y-87642095D01*
X138266714Y-87690476D01*
X138073190Y-87738857D01*
X137928047Y-87738857D01*
X137734523Y-87690476D01*
X137637761Y-87642095D01*
X137541000Y-87545333D01*
X137492619Y-87400190D01*
X137492619Y-87303428D01*
X137541000Y-87158285D01*
X137589380Y-87109904D01*
X137492619Y-86480952D02*
X137492619Y-86287428D01*
X137541000Y-86190666D01*
X137637761Y-86093904D01*
X137831285Y-86045523D01*
X138169952Y-86045523D01*
X138363476Y-86093904D01*
X138460238Y-86190666D01*
X138508619Y-86287428D01*
X138508619Y-86480952D01*
X138460238Y-86577714D01*
X138363476Y-86674476D01*
X138169952Y-86722857D01*
X137831285Y-86722857D01*
X137637761Y-86674476D01*
X137541000Y-86577714D01*
X137492619Y-86480952D01*
X138508619Y-85610095D02*
X137492619Y-85610095D01*
X137492619Y-85368190D01*
X137541000Y-85223047D01*
X137637761Y-85126285D01*
X137734523Y-85077904D01*
X137928047Y-85029523D01*
X138073190Y-85029523D01*
X138266714Y-85077904D01*
X138363476Y-85126285D01*
X138460238Y-85223047D01*
X138508619Y-85368190D01*
X138508619Y-85610095D01*
X137976428Y-84594095D02*
X137976428Y-84255428D01*
X138508619Y-84110285D02*
X138508619Y-84594095D01*
X137492619Y-84594095D01*
X137492619Y-84110285D01*
X138508619Y-83094285D02*
X138024809Y-83432952D01*
X138508619Y-83674857D02*
X137492619Y-83674857D01*
X137492619Y-83287809D01*
X137541000Y-83191047D01*
X137589380Y-83142666D01*
X137686142Y-83094285D01*
X137831285Y-83094285D01*
X137928047Y-83142666D01*
X137976428Y-83191047D01*
X138024809Y-83287809D01*
X138024809Y-83674857D01*
X138218333Y-81933142D02*
X138218333Y-81449333D01*
X138508619Y-82029904D02*
X137492619Y-81691238D01*
X138508619Y-81352571D01*
X143818428Y-92891428D02*
X143866809Y-92746285D01*
X143915190Y-92697904D01*
X144011952Y-92649523D01*
X144157095Y-92649523D01*
X144253857Y-92697904D01*
X144302238Y-92746285D01*
X144350619Y-92843047D01*
X144350619Y-93230095D01*
X143334619Y-93230095D01*
X143334619Y-92891428D01*
X143383000Y-92794666D01*
X143431380Y-92746285D01*
X143528142Y-92697904D01*
X143624904Y-92697904D01*
X143721666Y-92746285D01*
X143770047Y-92794666D01*
X143818428Y-92891428D01*
X143818428Y-93230095D01*
X143588619Y-86650285D02*
X143588619Y-86069714D01*
X144604619Y-86360000D02*
X143588619Y-86360000D01*
%TO.C,P2*%
X124284619Y-89649904D02*
X123268619Y-89649904D01*
X123268619Y-89262857D01*
X123317000Y-89166095D01*
X123365380Y-89117714D01*
X123462142Y-89069333D01*
X123607285Y-89069333D01*
X123704047Y-89117714D01*
X123752428Y-89166095D01*
X123800809Y-89262857D01*
X123800809Y-89649904D01*
X123365380Y-88682285D02*
X123317000Y-88633904D01*
X123268619Y-88537142D01*
X123268619Y-88295238D01*
X123317000Y-88198476D01*
X123365380Y-88150095D01*
X123462142Y-88101714D01*
X123558904Y-88101714D01*
X123704047Y-88150095D01*
X124284619Y-88730666D01*
X124284619Y-88101714D01*
%TD*%
%LPC*%
D14*
%TO.C,MDB1*%
X130175000Y-71120000D03*
X130175000Y-106680000D03*
X89535000Y-101600000D03*
X89535000Y-76200000D03*
D15*
X88265000Y-106680000D03*
X90805000Y-106680000D03*
X93345000Y-106680000D03*
X95885000Y-106680000D03*
X98425000Y-106680000D03*
X100965000Y-106680000D03*
X103505000Y-106680000D03*
X106045000Y-106680000D03*
X108585000Y-106680000D03*
X111125000Y-106680000D03*
X113665000Y-106680000D03*
X116205000Y-106680000D03*
X118745000Y-106680000D03*
X121285000Y-106680000D03*
X123825000Y-106680000D03*
X126365000Y-106680000D03*
X126365000Y-71120000D03*
X123825000Y-71120000D03*
X121285000Y-71120000D03*
X118745000Y-71120000D03*
X116205000Y-71120000D03*
X113665000Y-71120000D03*
X111125000Y-71120000D03*
X108585000Y-71120000D03*
X106045000Y-71120000D03*
X103505000Y-71120000D03*
X100965000Y-71120000D03*
X98425000Y-71120000D03*
X95885000Y-71120000D03*
D16*
X88265000Y-71120000D03*
D15*
X93345000Y-71120000D03*
X90805000Y-71120000D03*
%TD*%
D17*
%TO.C,P1*%
X149225000Y-83820000D03*
X149225000Y-93980000D03*
D18*
X143129000Y-88900000D03*
D19*
X140335000Y-88900000D03*
X140335000Y-91694000D03*
X140335000Y-86106000D03*
%TD*%
D20*
%TO.C,P2*%
X117475000Y-90995500D03*
X120015000Y-86804500D03*
X114935000Y-86804500D03*
X112395000Y-90995500D03*
X109855000Y-86804500D03*
%TD*%
M02*
