M48
; DRILL file {KiCad 5.1.7-a382d34a8~87~ubuntu20.04.1} date Thu Oct 29 11:39:45 2020
; FORMAT={2:4/ absolute / inch / keep zeros}
; #@! TF.CreationDate,2020-10-29T11:39:45-04:00
; #@! TF.GenerationSoftware,Kicad,Pcbnew,5.1.7-a382d34a8~87~ubuntu20.04.1
FMAT,2
INCH
T1C0.0350
T2C0.0430
T3C0.0900
T4C0.1300
%
G90
G05
T1
X055250Y-034000
X055250Y-035000
X055250Y-036000
X056250Y-035000
T2
X034750Y-028000
X034750Y-042000
X035750Y-028000
X035750Y-042000
X036750Y-028000
X036750Y-042000
X037750Y-028000
X037750Y-042000
X038750Y-028000
X038750Y-042000
X039750Y-028000
X039750Y-042000
X040750Y-028000
X040750Y-042000
X041750Y-028000
X041750Y-042000
X042750Y-028000
X042750Y-042000
X043750Y-028000
X043750Y-042000
X044750Y-028000
X044750Y-042000
X045750Y-028000
X045750Y-042000
X046750Y-028000
X046750Y-042000
X047750Y-028000
X047750Y-042000
X048750Y-028000
X048750Y-042000
X049750Y-028000
X049750Y-042000
T3
X058750Y-033000
X058750Y-037000
T4
X035250Y-030000
X035250Y-040000
X051250Y-028000
X051250Y-042000
T0
M30
